{
.appVersion = "983";
DisplayStrings = (
"MODERN TINNITUS"
);
copyright = "Copyright 2017 The Barlow Project Authors (https://github.com/jpt/barlow)";
customParameters = (
{
name = "Use Typo Metrics";
value = 1;
},
{
name = licenseURL;
value = "http://scripts.sil.org/OFL";
},
{
name = license;
value = "This Font Software is licensed under the SIL Open Font License, Version 1.1. This license is available with a FAQ at: http://scripts.sil.org/OFL";
},
{
name = versionString;
value = "Development Version";
},
{
name = fsType;
value = (
);
},
{
name = vendorID;
value = TRBY;
}
);
date = "2017-01-19 02:17:38 +0000";
designer = "Jeremy Tribby";
designerURL = "https://tribby.com/";
familyName = Barlow;
fontMaster = (
{
alignmentZones = (
"{800, 16}",
"{700, 9}",
"{500, 9}",
"{0, -8}",
"{-200, -16}"
);
ascender = 800;
capHeight = 700;
customParameters = (
{
name = typoAscender;
value = 1000;
},
{
name = typoDescender;
value = -200;
},
{
name = winAscent;
value = 958;
},
{
name = winDescent;
value = 211;
},
{
name = hheaAscender;
value = 1000;
},
{
name = hheaDescender;
value = -200;
}
);
descender = -200;
horizontalStems = (
22,
22
);
id = "262880E7-CFE1-4BDA-902E-E24798F3240A";
userData = {
GSCornerRadius = 12;
GSOffsetHorizontal = 11;
GSOffsetMakeStroke = 1;
GSOffsetVertical = 10;
noodleExtremesAndInflections = 1;
noodleRemoveOverlap = 1;
noodleThickness = "22.0";
};
verticalStems = (
21,
21
);
weight = Light;
weightValue = 23;
widthValue = 5;
xHeight = 500;
},
{
alignmentZones = (
"{800, 16}",
"{700, 9}",
"{520, 9}",
"{0, -13}",
"{-200, -8}"
);
ascender = 800;
capHeight = 700;
customParameters = (
{
name = typoAscender;
value = 1000;
},
{
name = typoDescender;
value = -200;
},
{
name = winAscent;
value = 958;
},
{
name = winDescent;
value = 211;
},
{
name = hheaAscender;
value = 1000;
},
{
name = hheaDescender;
value = -200;
}
);
descender = -200;
horizontalStems = (
188,
188
);
id = "FFFA8D72-12AC-4CE0-B2CA-57A29829F4DA";
userData = {
GSCornerRadius = 8;

glyphs = (
{
glyphname = A;
lastChange = "2017-04-26 12:32:03 +0000";
layers = (
{
anchors = (
{
name = top;
position = "{257, 700}";
}
);
hints = (
{
origin = "{0, 6}";
target = "{0, 0}";
},
{
origin = "{0, 2}";
target = "{0, 3}";
},
{
origin = "{0, 5}";
target = "{0, 4}";
},
{
horizontal = 1;
origin = "{1, 0}";
target = "{1, 1}";
}
);
layerId = "262880E7-CFE1-4BDA-902E-E24798F3240A";
paths = (
{
closed = 1;
nodes = (
"57 0 LINE",
"257 671 LINE",
"459 0 LINE",
"481 0 LINE",
"268 700 LINE",
"246 700 LINE",
"35 0 LINE"
);
},
{
closed = 1;
nodes = (
"424 155 LINE",
"424 176 LINE",
"95 176 LINE",
"95 155 LINE"
);
}
);
width = 516;
},
{
anchors = (
{
name = top;
position = "{260, 700}";
}
);
layerId = "4E2227F3-52E4-4048-A8EE-327B486EF0A4";
paths = (
{
closed = 1;
nodes = (
"194 0 LINE",
"264 458 LINE",
"321 0 LINE",
"513 0 LINE",
"365 700 LINE",
"155 700 LINE",
"6 0 LINE"
);
},
{
closed = 1;
nodes = (
"393 95 LINE",
"393 239 LINE",
"123 239 LINE",
"123 95 LINE"
);
}
);
width = 519;
},
{
anchors = (
{
name = top;
position = "{302, 700}";
}
);
layerId = "FFFA8D72-12AC-4CE0-B2CA-57A29829F4DA";
paths = (
{
closed = 1;
nodes = (
"197 0 LINE",
"304 488 LINE",
"411 0 LINE",
"599 0 LINE",
"409 700 LINE",
"199 700 LINE",
"9 0 LINE"
);
},
{
closed = 1;
nodes = (
"470 95 LINE",
"470 239 LINE",
"135 239 LINE",
"135 95 LINE"
);
}
);
width = 608;
},
{
anchors = (
{
name = top;
position = "{190, 700}";
}
);
layerId = "DCBE1F7B-116A-43E0-B7B4-8657BA77D8B5";
paths = (
{
closed = 1;
nodes = (
"43 0 LINE",
"190 662 LINE",
"338 0 LINE",
"360 0 LINE",
"201 700 LINE",
"178 700 LINE",
"21 0 LINE"
);
},
{
closed = 1;
nodes = (
"315 155 LINE",
"315 176 LINE",
"69 176 LINE",
"69 155 LINE"
);
}
);
width = 381;
}
);
leftKerningGroup = A;
rightKerningGroup = A;
unicode = 0041;
},
{
glyphname = AE;
lastChange = "2017-04-26 12:33:36 +0000";
layers = (
{
hints = (
{
origin = "{0, 10}";
target = "{0, 0}";
},
{
origin = "{0, 2}";
target = "{0, 5}";
},
{
origin = "{0, 9}";
target = "{0, 6}";
},
{
horizontal = 1;
place = "{155, 21}";
},
{
horizontal = 1;
place = "{340, 21}";
},
{
horizontal = 1;
origin = "{0, 3}";
target = "{0, 4}";
},
{
origin = "{0, 2}";
target = "{0, 5}";
},
{
horizontal = 1;
origin = "{0, 8}";
target = "{0, 7}";
}
);
layerId = "262880E7-CFE1-4BDA-902E-E24798F3240A";
paths = (
{
closed = 1;
nodes = (
"60 0 LINE",
"408 684 LINE",
"408 0 LINE",
"779 0 LINE",
"779 21 LINE",
"430 21 LINE",
"430 679 LINE",
"779 679 LINE",
"779 700 LINE",
"394 700 LINE",
"35 0 LINE"
);
},
{
closed = 1;
nodes = (
"421 155 LINE",
"421 176 LINE",
"140 176 LINE",
"135 155 LINE"
);
},
{
closed = 1;
nodes = (
"670 340 LINE",
"670 361 LINE",
"419 361 LINE",
"419 340 LINE"
);
}
);
width = 833;
},
{
layerId = "FFFA8D72-12AC-4CE0-B2CA-57A29829F4DA";
paths = (
{
closed = 1;
nodes = (
"227 0 LINE",
"423 488 LINE",
"423 0 LINE",
"893 0 LINE",
"893 161 LINE",
"611 161 LINE",
"611 539 LINE",
"893 539 LINE",
"893 700 LINE",
"333 700 LINE",
"9 0 LINE"
);
},
{
closed = 1;
nodes = (
"458 95 LINE",
"476 239 LINE",
"141 239 LINE",
"103 95 LINE"
);
},
{
closed = 1;
nodes = (
"779 275 LINE",
"779 435 LINE",
"499 435 LINE",
"499 275 LINE"
);
}
);
width = 911;
},
{
layerId = "DCBE1F7B-116A-43E0-B7B4-8657BA77D8B5";
paths = (
{
closed = 1;
nodes = (
"43 0 LINE",
"339 660 LINE",
"338 0 LINE",
"621 0 LINE",
"621 21 LINE",
"361 21 LINE",
"361 679 LINE",
"621 679 LINE",
"621 700 LINE",
"337 700 LINE",
"21 0 LINE"
);
},
{
closed = 1;
nodes = (
"350 155 LINE",
"355 176 LINE",
"109 176 LINE",
"104 155 LINE"
);
},
{
closed = 1;
nodes = (
"538 340 LINE",
"538 361 LINE",
"350 361 LINE",
"350 340 LINE"
);
}
);
width = 663;
},
{
layerId = "4E2227F3-52E4-4048-A8EE-327B486EF0A4";
paths = (
{
closed = 1;
nodes = (
"204 0 LINE",
"369 468 LINE",
"369 0 LINE",
"769 0 LINE",
"769 161 LINE",
"557 161 LINE",
"557 539 LINE",
"769 539 LINE",
"769 700 LINE",
"287 700 LINE",
"6 0 LINE"
);
},
{
closed = 1;
nodes = (
"456 95 LINE",
"456 239 LINE",
"186 239 LINE",
"186 95 LINE"
);
},
{
closed = 1;
nodes = (
"677 270 LINE",
"677 431 LINE",
"445 431 LINE",
"445 270 LINE"
);
}
);
width = 781;
}
);
leftMetricsKey = "=A";
rightMetricsKey = "=E";
unicode = 00C6;
},
{
glyphname = B;
lastChange = "2017-04-26 12:32:24 +0000";
layers = (
{
hints = (
{
horizontal = 1;
origin = "{2, 0}";
target = "{0, 8}";
},
{
horizontal = 1;
origin = "{1, 7}";
target = "{0, 0}";
},
{
origin = "{1, 7}";
target = "{0, 0}";
},
{
origin = "{0, 4}";
target = "{1, 3}";
},
{
origin = "{2, 4}";
target = "{3, 3}";
},
{
horizontal = 1;
origin = "{3, 0}";
target = "{2, 7}";
}
);
layerId = "262880E7-CFE1-4BDA-902E-E24798F3240A";
paths = (
{
closed = 1;
nodes = (
"139 679 LINE",
"319 679 LINE SMOOTH",
"419 679 OFFCURVE",
"485 617 OFFCURVE",
"485 523 CURVE SMOOTH",
"485 433 OFFCURVE",
"419 373 OFFCURVE",
"319 373 CURVE SMOOTH",
"139 373 LINE"
);
},
{
closed = 1;
nodes = (
"320 352 LINE SMOOTH",
"432 352 OFFCURVE",
"507 420 OFFCURVE",
"507 523 CURVE SMOOTH",
"507 629 OFFCURVE",
"432 700 OFFCURVE",
"319 700 CURVE SMOOTH",
"117 700 LINE",
"117 352 LINE"
);
},
{
closed = 1;
nodes = (
"139 352 LINE",
"319 352 LINE SMOOTH",
"423 352 OFFCURVE",
"492 286 OFFCURVE",
"492 186 CURVE SMOOTH",
"492 88 OFFCURVE",
"425 22 OFFCURVE",
"325 22 CURVE SMOOTH",
"139 22 LINE"
);
},
{
closed = 1;
nodes = (
"325 0 LINE SMOOTH",
"439 0 OFFCURVE",
"514 74 OFFCURVE",
"514 186 CURVE SMOOTH",
"514 298 OFFCURVE",
"437 373 OFFCURVE",
"320 373 CURVE SMOOTH",
"117 373 LINE",
"117 0 LINE"
);
}
);
width = 595;
},
{
layerId = "4E2227F3-52E4-4048-A8EE-327B486EF0A4";
paths = (
{
closed = 1;
nodes = (
"214 539 LINE",
"225 539 LINE",
"255 539 OFFCURVE",
"270 520 OFFCURVE",
"270 483 CURVE SMOOTH",
"270 447 OFFCURVE",
"255 427 OFFCURVE",
"225 427 CURVE",
"214 427 LINE"
);
},
{
closed = 1;
nodes = (
"191 319 LINE SMOOTH",
"366 319 OFFCURVE",
"454 369 OFFCURVE",
"454 503 CURVE SMOOTH",
"454 640 OFFCURVE",
"361 700 OFFCURVE",
"222 700 CURVE",
"26 700 LINE",
"26 319 LINE"
);
},
{
closed = 1;
nodes = (
"214 293 LINE",
"238 293 LINE SMOOTH",
"263 293 OFFCURVE",
"280 266 OFFCURVE",
"280 225 CURVE SMOOTH",
"280 182 OFFCURVE",
"262 161 OFFCURVE",
"237 161 CURVE SMOOTH",
"214 161 LINE"
);
},
{
closed = 1;
nodes = (
"252 0 LINE SMOOTH",
"371 0 OFFCURVE",
"470 65 OFFCURVE",
"468 201 CURVE SMOOTH",
"465 368 OFFCURVE",
"320 418 OFFCURVE",
"189 418 CURVE",
"26 418 LINE",
"26 0 LINE"
);
}
);
width = 486;
},
{
layerId = "FFFA8D72-12AC-4CE0-B2CA-57A29829F4DA";
paths = (
{
closed = 1;
nodes = (
"227 539 LINE",
"287 539 LINE",
"332 539 OFFCURVE",
"360 516 OFFCURVE",
"360 484 CURVE SMOOTH",
"360 451 OFFCURVE",
"330 429 OFFCURVE",
"287 429 CURVE",
"227 429 LINE"
);
},
{
closed = 1;
nodes = (
"241 323 LINE SMOOTH",
"426 321 OFFCURVE",
"544 360 OFFCURVE",
"544 502 CURVE SMOOTH",
"544 650 OFFCURVE",
"450 700 OFFCURVE",
"287 700 CURVE",
"39 700 LINE",
"39 325 LINE"
);
},
{
closed = 1;
nodes = (
"227 276 LINE",
"297 276 LINE SMOOTH",
"336 276 OFFCURVE",
"367 253 OFFCURVE",
"367 220 CURVE SMOOTH",
"367 189 OFFCURVE",
"340 161 OFFCURVE",
"296 161 CURVE SMOOTH",
"227 161 LINE"
);
},
{
closed = 1;
nodes = (
"296 0 LINE SMOOTH",
"438 0 OFFCURVE",
"555 55 OFFCURVE",
"555 200 CURVE SMOOTH",
"555 376 OFFCURVE",
"377 403 OFFCURVE",
"239 403 CURVE",
"39 401 LINE",
"39 0 LINE"
);
}
);
width = 582;
},
{
layerId = "DCBE1F7B-116A-43E0-B7B4-8657BA77D8B5";
paths = (
{
closed = 1;
nodes = (
"113 679 LINE",
"227 679 LINE SMOOTH",
"316 679 OFFCURVE",
"369 621 OFFCURVE",
"369 523 CURVE SMOOTH",
"369 429 OFFCURVE",
"316 373 OFFCURVE",
"227 373 CURVE SMOOTH",
"113 373 LINE"
);
},
{
closed = 1;
nodes = (
"226 352 LINE SMOOTH",
"330 352 OFFCURVE",
"391 415 OFFCURVE",
"391 523 CURVE SMOOTH",
"391 635 OFFCURVE",
"330 700 OFFCURVE",
"227 700 CURVE SMOOTH",
"91 700 LINE",
"91 352 LINE"
);
},
{
closed = 1;
nodes = (
"113 352 LINE",
"227 352 LINE SMOOTH",
"317 352 OFFCURVE",
"370 291 OFFCURVE",
"370 186 CURVE SMOOTH",
"370 83 OFFCURVE",
"317 22 OFFCURVE",
"227 22 CURVE SMOOTH",
"113 22 LINE"
);
},
{
closed = 1;
nodes = (
"228 0 LINE SMOOTH",
"331 0 OFFCURVE",
"392 69 OFFCURVE",
"392 186 CURVE SMOOTH",
"392 304 OFFCURVE",
"331 373 OFFCURVE",
"226 373 CURVE SMOOTH",
"91 373 LINE",
"91 0 LINE"
);
}
);
width = 455;
}
);
leftKerningGroup = H;
rightKerningGroup = B;
unicode = 0042;
},
{
glyphname = C;
lastChange = "2017-04-25 02:09:09 +0000";
layers = (
{
anchors = (
{
name = bottom;
position = "{272, -9}";
},
{
name = top;
position = "{288, 708}";
}
);
hints = (
{
origin = "{0, 27}";
target = "{0, 12}";
},
{
origin = "{0, 5}";
target = "{0, 2}";
},
{
horizontal = 1;
origin = "{0, 31}";
target = "{0, 8}";
},
{
horizontal = 1;
origin = "{0, 24}";
target = "{0, 15}";
}
);
layerId = "262880E7-CFE1-4BDA-902E-E24798F3240A";
paths = (
{
closed = 1;
nodes = (
"406 -9 OFFCURVE",
"485 66 OFFCURVE",
"485 178 CURVE SMOOTH",
"485 187 LINE",
"463 188 LINE",
"463 176 LINE SMOOTH",
"463 78 OFFCURVE",
"393 12 OFFCURVE",
"288 12 CURVE SMOOTH",
"182 12 OFFCURVE",
"112 78 OFFCURVE",
"112 176 CURVE SMOOTH",
"112 524 LINE SMOOTH",
"112 622 OFFCURVE",
"182 687 OFFCURVE",
"288 687 CURVE SMOOTH",
"393 687 OFFCURVE",
"463 622 OFFCURVE",
"463 524 CURVE SMOOTH",
"463 511 LINE",
"485 512 LINE",
"485 523 LINE SMOOTH",
"485 634 OFFCURVE",
"406 708 OFFCURVE",
"288 708 CURVE SMOOTH",
"169 708 OFFCURVE",
"90 634 OFFCURVE",
"90 523 CURVE SMOOTH",
"90 178 LINE SMOOTH",
"90 66 OFFCURVE",
"169 -9 OFFCURVE",
"288 -9 CURVE SMOOTH"
);
}
);
width = 566;
},
{
anchors = (
{
name = bottom;
position = "{239, -8}";
},
{
name = top;
position = "{239, 708}";
}
);
layerId = "4E2227F3-52E4-4048-A8EE-327B486EF0A4";
paths = (
{
closed = 1;
nodes = (
"370 -8 OFFCURVE",
"458 75 OFFCURVE",
"458 205 CURVE SMOOTH",
"458 224 LINE",
"270 231 LINE",
"270 189 LINE SMOOTH",
"270 167 OFFCURVE",
"258 153 OFFCURVE",
"239 153 CURVE SMOOTH",
"220 153 OFFCURVE",
"208 167 OFFCURVE",
"208 189 CURVE SMOOTH",
"208 510 LINE SMOOTH",
"208 532 OFFCURVE",
"220 547 OFFCURVE",
"239 547 CURVE SMOOTH",
"258 547 OFFCURVE",
"270 532 OFFCURVE",
"270 510 CURVE SMOOTH",
"270 470 LINE",
"458 477 LINE",
"458 497 LINE SMOOTH",
"458 627 OFFCURVE",
"370 708 OFFCURVE",
"239 708 CURVE SMOOTH",
"107 708 OFFCURVE",
"20 627 OFFCURVE",
"20 497 CURVE SMOOTH",
"20 205 LINE SMOOTH",
"20 75 OFFCURVE",
"107 -8 OFFCURVE",
"239 -8 CURVE SMOOTH"
);
}
);
width = 476;
},
{
anchors = (
{
name = bottom;
position = "{286, -8}";
},
{
name = top;
position = "{286, 708}";
}
);
layerId = "FFFA8D72-12AC-4CE0-B2CA-57A29829F4DA";
paths = (
{
closed = 1;
nodes = (
"440 -8 OFFCURVE",
"542 79 OFFCURVE",
"542 215 CURVE SMOOTH",
"542 224 LINE",
"354 234 LINE",
"354 222 LINE SMOOTH",
"354 181 OFFCURVE",
"327 153 OFFCURVE",
"286 153 CURVE SMOOTH",
"245 153 OFFCURVE",
"218 181 OFFCURVE",
"218 222 CURVE SMOOTH",
"218 477 LINE SMOOTH",
"218 519 OFFCURVE",
"245 547 OFFCURVE",
"286 547 CURVE SMOOTH",
"327 547 OFFCURVE",
"354 519 OFFCURVE",
"354 477 CURVE SMOOTH",
"354 465 LINE",
"542 477 LINE",
"542 487 LINE SMOOTH",
"542 623 OFFCURVE",
"440 708 OFFCURVE",
"286 708 CURVE SMOOTH",
"132 708 OFFCURVE",
"30 617 OFFCURVE",
"30 472 CURVE SMOOTH",
"30 230 LINE SMOOTH",
"30 85 OFFCURVE",
"132 -8 OFFCURVE",
"286 -8 CURVE SMOOTH"
);
}
);
width = 569;
},
{
anchors = (
{
name = bottom;
position = "{219, -8}";
},
{
name = top;
position = "{219, 708}";
}
);
layerId = "DCBE1F7B-116A-43E0-B7B4-8657BA77D8B5";
paths = (
{
closed = 1;
nodes = (
"310 -8 OFFCURVE",
"370 54 OFFCURVE",
"370 148 CURVE SMOOTH",
"370 177 LINE",
"347 178 LINE",
"347 147 LINE SMOOTH",
"347 67 OFFCURVE",
"296 13 OFFCURVE",
"219 13 CURVE SMOOTH",
"143 13 OFFCURVE",
"92 67 OFFCURVE",
"92 147 CURVE SMOOTH",
"92 554 LINE SMOOTH",
"92 634 OFFCURVE",
"143 687 OFFCURVE",
"219 687 CURVE SMOOTH",
"296 687 OFFCURVE",
"347 634 OFFCURVE",
"347 554 CURVE SMOOTH",
"347 521 LINE",
"370 522 LINE",
"370 553 LINE SMOOTH",
"370 647 OFFCURVE",
"310 708 OFFCURVE",
"219 708 CURVE SMOOTH",
"130 708 OFFCURVE",
"70 647 OFFCURVE",
"70 553 CURVE SMOOTH",
"70 148 LINE SMOOTH",
"70 54 OFFCURVE",
"130 -8 OFFCURVE",
"219 -8 CURVE SMOOTH"
);
}
);
width = 433;
}
);
leftKerningGroup = O;
rightKerningGroup = O;
unicode = 0043;
},
{
glyphname = D;
lastChange = "2017-04-25 01:53:17 +0000";
layers = (
{
hints = (
{
horizontal = 1;
origin = "{0, 7}";
target = "{1, 1}";
},
{
origin = "{0, 8}";
target = "{1, 0}";
},
{
horizontal = 1;
origin = "{0, 9}";
target = "{1, 9}";
},
{
origin = "{1, 5}";
target = "{0, 3}";
}
);
layerId = "262880E7-CFE1-4BDA-902E-E24798F3240A";
paths = (
{
closed = 1;
nodes = (
"307 0 LINE SMOOTH",
"426 0 OFFCURVE",
"499 68 OFFCURVE",
"499 180 CURVE SMOOTH",
"499 520 LINE SMOOTH",
"499 632 OFFCURVE",
"426 700 OFFCURVE",
"307 700 CURVE SMOOTH",
"117 700 LINE",
"117 0 LINE"
);
},
{
closed = 1;
nodes = (
"139 679 LINE",
"309 679 LINE SMOOTH",
"413 679 OFFCURVE",
"477 619 OFFCURVE",
"477 520 CURVE SMOOTH",
"477 179 LINE SMOOTH",
"477 81 OFFCURVE",
"413 21 OFFCURVE",
"309 21 CURVE SMOOTH",
"139 21 LINE"
);
}
);
width = 598;
},
{
layerId = "4E2227F3-52E4-4048-A8EE-327B486EF0A4";
paths = (
{
closed = 1;
nodes = (
"238 0 LINE SMOOTH",
"372 0 OFFCURVE",
"461 80 OFFCURVE",
"461 200 CURVE SMOOTH",
"461 500 LINE SMOOTH",
"461 620 OFFCURVE",
"372 700 OFFCURVE",
"238 700 CURVE SMOOTH",
"26 700 LINE",
"26 0 LINE"
);
},
{
closed = 1;
nodes = (
"214 539 LINE",
"233 539 LINE SMOOTH",
"257 539 OFFCURVE",
"273 519 OFFCURVE",
"273 488 CURVE",
"273 213 LINE",
"271 183 OFFCURVE",
"255 163 OFFCURVE",
"234 162 CURVE SMOOTH",
"214 161 LINE"
);
}
);
width = 483;
},
{
layerId = "FFFA8D72-12AC-4CE0-B2CA-57A29829F4DA";
paths = (
{
closed = 1;
nodes = (
"281 0 LINE SMOOTH",
"450 0 OFFCURVE",
"545 74 OFFCURVE",
"545 205 CURVE SMOOTH",
"545 495 LINE SMOOTH",
"545 626 OFFCURVE",
"450 700 OFFCURVE",
"281 700 CURVE SMOOTH",
"39 700 LINE",
"39 0 LINE"
);
},
{
closed = 1;
nodes = (
"227 539 LINE",
"287 539 LINE SMOOTH",
"332 539 OFFCURVE",
"357 512 OFFCURVE",
"357 463 CURVE",
"357 237 LINE",
"355 189 OFFCURVE",
"330 161 OFFCURVE",
"288 161 CURVE SMOOTH",
"227 161 LINE"
);
}
);
width = 578;
},
{
layerId = "DCBE1F7B-116A-43E0-B7B4-8657BA77D8B5";
paths = (
{
closed = 1;
nodes = (
"235 0 LINE SMOOTH",
"325 0 OFFCURVE",
"381 68 OFFCURVE",
"381 180 CURVE SMOOTH",
"381 520 LINE SMOOTH",
"381 632 OFFCURVE",
"325 700 OFFCURVE",
"235 700 CURVE SMOOTH",
"91 700 LINE",
"91 0 LINE"
);
},
{
closed = 1;
nodes = (
"113 679 LINE",
"236 679 LINE SMOOTH",
"312 679 OFFCURVE",
"358 619 OFFCURVE",
"358 520 CURVE SMOOTH",
"358 179 LINE SMOOTH",
"358 81 OFFCURVE",
"311 21 OFFCURVE",
"236 21 CURVE SMOOTH",
"113 21 LINE"
);
}
);
width = 458;
}
);
leftKerningGroup = H;
rightKerningGroup = B;
unicode = 0044;
},
{
glyphname = Eth;
lastChange = "2017-04-24 09:09:20 +0000";
layers = (
{
components = (
{
name = D;
transform = "{1, 0, 0, 1, 95, 0}";
}
);
layerId = "262880E7-CFE1-4BDA-902E-E24798F3240A";
paths = (
{
closed = 1;
nodes = (
"117 356 LINE",
"402 356 LINE",
"402 377 LINE",
"117 377 LINE"
);
}
);
width = 693;
},
{
components = (
{
name = D;
transform = "{1, 0, 0, 1, 51, 0}";
}
);
layerId = "FFFA8D72-12AC-4CE0-B2CA-57A29829F4DA";
paths = (
{
closed = 1;
nodes = (
"39 296 LINE",
"334 296 LINE",
"334 421 LINE",
"39 421 LINE"
);
}
);
width = 629;
},
{
components = (
{
name = D;
transform = "{1, 0, 0, 1, 62, 0}";
}
);
layerId = "DCBE1F7B-116A-43E0-B7B4-8657BA77D8B5";
paths = (
{
closed = 1;
nodes = (
"91 355 LINE",
"299 355 LINE",
"299 376 LINE",
"91 376 LINE"
);
}
);
width = 520;
},
{
components = (
{
name = D;
transform = "{1, 0, 0, 1, 34, 0}";
}
);
layerId = "4E2227F3-52E4-4048-A8EE-327B486EF0A4";
paths = (
{
closed = 1;
nodes = (
"26 314 LINE",
"279 314 LINE",
"279 419 LINE",
"26 419 LINE"
);
}
);
width = 517;
}
);
leftMetricsKey = "=D";
rightMetricsKey = "=D";
unicode = 00D0;
},
{
glyphname = E;
lastChange = "2017-04-25 01:54:20 +0000";
layers = (
{
anchors = (
{
name = top;
position = "{302, 710}";
}
);
hints = (
{
horizontal = 1;
origin = "{1, 0}";
target = "{1, 1}";
},
{
horizontal = 1;
origin = "{0, 0}";
target = "{0, 1}";
},
{
origin = "{0, 7}";
target = "{0, 2}";
},
{
horizontal = 1;
origin = "{0, 5}";
target = "{0, 4}";
}
);
layerId = "262880E7-CFE1-4BDA-902E-E24798F3240A";
paths = (
{
closed = 1;
nodes = (
"488 0 LINE",
"488 21 LINE",
"139 21 LINE",
"139 679 LINE",
"488 679 LINE",
"488 700 LINE",
"117 700 LINE",
"117 0 LINE"
);
},
{
closed = 1;
nodes = (
"379 340 LINE",
"379 361 LINE",
"128 361 LINE",
"128 340 LINE"
);
}
);
width = 542;
},
{
anchors = (
{
name = top;
position = "{226, 713}";
}
);
layerId = "4E2227F3-52E4-4048-A8EE-327B486EF0A4";
paths = (
{
closed = 1;
nodes = (
"426 0 LINE",
"426 161 LINE",
"214 161 LINE",
"214 539 LINE",
"426 539 LINE",
"426 700 LINE",
"26 700 LINE",
"26 0 LINE"
);
},
{
closed = 1;
nodes = (
"334 270 LINE",
"334 431 LINE",
"102 431 LINE",
"102 270 LINE"
);
}
);
width = 438;
},
{
anchors = (
{
name = top;
position = "{276, 713}";
}
);
layerId = "FFFA8D72-12AC-4CE0-B2CA-57A29829F4DA";
paths = (
{
closed = 1;
nodes = (
"509 0 LINE",
"509 161 LINE",
"227 161 LINE",
"227 539 LINE",
"509 539 LINE",
"509 700 LINE",
"39 700 LINE",
"39 0 LINE"
);
},
{
closed = 1;
nodes = (
"395 275 LINE",
"395 435 LINE",
"115 435 LINE",
"115 275 LINE"
);
}
);
width = 527;
},
{
anchors = (
{
name = top;
position = "{232, 710}";
}
);
layerId = "DCBE1F7B-116A-43E0-B7B4-8657BA77D8B5";
paths = (
{
closed = 1;
nodes = (
"373 0 LINE",
"373 21 LINE",
"113 21 LINE",
"113 679 LINE",
"373 679 LINE",
"373 700 LINE",
"91 700 LINE",
"91 0 LINE"
);
},
{
closed = 1;
nodes = (
"290 340 LINE",
"290 361 LINE",
"102 361 LINE",
"102 340 LINE"
);
}
);
width = 415;
}
);
leftKerningGroup = H;
unicode = 0045;
},
{
glyphname = F;
lastChange = "2017-04-25 12:41:18 +0000";
layers = (
{
hints = (
{
horizontal = 1;
origin = "{0, 3}";
target = "{0, 2}";
},
{
horizontal = 1;
origin = "{1, 0}";
target = "{1, 1}";
},
{
origin = "{0, 5}";
target = "{0, 0}";
}
);
layerId = "262880E7-CFE1-4BDA-902E-E24798F3240A";
paths = (
{
closed = 1;
nodes = (
"139 0 LINE",
"139 679 LINE",
"487 679 LINE",
"487 700 LINE",
"117 700 LINE",
"117 0 LINE"
);
},
{
closed = 1;
nodes = (
"378 340 LINE",
"378 361 LINE",
"128 361 LINE",
"128 340 LINE"
);
}
);
width = 514;
},
{
layerId = "4E2227F3-52E4-4048-A8EE-327B486EF0A4";
paths = (
{
closed = 1;
nodes = (
"214 0 LINE",
"214 539 LINE",
"426 539 LINE",
"426 700 LINE",
"26 700 LINE",
"26 0 LINE"
);
},
{
closed = 1;
nodes = (
"334 270 LINE",
"334 431 LINE",
"102 431 LINE",
"102 270 LINE"
);
}
);
width = 432;
},
{
layerId = "FFFA8D72-12AC-4CE0-B2CA-57A29829F4DA";
paths = (
{
closed = 1;
nodes = (
"227 0 LINE",
"227 539 LINE",
"508 539 LINE",
"508 700 LINE",
"39 700 LINE",
"39 0 LINE"
);
},
{
closed = 1;
nodes = (
"395 275 LINE",
"395 435 LINE",
"115 435 LINE",
"115 275 LINE"
);
}
);
width = 517;
},
{
layerId = "DCBE1F7B-116A-43E0-B7B4-8657BA77D8B5";
paths = (
{
closed = 1;
nodes = (
"113 0 LINE",
"113 679 LINE",
"371 679 LINE",
"371 700 LINE",
"91 700 LINE",
"91 0 LINE"
);
},
{
closed = 1;
nodes = (
"289 340 LINE",
"289 361 LINE",
"102 361 LINE",
"102 340 LINE"
);
}
);
width = 392;
}
);
leftKerningGroup = H;
rightKerningGroup = F;
unicode = 0046;
},
{
glyphname = G;
lastChange = "2017-04-25 02:04:36 +0000";
layers = (
{
hints = (
{
origin = "{0, 29}";
target = "{0, 14}";
},
{
horizontal = 1;
origin = "{0, 26}";
target = "{0, 17}";
},
{
origin = "{0, 21}";
target = "{0, 22}";
},
{
horizontal = 1;
origin = "{0, 5}";
target = "{0, 4}";
},
{
horizontal = 1;
origin = "{0, 33}";
target = "{0, 10}";
}
);
layerId = "262880E7-CFE1-4BDA-902E-E24798F3240A";
paths = (
{
closed = 1;
nodes = (
"406 -8 OFFCURVE",
"484 64 OFFCURVE",
"484 174 CURVE SMOOTH",
"484 337 LINE",
"297 337 LINE",
"297 316 LINE",
"462 316 LINE",
"462 173 LINE SMOOTH",
"462 77 OFFCURVE",
"393 13 OFFCURVE",
"288 13 CURVE SMOOTH",
"182 13 OFFCURVE",
"112 77 OFFCURVE",
"112 173 CURVE SMOOTH",
"112 527 LINE SMOOTH",
"112 623 OFFCURVE",
"182 687 OFFCURVE",
"288 687 CURVE SMOOTH",
"393 687 OFFCURVE",
"462 623 OFFCURVE",
"462 527 CURVE SMOOTH",
"462 500 LINE",
"484 500 LINE",
"484 526 LINE SMOOTH",
"484 636 OFFCURVE",
"406 708 OFFCURVE",
"288 708 CURVE SMOOTH",
"169 708 OFFCURVE",
"90 636 OFFCURVE",
"90 526 CURVE SMOOTH",
"90 174 LINE SMOOTH",
"90 64 OFFCURVE",
"169 -8 OFFCURVE",
"288 -8 CURVE SMOOTH"
);
}
);
width = 565;
},
{
layerId = "4E2227F3-52E4-4048-A8EE-327B486EF0A4";
paths = (
{
closed = 1;
nodes = (
"370 -8 OFFCURVE",
"458 72 OFFCURVE",
"458 196 CURVE SMOOTH",
"458 395 LINE",
"241 395 LINE",
"241 250 LINE",
"270 250 LINE",
"270 195 LINE SMOOTH",
"270 170 OFFCURVE",
"258 153 OFFCURVE",
"239 153 CURVE SMOOTH",
"220 153 OFFCURVE",
"208 170 OFFCURVE",
"208 195 CURVE SMOOTH",
"208 505 LINE SMOOTH",
"208 530 OFFCURVE",
"220 547 OFFCURVE",
"239 547 CURVE SMOOTH",
"258 547 OFFCURVE",
"270 530 OFFCURVE",
"270 505 CURVE SMOOTH",
"270 455 LINE",
"458 455 LINE",
"458 503 LINE SMOOTH",
"458 628 OFFCURVE",
"370 708 OFFCURVE",
"239 708 CURVE SMOOTH",
"107 708 OFFCURVE",
"20 629 OFFCURVE",
"20 505 CURVE SMOOTH",
"20 196 LINE SMOOTH",
"20 72 OFFCURVE",
"107 -8 OFFCURVE",
"239 -8 CURVE SMOOTH"
);
}
);
width = 476;
},
{
layerId = "FFFA8D72-12AC-4CE0-B2CA-57A29829F4DA";
paths = (
{
closed = 1;
nodes = (
"439 -8 OFFCURVE",
"541 88 OFFCURVE",
"541 236 CURVE SMOOTH",
"541 391 LINE",
"290 391 LINE",
"290 246 LINE",
"354 246 LINE",
"354 230 LINE SMOOTH",
"354 184 OFFCURVE",
"327 153 OFFCURVE",
"286 153 CURVE SMOOTH",
"245 153 OFFCURVE",
"218 184 OFFCURVE",
"218 230 CURVE SMOOTH",
"218 470 LINE SMOOTH",
"218 516 OFFCURVE",
"245 547 OFFCURVE",
"286 547 CURVE SMOOTH",
"327 547 OFFCURVE",
"354 516 OFFCURVE",
"354 470 CURVE SMOOTH",
"354 447 LINE",
"541 447 LINE",
"541 463 LINE SMOOTH",
"541 612 OFFCURVE",
"439 708 OFFCURVE",
"286 708 CURVE SMOOTH",
"132 708 OFFCURVE",
"30 613 OFFCURVE",
"30 465 CURVE SMOOTH",
"30 236 LINE SMOOTH",
"30 88 OFFCURVE",
"132 -8 OFFCURVE",
"286 -8 CURVE SMOOTH"
);
}
);
width = 568;
},
{
layerId = "DCBE1F7B-116A-43E0-B7B4-8657BA77D8B5";
paths = (
{
closed = 1;
nodes = (
"309 -8 OFFCURVE",
"369 52 OFFCURVE",
"369 144 CURVE SMOOTH",
"369 332 LINE",
"226 332 LINE",
"226 311 LINE",
"347 311 LINE",
"347 143 LINE SMOOTH",
"347 65 OFFCURVE",
"296 13 OFFCURVE",
"219 13 CURVE SMOOTH",
"143 13 OFFCURVE",
"92 65 OFFCURVE",
"92 143 CURVE SMOOTH",
"92 557 LINE SMOOTH",
"92 635 OFFCURVE",
"143 687 OFFCURVE",
"219 687 CURVE SMOOTH",
"296 687 OFFCURVE",
"347 635 OFFCURVE",
"347 557 CURVE SMOOTH",
"347 500 LINE",
"369 500 LINE",
"369 556 LINE SMOOTH",
"369 648 OFFCURVE",
"309 708 OFFCURVE",
"219 708 CURVE SMOOTH",
"130 708 OFFCURVE",
"70 648 OFFCURVE",
"70 556 CURVE SMOOTH",
"70 144 LINE SMOOTH",
"70 52 OFFCURVE",
"130 -8 OFFCURVE",
"219 -8 CURVE SMOOTH"
);
}
);
width = 432;
}
);
leftKerningGroup = O;
rightKerningGroup = O;
unicode = 0047;
},
{
glyphname = H;
lastChange = "2017-04-25 01:44:00 +0000";
layers = (
{
hints = (
{
origin = "{1, 2}";
target = "{1, 1}";
},
{
origin = "{0, 2}";
target = "{0, 1}";
},
{
horizontal = 1;
origin = "{2, 0}";
target = "{2, 1}";
}
);
layerId = "262880E7-CFE1-4BDA-902E-E24798F3240A";
paths = (
{
closed = 1;
nodes = (
"489 0 LINE",
"489 700 LINE",
"467 700 LINE",
"467 0 LINE"
);
},
{
closed = 1;
nodes = (
"139 0 LINE",
"139 700 LINE",
"117 700 LINE",
"117 0 LINE"
);
},
{
closed = 1;
nodes = (
"472 340 LINE",
"472 361 LINE",
"134 361 LINE",
"134 340 LINE"
);
}
);
width = 606;
},
{
layerId = "4E2227F3-52E4-4048-A8EE-327B486EF0A4";
paths = (
{
closed = 1;
nodes = (
"459 0 LINE",
"459 700 LINE",
"271 700 LINE",
"271 0 LINE"
);
},
{
closed = 1;
nodes = (
"214 0 LINE",
"214 700 LINE",
"26 700 LINE",
"26 0 LINE"
);
},
{
closed = 1;
nodes = (
"361 270 LINE",
"361 431 LINE",
"126 431 LINE",
"126 270 LINE"
);
}
);
width = 485;
},
{
layerId = "FFFA8D72-12AC-4CE0-B2CA-57A29829F4DA";
paths = (
{
closed = 1;
nodes = (
"541 0 LINE",
"541 700 LINE",
"353 700 LINE",
"353 0 LINE"
);
},
{
closed = 1;
nodes = (
"227 0 LINE",
"227 700 LINE",
"39 700 LINE",
"39 0 LINE"
);
},
{
closed = 1;
nodes = (
"442 274 LINE",
"442 435 LINE",
"140 435 LINE",
"140 274 LINE"
);
}
);
width = 580;
},
{
layerId = "DCBE1F7B-116A-43E0-B7B4-8657BA77D8B5";
paths = (
{
closed = 1;
nodes = (
"374 0 LINE",
"374 700 LINE",
"352 700 LINE",
"352 0 LINE"
);
},
{
closed = 1;
nodes = (
"113 0 LINE",
"113 700 LINE",
"91 700 LINE",
"91 0 LINE"
);
},
{
closed = 1;
nodes = (
"359 340 LINE",
"359 361 LINE",
"107 361 LINE",
"107 340 LINE"
);
}
);
width = 465;
}
);
unicode = 0048;
},
{
glyphname = I;
lastChange = "2017-04-25 01:19:28 +0000";
layers = (
{
anchors = (
{
name = top;
position = "{128, 710}";
}
);
hints = (
{
origin = "{0, 2}";
target = "{0, 1}";
}
);
layerId = "262880E7-CFE1-4BDA-902E-E24798F3240A";
paths = (
{
closed = 1;
nodes = (
"139 0 LINE",
"139 700 LINE",
"117 700 LINE",
"117 0 LINE"
);
}
);
width = 256;
},
{
anchors = (
{
name = top;
position = "{120, 713}";
}
);
layerId = "4E2227F3-52E4-4048-A8EE-327B486EF0A4";
paths = (
{
closed = 1;
nodes = (
"214 0 LINE",
"214 700 LINE",
"26 700 LINE",
"26 0 LINE"
);
}
);
width = 240;
},
{
anchors = (
{
name = top;
position = "{133, 713}";
}
);
layerId = "FFFA8D72-12AC-4CE0-B2CA-57A29829F4DA";
paths = (
{
closed = 1;
nodes = (
"227 0 LINE",
"227 700 LINE",
"39 700 LINE",
"39 0 LINE"
);
}
);
width = 266;
},
{
anchors = (
{
name = top;
position = "{102, 710}";
}
);
layerId = "DCBE1F7B-116A-43E0-B7B4-8657BA77D8B5";
paths = (
{
closed = 1;
nodes = (
"113 0 LINE",
"113 700 LINE",
"91 700 LINE",
"91 0 LINE"
);
}
);
width = 204;
}
);
unicode = 0049;
},
{
glyphname = J;
lastChange = "2017-04-25 02:01:10 +0000";
layers = (
{
hints = (
{
origin = "{0, 5}";
target = "{0, 2}";
},
{
horizontal = 1;
origin = "{0, 17}";
target = "{0, 8}";
},
{
origin = "{0, 13}";
target = "{0, 12}";
}
);
layerId = "262880E7-CFE1-4BDA-902E-E24798F3240A";
paths = (
{
closed = 1;
nodes = (
"340 -8 OFFCURVE",
"416 62 OFFCURVE",
"416 168 CURVE SMOOTH",
"416 700 LINE",
"394 700 LINE",
"394 167 LINE SMOOTH",
"394 75 OFFCURVE",
"326 13 OFFCURVE",
"226 13 CURVE SMOOTH",
"125 13 OFFCURVE",
"58 75 OFFCURVE",
"58 167 CURVE SMOOTH",
"58 251 LINE",
"36 251 LINE",
"36 168 LINE SMOOTH",
"36 62 OFFCURVE",
"111 -8 OFFCURVE",
"226 -8 CURVE SMOOTH"
);
}
);
width = 533;
},
{
layerId = "4E2227F3-52E4-4048-A8EE-327B486EF0A4";
paths = (
{
closed = 1;
nodes = (
"356 -8 OFFCURVE",
"444 72 OFFCURVE",
"444 192 CURVE SMOOTH",
"444 700 LINE",
"256 700 LINE",
"256 190 LINE SMOOTH",
"256 168 OFFCURVE",
"243 153 OFFCURVE",
"225 153 CURVE SMOOTH",
"208 153 OFFCURVE",
"196 168 OFFCURVE",
"196 190 CURVE SMOOTH",
"196 265 LINE",
"8 265 LINE",
"8 192 LINE SMOOTH",
"8 72 OFFCURVE",
"95 -8 OFFCURVE",
"225 -8 CURVE SMOOTH"
);
}
);
width = 470;
},
{
layerId = "FFFA8D72-12AC-4CE0-B2CA-57A29829F4DA";
paths = (
{
closed = 1;
nodes = (
"416 -8 OFFCURVE",
"518 80 OFFCURVE",
"518 212 CURVE SMOOTH",
"518 700 LINE",
"331 700 LINE",
"331 213 LINE SMOOTH",
"331 177 OFFCURVE",
"304 153 OFFCURVE",
"264 153 CURVE SMOOTH",
"226 153 OFFCURVE",
"200 177 OFFCURVE",
"200 213 CURVE SMOOTH",
"200 280 LINE",
"12 280 LINE",
"12 212 LINE SMOOTH",
"12 80 OFFCURVE",
"113 -8 OFFCURVE",
"264 -8 CURVE SMOOTH"
);
}
);
width = 557;
},
{
layerId = "DCBE1F7B-116A-43E0-B7B4-8657BA77D8B5";
paths = (
{
closed = 1;
nodes = (
"258 -8 OFFCURVE",
"316 54 OFFCURVE",
"316 148 CURVE SMOOTH",
"316 700 LINE",
"294 700 LINE",
"294 147 LINE SMOOTH",
"294 67 OFFCURVE",
"245 13 OFFCURVE",
"172 13 CURVE SMOOTH",
"99 13 OFFCURVE",
"50 67 OFFCURVE",
"50 147 CURVE SMOOTH",
"50 251 LINE",
"28 251 LINE",
"28 148 LINE SMOOTH",
"28 54 OFFCURVE",
"86 -8 OFFCURVE",
"172 -8 CURVE SMOOTH"
);
}
);
width = 407;
}
);
leftKerningGroup = J;
rightKerningGroup = U;
unicode = 004A;
},
{
glyphname = K;
lastChange = "2017-04-25 12:20:17 +0000";
layers = (
{
hints = (
{
origin = "{0, 7}";
target = "{0, 6}";
},
{
origin = "{0, 3}";
target = "{0, 4}";
},
{
origin = "{0, 11}";
target = "{0, 0}";
}
);
layerId = "262880E7-CFE1-4BDA-902E-E24798F3240A";
paths = (
{
closed = 1;
nodes = (
"139 0 LINE",
"139 275 LINE",
"261 408 LINE",
"515 0 LINE",
"543 0 LINE",
"276 427 LINE",
"519 700 LINE",
"491 700 LINE",
"139 306 LINE",
"139 700 LINE",
"117 700 LINE",
"117 0 LINE"
);
}
);
width = 570;
},
{
layerId = "4E2227F3-52E4-4048-A8EE-327B486EF0A4";
paths = (
{
closed = 1;
nodes = (
"214 0 LINE",
"214 183 LINE",
"237 244 LINE",
"313 0 LINE",
"511 0 LINE",
"368 402 LINE",
"508 700 LINE",
"310 700 LINE",
"214 464 LINE",
"214 700 LINE",
"26 700 LINE",
"26 0 LINE"
);
}
);
width = 517;
},
{
layerId = "FFFA8D72-12AC-4CE0-B2CA-57A29829F4DA";
paths = (
{
closed = 1;
nodes = (
"227 0 LINE",
"227 191 LINE",
"275 264 LINE",
"400 0 LINE",
"601 0 LINE",
"406 392 LINE",
"595 700 LINE",
"396 700 LINE",
"227 444 LINE",
"227 700 LINE",
"39 700 LINE",
"39 0 LINE"
);
}
);
width = 610;
},
{
layerId = "DCBE1F7B-116A-43E0-B7B4-8657BA77D8B5";
paths = (
{
closed = 1;
nodes = (
"113 0 LINE",
"113 274 LINE",
"201 406 LINE",
"377 0 LINE",
"404 0 LINE",
"217 427 LINE",
"387 700 LINE",
"359 700 LINE",
"113 308 LINE",
"113 700 LINE",
"91 700 LINE",
"91 0 LINE"
);
}
);
width = 425;
}
);
rightKerningGroup = K;
unicode = 004B;
},
{
glyphname = L;
lastChange = "2017-04-25 12:16:12 +0000";
layers = (
{
hints = (
{
horizontal = 1;
origin = "{0, 0}";
target = "{0, 1}";
},
{
origin = "{0, 4}";
target = "{0, 3}";
}
);
layerId = "262880E7-CFE1-4BDA-902E-E24798F3240A";
paths = (
{
closed = 1;
nodes = (
"482 0 LINE",
"482 21 LINE",
"139 21 LINE",
"139 700 LINE",
"117 700 LINE",
"117 0 LINE"
);
}
);
width = 502;
},
{
layerId = "4E2227F3-52E4-4048-A8EE-327B486EF0A4";
paths = (
{
closed = 1;
nodes = (
"435 0 LINE",
"435 161 LINE",
"214 161 LINE",
"214 700 LINE",
"26 700 LINE",
"26 0 LINE"
);
}
);
width = 437;
},
{
layerId = "FFFA8D72-12AC-4CE0-B2CA-57A29829F4DA";
paths = (
{
closed = 1;
nodes = (
"516 0 LINE",
"516 161 LINE",
"227 161 LINE",
"227 700 LINE",
"39 700 LINE",
"39 0 LINE"
);
}
);
width = 519;
},
{
layerId = "DCBE1F7B-116A-43E0-B7B4-8657BA77D8B5";
paths = (
{
closed = 1;
nodes = (
"368 0 LINE",
"368 21 LINE",
"113 21 LINE",
"113 700 LINE",
"91 700 LINE",
"91 0 LINE"
);
}
);
width = 375;
}
);
rightKerningGroup = L;
unicode = 004C;
},
{
color = 3;
glyphname = M;
lastChange = "2017-04-25 02:48:53 +0000";
layers = (
{
hints = (
{
origin = "{0, 2}";
target = "{0, 3}";
},
{
origin = "{0, 11}";
target = "{0, 10}";
},
{
origin = "{0, 8}";
target = "{0, 7}";
}
);
layerId = "262880E7-CFE1-4BDA-902E-E24798F3240A";
paths = (
{
closed = 1;
nodes = (
"139 0 LINE",
"139 654 LINE",
"320 329 LINE",
"338 329 LINE",
"517 654 LINE",
"517 0 LINE",
"539 0 LINE",
"539 700 LINE",
"517 700 LINE",
"327 358 LINE",
"139 700 LINE",
"117 700 LINE",
"117 0 LINE"
);
}
);
width = 656;
},
{
layerId = "4E2227F3-52E4-4048-A8EE-327B486EF0A4";
paths = (
{
closed = 1;
nodes = (
"214 0 LINE",
"214 439 LINE",
"273 310 LINE",
"274 310 LINE",
"334 436 LINE",
"334 0 LINE",
"522 0 LINE",
"522 700 LINE",
"339 700 LINE",
"274 560 LINE",
"209 700 LINE",
"26 700 LINE",
"26 0 LINE"
);
}
);
width = 548;
},
{
associatedMasterId = "4E2227F3-52E4-4048-A8EE-327B486EF0A4";
layerId = "C618EEF0-F381-433B-B25F-2EDAE517ED4C";
name = "{100,3}";
paths = (
{
closed = 1;
nodes = (
"161 0 LINE",
"161 490 LINE",
"258 280 LINE",
"267 280 LINE",
"364 488 LINE",
"364 0 LINE",
"463 0 LINE",
"463 700 LINE",
"366 700 LINE",
"262 452 LINE",
"158 700 LINE",
"61 700 LINE",
"61 0 LINE"
);
}
);
width = 523;
},
{
layerId = "FFFA8D72-12AC-4CE0-B2CA-57A29829F4DA";
paths = (
{
closed = 1;
nodes = (
"227 0 LINE",
"227 410 LINE",
"297 288 LINE",
"377 288 LINE",
"447 410 LINE",
"447 0 LINE",
"635 0 LINE",
"635 700 LINE",
"452 700 LINE",
"337 512 LINE",
"222 700 LINE",
"39 700 LINE",
"39 0 LINE"
);
}
);
width = 674;
},
{
layerId = "DCBE1F7B-116A-43E0-B7B4-8657BA77D8B5";
paths = (
{
closed = 1;
nodes = (
"113 0 LINE",
"113 651 LINE",
"243 330 LINE",
"261 330 LINE",
"389 651 LINE",
"389 0 LINE",
"411 0 LINE",
"411 700 LINE",
"389 700 LINE",
"250 358 LINE",
"113 700 LINE",
"91 700 LINE",
"91 0 LINE"
);
}
);
width = 502;
},
{
associatedMasterId = "4E2227F3-52E4-4048-A8EE-327B486EF0A4";
hints = (
{
origin = "{0, 2}";
target = "{0, 3}";
},
{
origin = "{0, 11}";
target = "{0, 10}";
},
{
origin = "{0, 8}";
target = "{0, 7}";
}
);
layerId = "B75973C7-2F91-404C-BACF-1A0B6CD40DCC";
name = "{100,5}";
paths = (
{
closed = 1;
nodes = (
"180 0 LINE",
"180 522 LINE",
"309 292 LINE",
"356 292 LINE",
"484 522 LINE",
"484 0 LINE",
"584 0 LINE",
"584 700 LINE",
"487 700 LINE",
"332 430 LINE",
"178 700 LINE",
"81 700 LINE",
"81 0 LINE"
);
}
);
width = 664;
},
{
associatedMasterId = "4E2227F3-52E4-4048-A8EE-327B486EF0A4";
hints = (
{
origin = "{0, 2}";
target = "{0, 3}";
},
{
origin = "{0, 11}";
target = "{0, 10}";
},
{
origin = "{0, 8}";
target = "{0, 7}";
},
{
origin = "{0, 5}";
target = "{0, 6}";
},
{
origin = "{0, 12}";
target = "{0, 0}";
}
);
layerId = "2CAFF881-D152-4119-AE13-D526D04837FD";
name = "{140,4}";
paths = (
{
closed = 1;
nodes = (
"194 0 LINE",
"194 441 LINE",
"264 290 LINE",
"338 290 LINE",
"408 441 LINE",
"408 0 LINE",
"548 0 LINE",
"548 700 LINE",
"418 700 LINE",
"301 474 LINE",
"184 700 LINE",
"54 700 LINE",
"54 0 LINE"
);
}
);
width = 601;
},
{
associatedMasterId = "4E2227F3-52E4-4048-A8EE-327B486EF0A4";
hints = (
{
origin = "{0, 2}";
target = "{0, 3}";
},
{
origin = "{0, 11}";
target = "{0, 10}";
},
{
origin = "{0, 8}";
target = "{0, 7}";
}
);
layerId = "B0E824CF-0225-4ED0-ACE8-90DC4BF0AF6C";
name = "{100,4}";
paths = (
{
closed = 1;
nodes = (
"171 0 LINE",
"171 490 LINE",
"264 280 LINE",
"332 280 LINE",
"425 489 LINE",
"425 0 LINE",
"525 0 LINE",
"525 700 LINE",
"417 700 LINE",
"298 431 LINE",
"179 700 LINE",
"71 700 LINE",
"71 0 LINE"
);
}
);
width = 595;
}
);
unicode = 004D;
},
{
color = 3;
glyphname = N;
lastChange = "2017-04-25 02:48:53 +0000";
layers = (
{
anchors = (
{
name = top;
position = "{314, 710}";
}
);
hints = (
{
origin = "{0, 9}";
target = "{0, 0}";
},
{
origin = "{0, 2}";
target = "{0, 3}";
}
);
layerId = "262880E7-CFE1-4BDA-902E-E24798F3240A";
paths = (
{
closed = 1;
nodes = (
"139 0 LINE",
"139 651 LINE",
"485 0 LINE",
"507 0 LINE",
"507 700 LINE",
"485 700 LINE",
"485 49 LINE",
"139 700 LINE",
"117 700 LINE",
"117 0 LINE"
);
}
);
width = 624;
},
{
anchors = (
{
name = top;
position = "{262, 713}";
}
);
layerId = "4E2227F3-52E4-4048-A8EE-327B486EF0A4";
paths = (
{
closed = 1;
nodes = (
"212 0 LINE",
"210 346 LINE",
"296 0 LINE",
"502 0 LINE",
"502 700 LINE",
"316 700 LINE",
"317 356 LINE",
"230 700 LINE",
"26 700 LINE",
"26 0 LINE"
);
}
);
width = 528;
},
{
anchors = (
{
name = top;
position = "{296, 713}";
}
);
layerId = "FFFA8D72-12AC-4CE0-B2CA-57A29829F4DA";
paths = (
{
closed = 1;
nodes = (
"225 0 LINE",
"223 357 LINE",
"399 0 LINE",
"575 0 LINE",
"575 700 LINE",
"389 700 LINE",
"390 350 LINE",
"215 700 LINE",
"39 700 LINE",
"39 0 LINE"
);
}
);
width = 614;
},
{
anchors = (
{
name = top;
position = "{240, 710}";
}
);
layerId = "DCBE1F7B-116A-43E0-B7B4-8657BA77D8B5";
paths = (
{
closed = 1;
nodes = (
"113 0 LINE",
"113 648 LINE",
"365 0 LINE",
"388 0 LINE",
"388 700 LINE",
"366 700 LINE",
"366 52 LINE",
"113 700 LINE",
"91 700 LINE",
"91 0 LINE"
);
}
);
width = 479;
},
{
anchors = (
{
name = top;
position = "{312, 711}";
}
);
associatedMasterId = "4E2227F3-52E4-4048-A8EE-327B486EF0A4";
layerId = "AF700569-CAED-4344-924C-FF7EDA896D2F";
name = "{100,5}";
paths = (
{
closed = 1;
nodes = (
"180 0 LINE",
"179 490 LINE",
"440 0 LINE",
"536 0 LINE",
"536 700 LINE",
"437 700 LINE",
"438 207 LINE",
"177 700 LINE",
"81 700 LINE",
"81 0 LINE"
);
}
);
width = 616;
},
{
anchors = (
{
name = top;
position = "{252, 711}";
}
);
associatedMasterId = "4E2227F3-52E4-4048-A8EE-327B486EF0A4";
layerId = "42C43E0D-C6E2-494E-A0C1-A4C56C6C4E84";
name = "{100,3}";
paths = (
{
closed = 1;
nodes = (
"160 0 LINE",
"159 467 LINE",
"336 0 LINE",
"442 0 LINE",
"442 700 LINE",
"343 700 LINE",
"344 234 LINE",
"165 700 LINE",
"61 700 LINE",
"61 0 LINE"
);
}
);
width = 503;
}
);
leftKerningGroup = H;
rightKerningGroup = H;
unicode = 004E;
},
{
glyphname = O;
lastChange = "2017-04-25 02:02:50 +0000";
layers = (
{
anchors = (
{
name = top;
position = "{290, 708}";
}
);
hints = (
{
origin = "{0, 9}";
target = "{1, 3}";
},
{
horizontal = 1;
origin = "{0, 6}";
target = "{1, 6}";
},
{
origin = "{1, 9}";
target = "{0, 3}";
},
{
horizontal = 1;
origin = "{0, 13}";
target = "{1, 13}";
}
);
layerId = "262880E7-CFE1-4BDA-902E-E24798F3240A";
paths = (
{
closed = 1;
nodes = (
"411 -7 OFFCURVE",
"492 77 OFFCURVE",
"492 190 CURVE SMOOTH",
"492 509 LINE SMOOTH",
"492 623 OFFCURVE",
"411 708 OFFCURVE",
"290 708 CURVE SMOOTH",
"169 708 OFFCURVE",
"90 623 OFFCURVE",
"90 509 CURVE SMOOTH",
"90 190 LINE SMOOTH",
"90 77 OFFCURVE",
"169 -7 OFFCURVE",
"290 -7 CURVE SMOOTH"
);
},
{
closed = 1;
nodes = (
"183 13 OFFCURVE",
"112 89 OFFCURVE",
"112 189 CURVE SMOOTH",
"112 510 LINE SMOOTH",
"112 610 OFFCURVE",
"183 687 OFFCURVE",
"290 687 CURVE SMOOTH",
"398 687 OFFCURVE",
"470 610 OFFCURVE",
"470 510 CURVE SMOOTH",
"470 189 LINE SMOOTH",
"470 89 OFFCURVE",
"398 13 OFFCURVE",
"290 13 CURVE SMOOTH"
);
}
);
width = 582;
},
{
anchors = (
{
name = top;
position = "{242, 708}";
}
);
layerId = "4E2227F3-52E4-4048-A8EE-327B486EF0A4";
paths = (
{
closed = 1;
nodes = (
"376 -8 OFFCURVE",
"464 75 OFFCURVE",
"464 206 CURVE SMOOTH",
"464 494 LINE SMOOTH",
"464 625 OFFCURVE",
"376 708 OFFCURVE",
"242 708 CURVE SMOOTH",
"107 708 OFFCURVE",
"20 625 OFFCURVE",
"20 494 CURVE SMOOTH",
"20 206 LINE SMOOTH",
"20 75 OFFCURVE",
"107 -8 OFFCURVE",
"242 -8 CURVE SMOOTH"
);
},
{
closed = 1;
nodes = (
"220 153 OFFCURVE",
"208 171 OFFCURVE",
"208 198 CURVE SMOOTH",
"208 502 LINE SMOOTH",
"208 529 OFFCURVE",
"220 547 OFFCURVE",
"242 547 CURVE SMOOTH",
"264 547 OFFCURVE",
"276 529 OFFCURVE",
"276 502 CURVE SMOOTH",
"276 198 LINE SMOOTH",
"276 171 OFFCURVE",
"264 153 OFFCURVE",
"242 153 CURVE SMOOTH"
);
}
);
width = 484;
},
{
anchors = (
{
name = top;
position = "{290, 708}";
}
);
guideLines = (
{
position = "{290, 613}";
},
{
position = "{287, 360}";
},
{
position = "{290, 87}";
}
);
layerId = "FFFA8D72-12AC-4CE0-B2CA-57A29829F4DA";
paths = (
{
closed = 1;
nodes = (
"448 -12 OFFCURVE",
"551 87 OFFCURVE",
"551 236 CURVE SMOOTH",
"551 464 LINE SMOOTH",
"551 613 OFFCURVE",
"448 708 OFFCURVE",
"290 708 CURVE SMOOTH",
"132 708 OFFCURVE",
"30 613 OFFCURVE",
"30 464 CURVE SMOOTH",
"30 236 LINE SMOOTH",
"30 87 OFFCURVE",
"132 -12 OFFCURVE",
"290 -12 CURVE SMOOTH"
);
},
{
closed = 1;
nodes = (
"245 149 OFFCURVE",
"218 180 OFFCURVE",
"218 230 CURVE SMOOTH",
"218 466 LINE SMOOTH",
"218 516 OFFCURVE",
"245 547 OFFCURVE",
"290 547 CURVE SMOOTH",
"335 547 OFFCURVE",
"363 516 OFFCURVE",
"363 466 CURVE SMOOTH",
"363 230 LINE SMOOTH",
"363 180 OFFCURVE",
"335 149 OFFCURVE",
"290 149 CURVE SMOOTH"
);
}
);
width = 581;
},
{
anchors = (
{
name = top;
position = "{221, 699}";
}
);
layerId = "DCBE1F7B-116A-43E0-B7B4-8657BA77D8B5";
paths = (
{
closed = 1;
nodes = (
"311 -8 OFFCURVE",
"374 56 OFFCURVE",
"374 150 CURVE SMOOTH",
"374 549 LINE SMOOTH",
"374 643 OFFCURVE",
"311 708 OFFCURVE",
"221 708 CURVE SMOOTH",
"132 708 OFFCURVE",
"70 643 OFFCURVE",
"70 549 CURVE SMOOTH",
"70 150 LINE SMOOTH",
"70 56 OFFCURVE",
"132 -8 OFFCURVE",
"221 -8 CURVE SMOOTH"
);
},
{
closed = 1;
nodes = (
"145 13 OFFCURVE",
"92 69 OFFCURVE",
"92 149 CURVE SMOOTH",
"92 550 LINE SMOOTH",
"92 631 OFFCURVE",
"145 687 OFFCURVE",
"221 687 CURVE SMOOTH",
"298 687 OFFCURVE",
"352 631 OFFCURVE",
"352 550 CURVE SMOOTH",
"352 149 LINE SMOOTH",
"352 69 OFFCURVE",
"298 13 OFFCURVE",
"221 13 CURVE SMOOTH"
);
}
);
width = 444;
}
);
leftKerningGroup = O;
rightKerningGroup = C;
unicode = 004F;
},
{
color = 3;
glyphname = Oslash;
lastChange = "2017-04-25 02:48:53 +0000";
layers = (
{
components = (
{
name = O;
transform = "{1, 0, 0, 1, -23, 0}";
}
);
layerId = "262880E7-CFE1-4BDA-902E-E24798F3240A";
paths = (
{
closed = 1;
nodes = (
"96 -21 LINE",
"116 -30 LINE",
"443 730 LINE",
"423 739 LINE"
);
}
);
width = 536;
},
{
components = (
{
name = O;
transform = "{1, 0, 0, 1, -12, 0}";
}
);
layerId = "FFFA8D72-12AC-4CE0-B2CA-57A29829F4DA";
paths = (
{
closed = 1;
nodes = (
"63 10 LINE",
"121 -30 LINE",
"497 690 LINE",
"439 730 LINE"
);
}
);
width = 549;
},
{
components = (
{
name = O;
transform = "{1, 0, 0, 1, -16, 0}";
}
);
layerId = "DCBE1F7B-116A-43E0-B7B4-8657BA77D8B5";
paths = (
{
closed = 1;
nodes = (
"44 -21 LINE",
"64 -30 LINE",
"365 730 LINE",
"345 739 LINE"
);
}
);
width = 412;
},
{
components = (
{
name = O;
transform = "{1, 0, 0, 1, -8, 0}";
}
);
layerId = "4E2227F3-52E4-4048-A8EE-327B486EF0A4";
paths = (
{
closed = 1;
nodes = (
"39 0 LINE",
"101 -30 LINE",
"432 700 LINE",
"369 730 LINE"
);
}
);
width = 462;
},
{
associatedMasterId = "FFFA8D72-12AC-4CE0-B2CA-57A29829F4DA";
components = (
{
name = O;
transform = "{1, 0, 0, 1, 6, 0}";
}
);
layerId = "160CDC3E-1151-4942-8EC5-A5A167ED0AB4";
name = "{100,3}";
paths = (
{
closed = 1;
nodes = (
"35 -16 LINE",
"92 -44 LINE",
"420 721 LINE",
"362 748 LINE"
);
}
);
width = 588;
},
{
associatedMasterId = "FFFA8D72-12AC-4CE0-B2CA-57A29829F4DA";
components = (
{
name = O;
transform = "{1, 0, 0, 1, 14, 0}";
}
);
layerId = "ED17B6D4-A8AE-40B6-9381-1DD3D326EE5F";
name = "{100,5}";
paths = (
{
closed = 1;
nodes = (
"66 -11 LINE",
"121 -44 LINE",
"506 715 LINE",
"451 749 LINE"
);
}
);
width = 605;
}
);
unicode = 00D8;
},
{
glyphname = P;
lastChange = "2017-04-25 02:15:18 +0000";
layers = (
{
hints = (
{
horizontal = 1;
origin = "{0, 17}";
target = "{0, 2}";
},
{
origin = "{0, 5}";
target = "{0, 14}";
},
{
horizontal = 1;
origin = "{0, 11}";
target = "{0, 8}";
},
{
origin = "{0, 18}";
target = "{0, 1}";
}
);
layerId = "262880E7-CFE1-4BDA-902E-E24798F3240A";
paths = (
{
closed = 1;
nodes = (
"130 0 LINE",
"130 681 LINE",
"318 681 LINE SMOOTH",
"410 681 OFFCURVE",
"472 617 OFFCURVE",
"472 520 CURVE SMOOTH",
"472 425 OFFCURVE",
"410 361 OFFCURVE",
"318 361 CURVE SMOOTH",
"125 361 LINE",
"125 340 LINE",
"316 340 LINE SMOOTH",
"423 340 OFFCURVE",
"494 411 OFFCURVE",
"494 520 CURVE SMOOTH",
"494 629 OFFCURVE",
"423 702 OFFCURVE",
"316 702 CURVE SMOOTH",
"108 702 LINE",
"108 0 LINE"
);
}
);
width = 548;
},
{
layerId = "4E2227F3-52E4-4048-A8EE-327B486EF0A4";
paths = (
{
closed = 1;
nodes = (
"212 0 LINE",
"212 539 LINE",
"231 539 LINE SMOOTH",
"260 539 OFFCURVE",
"281 517 OFFCURVE",
"281 471 CURVE SMOOTH",
"281 426 OFFCURVE",
"260 405 OFFCURVE",
"231 405 CURVE SMOOTH",
"196 405 LINE",
"196 260 LINE",
"274 260 LINE SMOOTH",
"390 260 OFFCURVE",
"469 345 OFFCURVE",
"469 475 CURVE SMOOTH",
"469 608 OFFCURVE",
"386 700 OFFCURVE",
"264 700 CURVE SMOOTH",
"24 700 LINE",
"24 0 LINE"
);
}
);
width = 481;
},
{
layerId = "FFFA8D72-12AC-4CE0-B2CA-57A29829F4DA";
paths = (
{
closed = 1;
nodes = (
"224 0 LINE",
"224 539 LINE",
"283 539 LINE SMOOTH",
"331 539 OFFCURVE",
"365 517 OFFCURVE",
"365 471 CURVE SMOOTH",
"365 426 OFFCURVE",
"331 405 OFFCURVE",
"283 405 CURVE SMOOTH",
"207 405 LINE",
"207 255 LINE",
"305 255 LINE SMOOTH",
"441 255 OFFCURVE",
"552 342 OFFCURVE",
"552 475 CURVE SMOOTH",
"552 608 OFFCURVE",
"456 700 OFFCURVE",
"314 700 CURVE SMOOTH",
"36 700 LINE",
"36 0 LINE"
);
}
);
width = 570;
},
{
layerId = "DCBE1F7B-116A-43E0-B7B4-8657BA77D8B5";
paths = (
{
closed = 1;
nodes = (
"106 0 LINE",
"106 681 LINE",
"232 681 LINE SMOOTH",
"306 681 OFFCURVE",
"355 617 OFFCURVE",
"355 520 CURVE SMOOTH",
"355 425 OFFCURVE",
"306 361 OFFCURVE",
"232 361 CURVE SMOOTH",
"102 361 LINE",
"102 340 LINE",
"232 340 LINE SMOOTH",
"319 340 OFFCURVE",
"377 412 OFFCURVE",
"377 520 CURVE SMOOTH",
"377 629 OFFCURVE",
"319 702 OFFCURVE",
"232 702 CURVE SMOOTH",
"84 702 LINE",
"84 0 LINE"
);
}
);
width = 419;
}
);
leftKerningGroup = H;
rightKerningGroup = P;
unicode = 0050;
},
{
glyphname = Q;
lastChange = "2017-04-25 02:16:00 +0000";
layers = (
{
hints = (
{
horizontal = 1;
origin = "{2, 6}";
target = "{1, 6}";
},
{
origin = "{2, 9}";
target = "{1, 3}";
},
{
origin = "{1, 9}";
target = "{2, 3}";
},
{
horizontal = 1;
origin = "{2, 13}";
target = "{1, 13}";
}
);
layerId = "262880E7-CFE1-4BDA-902E-E24798F3240A";
paths = (
{
closed = 1;
nodes = (
"293 -127 LINE",
"293 0 LINE",
"271 0 LINE",
"271 -127 LINE"
);
},
{
closed = 1;
nodes = (
"179 13 OFFCURVE",
"112 80 OFFCURVE",
"112 180 CURVE SMOOTH",
"112 520 LINE SMOOTH",
"112 620 OFFCURVE",
"179 687 OFFCURVE",
"282 687 CURVE SMOOTH",
"384 687 OFFCURVE",
"452 620 OFFCURVE",
"452 520 CURVE SMOOTH",
"452 180 LINE SMOOTH",
"452 80 OFFCURVE",
"384 13 OFFCURVE",
"282 13 CURVE SMOOTH"
);
},
{
closed = 1;
nodes = (
"397 -8 OFFCURVE",
"474 67 OFFCURVE",
"474 181 CURVE SMOOTH",
"474 519 LINE SMOOTH",
"474 633 OFFCURVE",
"397 708 OFFCURVE",
"282 708 CURVE SMOOTH",
"166 708 OFFCURVE",
"90 633 OFFCURVE",
"90 519 CURVE SMOOTH",
"90 181 LINE SMOOTH",
"90 67 OFFCURVE",
"166 -8 OFFCURVE",
"282 -8 CURVE SMOOTH"
);
}
);
width = 564;
},
{
layerId = "4E2227F3-52E4-4048-A8EE-327B486EF0A4";
paths = (
{
closed = 1;
nodes = (
"330 -87 LINE",
"330 113 LINE",
"142 113 LINE",
"142 -87 LINE"
);
},
{
closed = 1;
nodes = (
"219 153 OFFCURVE",
"208 170 OFFCURVE",
"208 195 CURVE SMOOTH",
"208 505 LINE SMOOTH",
"208 530 OFFCURVE",
"219 547 OFFCURVE",
"236 547 CURVE SMOOTH",
"254 547 OFFCURVE",
"265 530 OFFCURVE",
"265 505 CURVE SMOOTH",
"265 195 LINE SMOOTH",
"265 170 OFFCURVE",
"254 153 OFFCURVE",
"236 153 CURVE SMOOTH"
);
},
{
closed = 1;
nodes = (
"367 -8 OFFCURVE",
"453 81 OFFCURVE",
"453 215 CURVE SMOOTH",
"453 485 LINE SMOOTH",
"453 619 OFFCURVE",
"367 708 OFFCURVE",
"236 708 CURVE SMOOTH",
"106 708 OFFCURVE",
"20 619 OFFCURVE",
"20 485 CURVE SMOOTH",
"20 215 LINE SMOOTH",
"20 81 OFFCURVE",
"106 -8 OFFCURVE",
"236 -8 CURVE SMOOTH"
);
}
);
width = 473;
},
{
layerId = "FFFA8D72-12AC-4CE0-B2CA-57A29829F4DA";
paths = (
{
closed = 1;
nodes = (
"377 -87 LINE",
"377 113 LINE",
"189 113 LINE",
"189 -87 LINE"
);
},
{
closed = 1;
nodes = (
"244 153 OFFCURVE",
"218 184 OFFCURVE",
"218 230 CURVE SMOOTH",
"218 470 LINE SMOOTH",
"218 516 OFFCURVE",
"244 547 OFFCURVE",
"282 547 CURVE SMOOTH",
"321 547 OFFCURVE",
"347 516 OFFCURVE",
"347 470 CURVE SMOOTH",
"347 230 LINE SMOOTH",
"347 184 OFFCURVE",
"321 153 OFFCURVE",
"282 153 CURVE SMOOTH"
);
},
{
closed = 1;
nodes = (
"433 -8 OFFCURVE",
"535 85 OFFCURVE",
"535 225 CURVE SMOOTH",
"535 460 LINE SMOOTH",
"535 612 OFFCURVE",
"433 708 OFFCURVE",
"282 708 CURVE SMOOTH",
"131 708 OFFCURVE",
"30 612 OFFCURVE",
"30 460 CURVE SMOOTH",
"30 225 LINE SMOOTH",
"30 85 OFFCURVE",
"131 -8 OFFCURVE",
"282 -8 CURVE SMOOTH"
);
}
);
width = 565;
},
{
layerId = "DCBE1F7B-116A-43E0-B7B4-8657BA77D8B5";
paths = (
{
closed = 1;
nodes = (
"227 -127 LINE",
"227 0 LINE",
"204 0 LINE",
"204 -127 LINE"
);
},
{
closed = 1;
nodes = (
"143 13 OFFCURVE",
"92 69 OFFCURVE",
"92 150 CURVE SMOOTH",
"92 550 LINE SMOOTH",
"92 631 OFFCURVE",
"143 687 OFFCURVE",
"216 687 CURVE SMOOTH",
"289 687 OFFCURVE",
"339 631 OFFCURVE",
"339 550 CURVE SMOOTH",
"339 150 LINE SMOOTH",
"339 69 OFFCURVE",
"289 13 OFFCURVE",
"216 13 CURVE SMOOTH"
);
},
{
closed = 1;
nodes = (
"302 -8 OFFCURVE",
"361 57 OFFCURVE",
"361 151 CURVE SMOOTH",
"361 549 LINE SMOOTH",
"361 643 OFFCURVE",
"302 708 OFFCURVE",
"216 708 CURVE SMOOTH",
"130 708 OFFCURVE",
"70 643 OFFCURVE",
"70 549 CURVE SMOOTH",
"70 151 LINE SMOOTH",
"70 57 OFFCURVE",
"130 -8 OFFCURVE",
"216 -8 CURVE SMOOTH"
);
}
);
width = 431;
}
);
leftKerningGroup = C;
unicode = 0051;
},
{
glyphname = R;
lastChange = "2017-04-26 12:30:19 +0000";
layers = (
{
hints = (
{
horizontal = 1;
origin = "{0, 18}";
target = "{0, 1}";
},
{
horizontal = 1;
origin = "{0, 10}";
target = "{0, 9}";
},
{
origin = "{0, 19}";
target = "{0, 0}";
},
{
place = "{458, 0}";
},
{
place = "{445, 0}";
}
);
layerId = "262880E7-CFE1-4BDA-902E-E24798F3240A";
paths = (
{
closed = 1;
nodes = (
"139 0 LINE",
"139 681 LINE",
"327 681 LINE SMOOTH",
"419 681 OFFCURVE",
"481 617 OFFCURVE",
"481 522 CURVE SMOOTH",
"481 429 OFFCURVE",
"419 365 OFFCURVE",
"327 365 CURVE SMOOTH",
"134 365 LINE",
"134 344 LINE",
"325 344 LINE SMOOTH",
"432 344 OFFCURVE",
"503 415 OFFCURVE",
"503 522 CURVE SMOOTH",
"503 629 OFFCURVE",
"432 702 OFFCURVE",
"325 702 CURVE SMOOTH",
"117 702 LINE",
"117 0 LINE"
);
},
{
closed = 1;
nodes = (
"516 0 LINE",
"343 355 LINE",
"325 347 LINE",
"495 0 LINE"
);
}
);
width = 561;
},
{
layerId = "4E2227F3-52E4-4048-A8EE-327B486EF0A4";
paths = (
{
closed = 1;
nodes = (
"214 0 LINE",
"214 539 LINE",
"233 539 LINE SMOOTH",
"262 539 OFFCURVE",
"283 518 OFFCURVE",
"283 475 CURVE SMOOTH",
"283 434 OFFCURVE",
"262 412 OFFCURVE",
"233 412 CURVE SMOOTH",
"198 412 LINE",
"198 269 LINE",
"276 269 LINE SMOOTH",
"392 269 OFFCURVE",
"471 352 OFFCURVE",
"471 477 CURVE SMOOTH",
"471 608 OFFCURVE",
"388 700 OFFCURVE",
"266 700 CURVE SMOOTH",
"26 700 LINE",
"26 0 LINE"
);
},
{
closed = 1;
nodes = (
"480 0 LINE",
"381 349 LINE",
"202 349 LINE",
"286 0 LINE"
);
}
);
width = 490;
},
{
layerId = "FFFA8D72-12AC-4CE0-B2CA-57A29829F4DA";
paths = (
{
closed = 1;
nodes = (
"227 0 LINE",
"227 539 LINE",
"296 539 LINE SMOOTH",
"339 539 OFFCURVE",
"368 513 OFFCURVE",
"368 475 CURVE SMOOTH",
"368 437 OFFCURVE",
"339 412 OFFCURVE",
"296 412 CURVE SMOOTH",
"210 412 LINE",
"210 269 LINE",
"327 269 LINE SMOOTH",
"464 269 OFFCURVE",
"555 352 OFFCURVE",
"555 477 CURVE SMOOTH",
"555 611 OFFCURVE",
"464 700 OFFCURVE",
"327 700 CURVE SMOOTH",
"39 700 LINE",
"39 0 LINE"
);
},
{
closed = 1;
nodes = (
"565 0 LINE",
"428 349 LINE",
"243 349 LINE",
"365 0 LINE"
);
}
);
width = 580;
},
{
layerId = "DCBE1F7B-116A-43E0-B7B4-8657BA77D8B5";
paths = (
{
closed = 1;
nodes = (
"113 0 LINE",
"113 681 LINE",
"239 681 LINE SMOOTH",
"313 681 OFFCURVE",
"362 617 OFFCURVE",
"362 522 CURVE SMOOTH",
"362 428 OFFCURVE",
"313 365 OFFCURVE",
"239 365 CURVE SMOOTH",
"109 365 LINE",
"109 344 LINE",
"239 344 LINE SMOOTH",
"326 344 OFFCURVE",
"384 415 OFFCURVE",
"384 522 CURVE SMOOTH",
"384 630 OFFCURVE",
"326 702 OFFCURVE",
"239 702 CURVE SMOOTH",
"91 702 LINE",
"91 0 LINE"
);
},
{
closed = 1;
nodes = (
"389 0 LINE",
"258 353 LINE",
"239 345 LINE",
"367 0 LINE"
);
}
);
width = 424;
}
);
rightKerningGroup = R;
unicode = 0052;
},
{
glyphname = S;
lastChange = "2017-04-29 07:01:54 +0000";
layers = (
{
anchors = (
{
name = top;
position = "{276, 708}";
}
);
hints = (
{
horizontal = 1;
origin = "{0, 20}";
target = "{0, 11}";
},
{
origin = "{0, 23}";
target = "{0, 8}";
},
{
origin = "{0, 29}";
target = "{0, 2}";
},
{
origin = "{0, 14}";
target = "{0, 17}";
},
{
horizontal = 1;
origin = "{0, 41}";
target = "{0, 32}";
},
{
origin = "{0, 37}";
target = "{0, 36}";
}
);
layerId = "262880E7-CFE1-4BDA-902E-E24798F3240A";
paths = (
{
closed = 1;
nodes = (
"403 -8 OFFCURVE",
"486 61 OFFCURVE",
"486 161 CURVE SMOOTH",
"486 257 OFFCURVE",
"410 301 OFFCURVE",
"289 371 CURVE SMOOTH",
"182 433 OFFCURVE",
"116 456 OFFCURVE",
"116 549 CURVE SMOOTH",
"116 639 OFFCURVE",
"180 687 OFFCURVE",
"276 687 CURVE SMOOTH",
"386 687 OFFCURVE",
"457 625 OFFCURVE",
"457 533 CURVE SMOOTH",
"457 500 LINE",
"479 500 LINE",
"479 535 LINE SMOOTH",
"479 639 OFFCURVE",
"401 708 OFFCURVE",
"279 708 CURVE SMOOTH",
"168 708 OFFCURVE",
"95 652 OFFCURVE",
"95 548 CURVE SMOOTH",
"95 444 OFFCURVE",
"168 412 OFFCURVE",
"274 351 CURVE SMOOTH",
"415 270 OFFCURVE",
"464 231 OFFCURVE",
"464 159 CURVE SMOOTH",
"464 71 OFFCURVE",
"391 13 OFFCURVE",
"283 13 CURVE SMOOTH",
"172 13 OFFCURVE",
"101 74 OFFCURVE",
"101 166 CURVE SMOOTH",
"101 210 LINE",
"81 210 LINE",
"81 164 LINE SMOOTH",
"81 60 OFFCURVE",
"160 -8 OFFCURVE",
"281 -8 CURVE SMOOTH"
);
}
);
width = 567;
},
{
anchors = (
{
name = top;
position = "{231, 708}";
}
);
layerId = "4E2227F3-52E4-4048-A8EE-327B486EF0A4";
paths = (
{
closed = 1;
nodes = (
"362 -8 OFFCURVE",
"449 68 OFFCURVE",
"449 191 CURVE SMOOTH",
"449 294 OFFCURVE",
"388 341 OFFCURVE",
"283 418 CURVE SMOOTH",
"219 465 OFFCURVE",
"203 483 OFFCURVE",
"203 510 CURVE SMOOTH",
"203 532 OFFCURVE",
"214 547 OFFCURVE",
"231 547 CURVE SMOOTH",
"248 547 OFFCURVE",
"260 533 OFFCURVE",
"260 513 CURVE SMOOTH",
"260 472 LINE",
"445 472 LINE",
"445 509 LINE SMOOTH",
"445 628 OFFCURVE",
"360 708 OFFCURVE",
"231 708 CURVE SMOOTH",
"103 708 OFFCURVE",
"18 628 OFFCURVE",
"18 509 CURVE SMOOTH",
"18 386 OFFCURVE",
"110 321 OFFCURVE",
"181 271 CURVE SMOOTH",
"246 225 OFFCURVE",
"264 209 OFFCURVE",
"264 185 CURVE SMOOTH",
"264 166 OFFCURVE",
"252 153 OFFCURVE",
"236 153 CURVE SMOOTH",
"220 153 OFFCURVE",
"208 167 OFFCURVE",
"208 189 CURVE SMOOTH",
"208 229 LINE",
"22 229 LINE",
"22 180 LINE SMOOTH",
"22 70 OFFCURVE",
"106 -8 OFFCURVE",
"235 -8 CURVE SMOOTH"
);
}
);
width = 467;
},
{
anchors = (
{
name = top;
position = "{268, 708}";
}
);
layerId = "FFFA8D72-12AC-4CE0-B2CA-57A29829F4DA";
paths = (
{
closed = 1;
nodes = (
"405 -8 OFFCURVE",
"515 47 OFFCURVE",
"515 212 CURVE SMOOTH",
"515 259 OFFCURVE",
"506 372 OFFCURVE",
"343 425 CURVE SMOOTH",
"268 449 OFFCURVE",
"212 468 OFFCURVE",
"212 506 CURVE SMOOTH",
"212 529 OFFCURVE",
"234 547 OFFCURVE",
"268 547 CURVE SMOOTH",
"307 547 OFFCURVE",
"326 524 OFFCURVE",
"326 488 CURVE SMOOTH",
"326 466 LINE",
"511 466 LINE",
"511 509 LINE SMOOTH",
"511 628 OFFCURVE",
"415 708 OFFCURVE",
"266 708 CURVE SMOOTH",
"125 708 OFFCURVE",
"27 635 OFFCURVE",
"27 494 CURVE SMOOTH",
"27 351 OFFCURVE",
"129 305 OFFCURVE",
"186 285 CURVE SMOOTH",
"287 250 OFFCURVE",
"330 233 OFFCURVE",
"330 197 CURVE SMOOTH",
"330 171 OFFCURVE",
"307 153 OFFCURVE",
"275 153 CURVE SMOOTH",
"238 153 OFFCURVE",
"217 177 OFFCURVE",
"217 210 CURVE SMOOTH",
"217 236 LINE",
"28 236 LINE",
"31 180 LINE SMOOTH",
"37 69 OFFCURVE",
"121 -8 OFFCURVE",
"275 -8 CURVE SMOOTH"
);
}
);
width = 542;
},
{
anchors = (
{
name = top;
position = "{204, 708}";
}
);
layerId = "DCBE1F7B-116A-43E0-B7B4-8657BA77D8B5";
paths = (
{
closed = 1;
nodes = (
"296 -8 OFFCURVE",
"358 60 OFFCURVE",
"358 166 CURVE SMOOTH",
"358 257 OFFCURVE",
"313 294 OFFCURVE",
"213 369 CURVE SMOOTH",
"126 434 OFFCURVE",
"85 469 OFFCURVE",
"85 549 CURVE SMOOTH",
"85 640 OFFCURVE",
"137 688 OFFCURVE",
"204 688 CURVE SMOOTH",
"279 688 OFFCURVE",
"330 627 OFFCURVE",
"330 534 CURVE SMOOTH",
"330 500 LINE",
"352 500 LINE",
"352 535 LINE SMOOTH",
"352 639 OFFCURVE",
"293 708 OFFCURVE",
"204 708 CURVE SMOOTH",
"124 708 OFFCURVE",
"63 652 OFFCURVE",
"63 551 CURVE SMOOTH",
"63 453 OFFCURVE",
"119 409 OFFCURVE",
"201 347 CURVE SMOOTH",
"279 288 OFFCURVE",
"336 250 OFFCURVE",
"336 159 CURVE SMOOTH",
"336 70 OFFCURVE",
"281 12 OFFCURVE",
"209 12 CURVE SMOOTH",
"136 12 OFFCURVE",
"84 72 OFFCURVE",
"84 165 CURVE SMOOTH",
"84 192 LINE",
"63 192 LINE",
"63 164 LINE SMOOTH",
"63 60 OFFCURVE",
"124 -8 OFFCURVE",
"210 -8 CURVE SMOOTH"
);
}
);
width = 421;
}
);
leftKerningGroup = S;
rightKerningGroup = S;
unicode = 0053;
},
{
glyphname = T;
lastChange = "2017-04-25 12:17:23 +0000";
layers = (
{
hints = (
{
horizontal = 1;
origin = "{1, 2}";
target = "{1, 3}";
},
{
origin = "{0, 3}";
target = "{0, 0}";
}
);
layerId = "262880E7-CFE1-4BDA-902E-E24798F3240A";
paths = (
{
closed = 1;
nodes = (
"265 0 LINE",
"265 689 LINE",
"243 689 LINE",
"243 0 LINE"
);
},
{
closed = 1;
nodes = (
"464 679 LINE",
"464 700 LINE",
"54 700 LINE",
"54 679 LINE"
);
}
);
width = 518;
},
{
layerId = "4E2227F3-52E4-4048-A8EE-327B486EF0A4";
paths = (
{
closed = 1;
nodes = (
"336 0 LINE",
"336 689 LINE",
"148 689 LINE",
"148 0 LINE"
);
},
{
closed = 1;
nodes = (
"475 539 LINE",
"475 700 LINE",
"12 700 LINE",
"12 539 LINE"
);
}
);
width = 487;
},
{
layerId = "FFFA8D72-12AC-4CE0-B2CA-57A29829F4DA";
paths = (
{
closed = 1;
nodes = (
"379 0 LINE",
"379 689 LINE",
"191 689 LINE",
"191 0 LINE"
);
},
{
closed = 1;
nodes = (
"557 538 LINE",
"557 700 LINE",
"18 700 LINE",
"18 538 LINE"
);
}
);
width = 575;
},
{
layerId = "DCBE1F7B-116A-43E0-B7B4-8657BA77D8B5";
paths = (
{
closed = 1;
nodes = (
"195 0 LINE",
"195 689 LINE",
"173 689 LINE",
"173 0 LINE"
);
},
{
closed = 1;
nodes = (
"344 679 LINE",
"344 700 LINE",
"33 700 LINE",
"33 679 LINE"
);
}
);
width = 377;
}
);
leftKerningGroup = T;
rightKerningGroup = T;
unicode = 0054;
},
{
glyphname = U;
lastChange = "2017-04-25 02:15:21 +0000";
layers = (
{
anchors = (
{
name = top;
position = "{310, 712}";
}
);
hints = (
{
horizontal = 1;
origin = "{0, 17}";
target = "{0, 8}";
},
{
origin = "{0, 5}";
target = "{0, 2}";
},
{
origin = "{0, 14}";
target = "{0, 11}";
}
);
layerId = "262880E7-CFE1-4BDA-902E-E24798F3240A";
paths = (
{
closed = 1;
nodes = (
"431 -8 OFFCURVE",
"513 69 OFFCURVE",
"513 185 CURVE SMOOTH",
"513 700 LINE",
"491 700 LINE",
"491 182 LINE SMOOTH",
"491 81 OFFCURVE",
"418 13 OFFCURVE",
"310 13 CURVE SMOOTH",
"201 13 OFFCURVE",
"130 81 OFFCURVE",
"130 182 CURVE SMOOTH",
"130 700 LINE",
"108 700 LINE",
"108 185 LINE SMOOTH",
"108 69 OFFCURVE",
"189 -8 OFFCURVE",
"310 -8 CURVE SMOOTH"
);
}
);
width = 621;
},
{
anchors = (
{
name = top;
position = "{241, 713}";
}
);
layerId = "4E2227F3-52E4-4048-A8EE-327B486EF0A4";
paths = (
{
closed = 1;
nodes = (
"371 -8 OFFCURVE",
"457 78 OFFCURVE",
"457 208 CURVE SMOOTH",
"457 700 LINE",
"269 700 LINE",
"269 190 LINE SMOOTH",
"269 168 OFFCURVE",
"258 153 OFFCURVE",
"241 153 CURVE SMOOTH",
"223 153 OFFCURVE",
"212 168 OFFCURVE",
"212 190 CURVE SMOOTH",
"212 700 LINE",
"24 700 LINE",
"24 208 LINE SMOOTH",
"24 78 OFFCURVE",
"110 -8 OFFCURVE",
"241 -8 CURVE SMOOTH"
);
}
);
width = 481;
},
{
anchors = (
{
name = top;
position = "{290, 713}";
}
);
layerId = "FFFA8D72-12AC-4CE0-B2CA-57A29829F4DA";
paths = (
{
closed = 1;
nodes = (
"442 -8 OFFCURVE",
"544 81 OFFCURVE",
"544 223 CURVE SMOOTH",
"544 700 LINE",
"356 700 LINE",
"356 223 LINE SMOOTH",
"356 183 OFFCURVE",
"330 153 OFFCURVE",
"290 153 CURVE SMOOTH",
"250 153 OFFCURVE",
"223 183 OFFCURVE",
"223 223 CURVE SMOOTH",
"223 700 LINE",
"35 700 LINE",
"35 223 LINE SMOOTH",
"35 81 OFFCURVE",
"137 -8 OFFCURVE",
"290 -8 CURVE SMOOTH"
);
}
);
width = 579;
},
{
anchors = (
{
name = top;
position = "{236, 710}";
}
);
layerId = "DCBE1F7B-116A-43E0-B7B4-8657BA77D8B5";
paths = (
{
closed = 1;
nodes = (
"328 -8 OFFCURVE",
"390 65 OFFCURVE",
"390 175 CURVE SMOOTH",
"390 700 LINE",
"368 700 LINE",
"368 172 LINE SMOOTH",
"368 77 OFFCURVE",
"315 13 OFFCURVE",
"236 13 CURVE SMOOTH",
"158 13 OFFCURVE",
"106 77 OFFCURVE",
"106 172 CURVE SMOOTH",
"106 700 LINE",
"84 700 LINE",
"84 175 LINE SMOOTH",
"84 65 OFFCURVE",
"145 -8 OFFCURVE",
"236 -8 CURVE SMOOTH"
);
}
);
width = 474;
}
);
rightKerningGroup = U;
unicode = 0055;
},
{
glyphname = V;
lastChange = "2017-04-26 12:31:45 +0000";
layers = (
{
hints = (
{
origin = "{0, 6}";
target = "{0, 0}";
},
{
origin = "{0, 5}";
target = "{0, 4}";
},
{
origin = "{0, 2}";
target = "{0, 1}";
}
);
layerId = "262880E7-CFE1-4BDA-902E-E24798F3240A";
paths = (
{
closed = 1;
nodes = (
"289 0 LINE",
"503 700 LINE",
"482 700 LINE",
"278 33 LINE",
"76 700 LINE",
"54 700 LINE",
"267 0 LINE"
);
}
);
width = 557;
},
{
layerId = "4E2227F3-52E4-4048-A8EE-327B486EF0A4";
paths = (
{
closed = 1;
nodes = (
"361 0 LINE",
"509 700 LINE",
"311 700 LINE",
"265 305 LINE",
"215 700 LINE",
"12 700 LINE",
"158 0 LINE"
);
}
);
width = 521;
},
{
layerId = "FFFA8D72-12AC-4CE0-B2CA-57A29829F4DA";
paths = (
{
closed = 1;
nodes = (
"395 0 LINE",
"579 700 LINE",
"381 700 LINE",
"302 258 LINE",
"220 700 LINE",
"18 700 LINE",
"200 0 LINE"
);
}
);
width = 597;
},
{
layerId = "DCBE1F7B-116A-43E0-B7B4-8657BA77D8B5";
paths = (
{
closed = 1;
nodes = (
"214 0 LINE",
"363 700 LINE",
"341 700 LINE",
"203 42 LINE",
"65 700 LINE",
"42 700 LINE",
"192 0 LINE"
);
}
);
width = 405;
}
);
leftKerningGroup = V;
rightKerningGroup = V;
unicode = 0056;
},
{
color = 3;
glyphname = W;
lastChange = "2017-04-25 02:48:53 +0000";
layers = (
{
hints = (
{
origin = "{0, 11}";
target = "{0, 10}";
},
{
origin = "{0, 12}";
target = "{0, 0}";
},
{
origin = "{0, 8}";
target = "{0, 7}";
},
{
origin = "{0, 2}";
target = "{0, 3}";
},
{
origin = "{0, 5}";
target = "{0, 4}";
}
);
layerId = "262880E7-CFE1-4BDA-902E-E24798F3240A";
paths = (
{
closed = 1;
nodes = (
"262 0 LINE",
"434 666 LINE",
"604 0 LINE",
"626 0 LINE",
"817 700 LINE",
"795 700 LINE",
"616 40 LINE",
"444 700 LINE",
"422 700 LINE",
"252 40 LINE",
"76 700 LINE",
"54 700 LINE",
"240 0 LINE"
);
}
);
width = 871;
},
{
layerId = "4E2227F3-52E4-4048-A8EE-327B486EF0A4";
paths = (
{
closed = 1;
nodes = (
"321 0 LINE",
"360 362 LINE",
"408 0 LINE",
"574 0 LINE",
"708 700 LINE",
"514 700 LINE",
"485 353 LINE",
"430 700 LINE",
"284 700 LINE",
"245 353 LINE",
"210 700 LINE",
"12 700 LINE",
"154 0 LINE"
);
}
);
width = 720;
},
{
hints = (
{
place = "{-23.609, 0}";
}
);
layerId = "FFFA8D72-12AC-4CE0-B2CA-57A29829F4DA";
paths = (
{
closed = 1;
nodes = (
"348 0 LINE",
"406 372 LINE",
"474 0 LINE",
"661 0 LINE",
"793 700 LINE",
"605 700 LINE",
"558 348 LINE",
"503 700 LINE",
"312 700 LINE",
"265 348 LINE",
"216 700 LINE",
"18 700 LINE",
"172 0 LINE"
);
}
);
width = 811;
},
{
layerId = "DCBE1F7B-116A-43E0-B7B4-8657BA77D8B5";
paths = (
{
closed = 1;
nodes = (
"197 0 LINE",
"301 656 LINE",
"404 0 LINE",
"427 0 LINE",
"553 700 LINE",
"529 700 LINE",
"417 40 LINE",
"312 700 LINE",
"289 700 LINE",
"187 40 LINE",
"65 700 LINE",
"42 700 LINE",
"175 0 LINE"
);
}
);
width = 595;
},
{
associatedMasterId = "4E2227F3-52E4-4048-A8EE-327B486EF0A4";
layerId = "D22352A1-5D91-4C5D-8547-45DDB8692B1B";
name = "{150,3}";
paths = (
{
closed = 1;
nodes = (
"293 0 LINE",
"346 410 LINE",
"407 0 LINE",
"540 0 LINE",
"672 700 LINE",
"518 700 LINE",
"479 311 LINE",
"407 700 LINE",
"281 700 LINE",
"222 311 LINE",
"177 700 LINE",
"19 700 LINE",
"159 0 LINE"
);
}
);
width = 691;
}
);
leftKerningGroup = V;
rightKerningGroup = V;
unicode = 0057;
},
{
glyphname = X;
lastChange = "2017-04-25 12:22:10 +0000";
layers = (
{
hints = (
{
origin = "{0, 11}";
target = "{0, 0}";
},
{
origin = "{0, 2}";
target = "{0, 3}";
}
);
layerId = "262880E7-CFE1-4BDA-902E-E24798F3240A";
paths = (
{
closed = 1;
nodes = (
"79 0 LINE",
"266 330 LINE",
"452 0 LINE",
"477 0 LINE",
"276 349 LINE",
"477 700 LINE",
"452 700 LINE",
"266 369 LINE",
"79 700 LINE",
"54 700 LINE",
"255 350 LINE",
"54 0 LINE"
);
}
);
width = 531;
},
{
layerId = "4E2227F3-52E4-4048-A8EE-327B486EF0A4";
paths = (
{
closed = 1;
nodes = (
"203 0 LINE",
"252 162 LINE",
"301 0 LINE",
"491 0 LINE",
"351 350 LINE",
"491 700 LINE",
"300 700 LINE",
"252 537 LINE",
"204 700 LINE",
"12 700 LINE",
"152 350 LINE",
"12 0 LINE"
);
}
);
width = 503;
},
{
layerId = "FFFA8D72-12AC-4CE0-B2CA-57A29829F4DA";
paths = (
{
closed = 1;
nodes = (
"222 0 LINE",
"310 196 LINE",
"398 0 LINE",
"601 0 LINE",
"422 350 LINE",
"601 700 LINE",
"397 700 LINE",
"310 503 LINE",
"223 700 LINE",
"18 700 LINE",
"198 350 LINE",
"18 0 LINE"
);
}
);
width = 619;
},
{
layerId = "DCBE1F7B-116A-43E0-B7B4-8657BA77D8B5";
paths = (
{
closed = 1;
nodes = (
"67 0 LINE",
"203 330 LINE",
"338 0 LINE",
"363 0 LINE",
"213 349 LINE",
"363 700 LINE",
"338 700 LINE",
"203 369 LINE",
"67 700 LINE",
"42 700 LINE",
"191 350 LINE",
"42 0 LINE"
);
}
);
width = 405;
}
);
rightKerningGroup = X;
unicode = 0058;
},
{
glyphname = Y;
lastChange = "2017-04-25 02:15:28 +0000";
layers = (
{
anchors = (
{
name = top;
position = "{262, 699}";
}
);
hints = (
{
origin = "{0, 6}";
target = "{0, 5}";
},
{
origin = "{0, 3}";
target = "{0, 2}";
},
{
origin = "{0, 8}";
target = "{0, 0}";
}
);
layerId = "262880E7-CFE1-4BDA-902E-E24798F3240A";
paths = (
{
closed = 1;
nodes = (
"273 0 LINE",
"273 339 LINE",
"470 700 LINE",
"448 700 LINE",
"262 358 LINE",
"76 700 LINE",
"54 700 LINE",
"251 339 LINE",
"251 0 LINE"
);
}
);
width = 524;
},
{
anchors = (
{
name = top;
position = "{254, 699}";
}
);
layerId = "4E2227F3-52E4-4048-A8EE-327B486EF0A4";
paths = (
{
closed = 1;
nodes = (
"347 2 LINE",
"347 251 LINE",
"496 700 LINE",
"298 700 LINE",
"254 471 LINE",
"210 700 LINE",
"12 700 LINE",
"159 251 LINE",
"159 2 LINE"
);
}
);
width = 508;
},
{
anchors = (
{
name = top;
position = "{305, 700}";
}
);
layerId = "FFFA8D72-12AC-4CE0-B2CA-57A29829F4DA";
paths = (
{
closed = 1;
nodes = (
"398 2 LINE",
"398 251 LINE",
"593 700 LINE",
"388 700 LINE",
"305 461 LINE",
"222 700 LINE",
"18 700 LINE",
"211 251 LINE",
"211 2 LINE"
);
}
);
width = 611;
},
{
anchors = (
{
name = top;
position = "{195, 700}";
}
);
layerId = "DCBE1F7B-116A-43E0-B7B4-8657BA77D8B5";
paths = (
{
closed = 1;
nodes = (
"206 0 LINE",
"206 339 LINE",
"347 700 LINE",
"324 700 LINE",
"195 358 LINE",
"65 700 LINE",
"42 700 LINE",
"184 339 LINE",
"184 0 LINE"
);
}
);
width = 389;
}
);
leftKerningGroup = Y;
unicode = 0059;
},
{
glyphname = Z;
lastChange = "2017-04-25 00:44:27 +0000";
layers = (
{
anchors = (
{
name = top;
position = "{241, 713}";
}
);
hints = (
{
horizontal = 1;
origin = "{0, 5}";
target = "{0, 6}";
},
{
origin = "{0, 7}";
target = "{0, 3}";
},
{
horizontal = 1;
origin = "{0, 0}";
target = "{0, 1}";
},
{
origin = "{0, 8}";
target = "{0, 2}";
}
);
layerId = "262880E7-CFE1-4BDA-902E-E24798F3240A";
paths = (
{
closed = 1;
nodes = (
"440 0 LINE",
"440 21 LINE",
"79 21 LINE",
"440 679 LINE",
"440 700 LINE",
"54 700 LINE",
"54 679 LINE",
"416 679 LINE",
"54 21 LINE",
"54 0 LINE"
);
}
);
width = 503;
},
{
anchors = (
{
name = top;
position = "{210, 713}";
}
);
layerId = "4E2227F3-52E4-4048-A8EE-327B486EF0A4";
paths = (
{
closed = 1;
nodes = (
"410 0 LINE",
"410 161 LINE",
"208 161 LINE",
"410 539 LINE",
"410 700 LINE",
"12 700 LINE",
"12 539 LINE",
"212 539 LINE",
"12 161 LINE",
"12 0 LINE"
);
}
);
width = 424;
},
{
anchors = (
{
name = top;
position = "{264, 713}";
}
);
layerId = "FFFA8D72-12AC-4CE0-B2CA-57A29829F4DA";
paths = (
{
closed = 1;
nodes = (
"495 0 LINE",
"495 161 LINE",
"220 161 LINE",
"495 530 LINE",
"495 700 LINE",
"24 700 LINE",
"24 539 LINE",
"297 539 LINE",
"24 170 LINE",
"24 0 LINE"
);
}
);
width = 522;
},
{
anchors = (
{
name = top;
position = "{191, 713}";
}
);
layerId = "DCBE1F7B-116A-43E0-B7B4-8657BA77D8B5";
paths = (
{
closed = 1;
nodes = (
"334 0 LINE",
"334 21 LINE",
"67 21 LINE",
"334 679 LINE",
"334 700 LINE",
"42 700 LINE",
"42 679 LINE",
"310 679 LINE",
"42 21 LINE",
"42 0 LINE"
);
}
);
width = 383;
}
);
leftKerningGroup = Z;
rightKerningGroup = Z;
unicode = 005A;
},
{
color = 3;
glyphname = a;
lastChange = "2017-04-26 05:00:49 +0000";
layers = (
{
anchors = (
{
name = top;
position = "{249, 508}";
}
);
hints = (
{
horizontal = 1;
origin = "{2, 5}";
target = "{1, 4}";
},
{
horizontal = 1;
origin = "{1, 10}";
target = "{2, 10}";
},
{
origin = "{1, 7}";
target = "{2, 2}";
},
{
origin = "{0, 15}";
target = "{0, 0}";
},
{
horizontal = 1;
origin = "{0, 4}";
target = "{0, 11}";
},
{
origin = "{0, 7}";
target = "{0, 8}";
}
);
layerId = "262880E7-CFE1-4BDA-902E-E24798F3240A";
paths = (
{
closed = 1;
nodes = (
"411 0 LINE",
"411 342 LINE SMOOTH",
"411 442 OFFCURVE",
"362 508 OFFCURVE",
"246 508 CURVE SMOOTH",
"152 508 OFFCURVE",
"87 462 OFFCURVE",
"77 392 CURVE",
"99 388 LINE",
"106 449 OFFCURVE",
"162 487 OFFCURVE",
"243 487 CURVE SMOOTH",
"349 487 OFFCURVE",
"389 425 OFFCURVE",
"389 345 CURVE SMOOTH",
"389 0 LINE"
);
},
{
closed = 1;
nodes = (
"310 -8 OFFCURVE",
"406 37 OFFCURVE",
"406 142 CURVE",
"406 282 LINE",
"259 282 LINE",
"132 282 OFFCURVE",
"54 224 OFFCURVE",
"54 128 CURVE SMOOTH",
"54 26 OFFCURVE",
"138 -8 OFFCURVE",
"216 -8 CURVE SMOOTH"
);
},
{
closed = 1;
nodes = (
"138 13 OFFCURVE",
"76 49 OFFCURVE",
"76 129 CURVE SMOOTH",
"76 213 OFFCURVE",
"151 261 OFFCURVE",
"256 261 CURVE",
"389 261 LINE",
"389 142 LINE SMOOTH",
"389 52 OFFCURVE",
"299 13 OFFCURVE",
"215 13 CURVE SMOOTH"
);
}
);
width = 492;
},
{
anchors = (
{
name = top;
position = "{232, 528}";
}
);
layerId = "4E2227F3-52E4-4048-A8EE-327B486EF0A4";
paths = (
{
closed = 1;
nodes = (
"449 0 LINE",
"449 360 LINE SMOOTH",
"449 461 OFFCURVE",
"362 528 OFFCURVE",
"232 528 CURVE SMOOTH",
"105 528 OFFCURVE",
"17 459 OFFCURVE",
"17 341 CURVE",
"206 337 LINE",
"206 355 OFFCURVE",
"217 367 OFFCURVE",
"232 367 CURVE SMOOTH",
"249 367 OFFCURVE",
"261 355 OFFCURVE",
"261 337 CURVE SMOOTH",
"261 0 LINE"
);
},
{
closed = 1;
nodes = (
"264 -7 OFFCURVE",
"300 59 OFFCURVE",
"300 197 CURVE",
"300 313 LINE",
"221 313 LINE",
"95 313 OFFCURVE",
"12 297 OFFCURVE",
"12 151 CURVE SMOOTH",
"12 7 OFFCURVE",
"90 -9 OFFCURVE",
"159 -8 CURVE SMOOTH"
);
},
{
closed = 1;
nodes = (
"216 125 OFFCURVE",
"204 134 OFFCURVE",
"204 153 CURVE SMOOTH",
"204 170 OFFCURVE",
"216 185 OFFCURVE",
"235 185 CURVE",
"261 185 LINE",
"261 152 LINE SMOOTH",
"261 135 OFFCURVE",
"243 125 OFFCURVE",
"229 125 CURVE SMOOTH"
);
}
);
width = 467;
},
{
anchors = (
{
name = top;
position = "{249, 517}";
}
);
associatedMasterId = "4E2227F3-52E4-4048-A8EE-327B486EF0A4";
layerId = "ECDB5D87-04FB-4DD9-B431-22FBE4ECF321";
name = "{100,5}";
paths = (
{
closed = 1;
nodes = (
"455 0 LINE",
"455 348 LINE SMOOTH",
"455 446 OFFCURVE",
"369 517 OFFCURVE",
"248 517 CURVE SMOOTH",
"133 517 OFFCURVE",
"51 453 OFFCURVE",
"51 364 CURVE",
"150 357 LINE",
"150 401 OFFCURVE",
"191 431 OFFCURVE",
"249 431 CURVE SMOOTH",
"315 431 OFFCURVE",
"355 392 OFFCURVE",
"355 333 CURVE SMOOTH",
"355 0 LINE"
);
},
{
closed = 1;
nodes = (
"329 -8 OFFCURVE",
"392 51 OFFCURVE",
"392 157 CURVE",
"392 309 LINE",
"251 309 LINE",
"123 309 OFFCURVE",
"37 241 OFFCURVE",
"37 137 CURVE SMOOTH",
"37 46 OFFCURVE",
"107 -8 OFFCURVE",
"212 -8 CURVE SMOOTH"
);
},
{
closed = 1;
nodes = (
"173 78 OFFCURVE",
"137 94 OFFCURVE",
"137 141 CURVE SMOOTH",
"137 202 OFFCURVE",
"186 223 OFFCURVE",
"260 223 CURVE",
"355 223 LINE",
"355 200 LINE SMOOTH",
"355 122 OFFCURVE",
"303 78 OFFCURVE",
"226 78 CURVE SMOOTH"
);
}
);
width = 510;
},
{
anchors = (
{
name = top;
position = "{265, 528}";
}
);
layerId = "FFFA8D72-12AC-4CE0-B2CA-57A29829F4DA";
paths = (
{
closed = 1;
nodes = (
"513 0 LINE",
"513 355 LINE SMOOTH",
"513 451 OFFCURVE",
"404 528 OFFCURVE",
"265 528 CURVE SMOOTH",
"126 528 OFFCURVE",
"25 452 OFFCURVE",
"24 356 CURVE",
"212 332 LINE",
"213 352 OFFCURVE",
"236 367 OFFCURVE",
"268 367 CURVE SMOOTH",
"303 367 OFFCURVE",
"325 348 OFFCURVE",
"325 320 CURVE SMOOTH",
"325 0 LINE"
);
},
{
closed = 1;
nodes = (
"314 -8 OFFCURVE",
"359 47 OFFCURVE",
"359 182 CURVE",
"359 305 LINE",
"227 305 LINE",
"89 305 OFFCURVE",
"18 246 OFFCURVE",
"18 142 CURVE SMOOTH",
"18 39 OFFCURVE",
"87 -8 OFFCURVE",
"196 -8 CURVE SMOOTH"
);
},
{
closed = 1;
nodes = (
"222 115 OFFCURVE",
"207 127 OFFCURVE",
"207 153 CURVE SMOOTH",
"207 183 OFFCURVE",
"228 196 OFFCURVE",
"270 196 CURVE",
"325 196 LINE",
"325 180 LINE SMOOTH",
"325 138 OFFCURVE",
"294 115 OFFCURVE",
"252 115 CURVE SMOOTH"
);
}
);
width = 540;
},
{
anchors = (
{
name = top;
position = "{181, 508}";
}
);
layerId = "DCBE1F7B-116A-43E0-B7B4-8657BA77D8B5";
paths = (
{
closed = 1;
nodes = (
"316 0 LINE",
"316 342 LINE SMOOTH",
"316 442 OFFCURVE",
"271 508 OFFCURVE",
"185 508 CURVE SMOOTH",
"116 508 OFFCURVE",
"55 461 OFFCURVE",
"52 388 CURVE",
"75 385 LINE",
"75 446 OFFCURVE",
"127 487 OFFCURVE",
"184 487 CURVE SMOOTH",
"256 487 OFFCURVE",
"293 430 OFFCURVE",
"293 345 CURVE SMOOTH",
"293 0 LINE"
);
},
{
closed = 1;
nodes = (
"239 -8 OFFCURVE",
"308 37 OFFCURVE",
"308 142 CURVE",
"308 283 LINE",
"196 283 LINE SMOOTH",
"107 283 OFFCURVE",
"42 236 OFFCURVE",
"42 126 CURVE SMOOTH",
"42 18 OFFCURVE",
"106 -8 OFFCURVE",
"163 -8 CURVE SMOOTH"
);
},
{
closed = 1;
nodes = (
"109 13 OFFCURVE",
"64 45 OFFCURVE",
"64 127 CURVE SMOOTH",
"64 219 OFFCURVE",
"120 262 OFFCURVE",
"198 262 CURVE SMOOTH",
"293 262 LINE",
"293 142 LINE SMOOTH",
"293 52 OFFCURVE",
"229 13 OFFCURVE",
"166 13 CURVE SMOOTH"
);
}
);
width = 379;
},
{
anchors = (
{
name = top;
position = "{206, 517}";
}
);
associatedMasterId = "4E2227F3-52E4-4048-A8EE-327B486EF0A4";
layerId = "FAF4597E-2DB2-4F36-AC5C-F274557DEF62";
name = "{100,3}";
paths = (
{
closed = 1;
nodes = (
"378 0 LINE",
"378 350 LINE SMOOTH",
"378 451 OFFCURVE",
"310 517 OFFCURVE",
"206 517 CURVE SMOOTH",
"113 517 OFFCURVE",
"42 455 OFFCURVE",
"41 374 CURVE",
"142 366 LINE",
"143 405 OFFCURVE",
"174 431 OFFCURVE",
"204 431 CURVE SMOOTH",
"250 431 OFFCURVE",
"278 395 OFFCURVE",
"278 341 CURVE SMOOTH",
"278 0 LINE"
);
},
{
closed = 1;
nodes = (
"265 -8 OFFCURVE",
"314 42 OFFCURVE",
"314 177 CURVE",
"314 299 LINE",
"218 299 LINE SMOOTH",
"113 299 OFFCURVE",
"28 265 OFFCURVE",
"28 146 CURVE SMOOTH",
"28 18 OFFCURVE",
"126 -8 OFFCURVE",
"185 -8 CURVE SMOOTH"
);
},
{
closed = 1;
nodes = (
"156 79 OFFCURVE",
"129 100 OFFCURVE",
"129 144 CURVE SMOOTH",
"129 189 OFFCURVE",
"165 215 OFFCURVE",
"215 215 CURVE SMOOTH",
"278 215 LINE",
"278 161 LINE SMOOTH",
"278 107 OFFCURVE",
"235 79 OFFCURVE",
"194 79 CURVE SMOOTH"
);
}
);
width = 420;
}
);
leftKerningGroup = a;
rightKerningGroup = b;
unicode = 0061;
},
{
glyphname = ae;
lastChange = "2017-04-25 12:36:27 +0000";
layers = (
{
hints = (
{
horizontal = 1;
origin = "{1, 5}";
target = "{0, 43}";
},
{
horizontal = 1;
origin = "{0, 49}";
target = "{1, 10}";
},
{
origin = "{0, 46}";
target = "{1, 2}";
},
{
origin = "{1, 7}";
target = "{0, 15}";
},
{
horizontal = 1;
origin = "{0, 31}";
target = "{0, 38}";
},
{
origin = "{0, 34}";
target = "{0, 35}";
},
{
origin = "{1, 6}";
target = "{0, 18}";
},
{
origin = "{2, 11}";
target = "{0, 19}";
},
{
horizontal = 1;
origin = "{0, 19}";
},
{
horizontal = 1;
origin = "{0, 25}";
target = "{2, 5}";
},
{
horizontal = 1;
origin = "{0, 5}";
target = "{0, 12}";
},
{
origin = "{0, 9}";
target = "{0, 8}";
}
);
layerId = "262880E7-CFE1-4BDA-902E-E24798F3240A";
paths = (
{
closed = 1;
nodes = (
"303 -8 OFFCURVE",
"386 26 OFFCURVE",
"406 95 CURVE",
"425 26 OFFCURVE",
"489 -8 OFFCURVE",
"571 -8 CURVE SMOOTH",
"659 -8 OFFCURVE",
"723 44 OFFCURVE",
"742 118 CURVE",
"720 117 LINE",
"702 56 OFFCURVE",
"647 13 OFFCURVE",
"571 13 CURVE SMOOTH",
"489 13 OFFCURVE",
"416 56 OFFCURVE",
"416 142 CURVE",
"416 180 OFFCURVE",
"416 217 OFFCURVE",
"416 255 CURVE",
"750 255 LINE",
"750 341 OFFCURVE",
"750 350 OFFCURVE",
"744 377 CURVE SMOOTH",
"727 454 OFFCURVE",
"661 508 OFFCURVE",
"571 508 CURVE SMOOTH",
"492 508 OFFCURVE",
"433 466 OFFCURVE",
"409 403 CURVE",
"391 468 OFFCURVE",
"342 508 OFFCURVE",
"251 508 CURVE SMOOTH",
"157 508 OFFCURVE",
"92 462 OFFCURVE",
"82 392 CURVE",
"104 388 LINE",
"111 449 OFFCURVE",
"167 487 OFFCURVE",
"248 487 CURVE SMOOTH",
"354 487 OFFCURVE",
"394 425 OFFCURVE",
"394 345 CURVE SMOOTH",
"394 276 LINE",
"264 276 LINE SMOOTH",
"137 276 OFFCURVE",
"59 224 OFFCURVE",
"59 128 CURVE SMOOTH",
"59 26 OFFCURVE",
"143 -8 OFFCURVE",
"221 -8 CURVE SMOOTH"
);
},
{
closed = 1;
nodes = (
"143 13 OFFCURVE",
"81 49 OFFCURVE",
"81 129 CURVE SMOOTH",
"81 213 OFFCURVE",
"156 255 OFFCURVE",
"261 255 CURVE SMOOTH",
"394 255 LINE",
"394 142 LINE",
"394 52 OFFCURVE",
"304 13 OFFCURVE",
"220 13 CURVE SMOOTH"
);
},
{
closed = 1;
nodes = (
"416 316 OFFCURVE",
"417 347 OFFCURVE",
"420 365 CURVE SMOOTH",
"432 436 OFFCURVE",
"489 487 OFFCURVE",
"571 487 CURVE SMOOTH",
"653 487 OFFCURVE",
"711 436 OFFCURVE",
"724 365 CURVE SMOOTH",
"727 348 OFFCURVE",
"728 313 OFFCURVE",
"728 276 CURVE",
"416 276 LINE"
);
}
);
width = 827;
},
{
layerId = "FFFA8D72-12AC-4CE0-B2CA-57A29829F4DA";
paths = (
{
closed = 1;
nodes = (
"327 -8 OFFCURVE",
"400 34 OFFCURVE",
"426 83 CURVE",
"447 34 OFFCURVE",
"517 -8 OFFCURVE",
"609 -8 CURVE SMOOTH",
"690 -8 OFFCURVE",
"759 24 OFFCURVE",
"814 81 CURVE",
"727 187 LINE",
"706 162 OFFCURVE",
"668 149 OFFCURVE",
"620 149 CURVE SMOOTH",
"576 149 OFFCURVE",
"540 160 OFFCURVE",
"527 193 CURVE SMOOTH",
"524 201 OFFCURVE",
"523 206 OFFCURVE",
"523 208 CURVE",
"838 208 LINE",
"838 302 OFFCURVE",
"829 344 OFFCURVE",
"819 372 CURVE SMOOTH",
"784 469 OFFCURVE",
"682 528 OFFCURVE",
"591 528 CURVE SMOOTH",
"514 528 OFFCURVE",
"455 485 OFFCURVE",
"434 450 CURVE",
"405 492 OFFCURVE",
"336 528 OFFCURVE",
"255 528 CURVE SMOOTH",
"138 528 OFFCURVE",
"28 452 OFFCURVE",
"28 356 CURVE",
"216 332 LINE",
"217 352 OFFCURVE",
"240 367 OFFCURVE",
"272 367 CURVE SMOOTH",
"307 367 OFFCURVE",
"329 348 OFFCURVE",
"329 320 CURVE SMOOTH",
"329 305 LINE",
"231 305 LINE SMOOTH",
"92 305 OFFCURVE",
"23 242 OFFCURVE",
"23 150 CURVE SMOOTH",
"23 50 OFFCURVE",
"105 -8 OFFCURVE",
"225 -8 CURVE SMOOTH"
);
},
{
closed = 1;
nodes = (
"224 120 OFFCURVE",
"211 144 OFFCURVE",
"211 164 CURVE SMOOTH",
"211 190 OFFCURVE",
"233 208 OFFCURVE",
"274 208 CURVE SMOOTH",
"329 208 LINE",
"329 184 LINE SMOOTH",
"329 147 OFFCURVE",
"296 120 OFFCURVE",
"259 120 CURVE SMOOTH"
);
},
{
closed = 1;
nodes = (
"522 313 OFFCURVE",
"524 320 OFFCURVE",
"527 327 CURVE",
"536 351 OFFCURVE",
"556 367 OFFCURVE",
"583 367 CURVE SMOOTH",
"611 367 OFFCURVE",
"629 351 OFFCURVE",
"639 327 CURVE SMOOTH",
"642 320 OFFCURVE",
"644 313 OFFCURVE",
"645 305 CURVE",
"521 305 LINE"
);
}
);
width = 867;
},
{
layerId = "DCBE1F7B-116A-43E0-B7B4-8657BA77D8B5";
paths = (
{
closed = 1;
nodes = (
"229 -8 OFFCURVE",
"286 21 OFFCURVE",
"306 87 CURVE",
"322 30 OFFCURVE",
"370 -8 OFFCURVE",
"433 -8 CURVE SMOOTH",
"504 -8 OFFCURVE",
"556 40 OFFCURVE",
"566 109 CURVE",
"544 108 LINE",
"534 51 OFFCURVE",
"491 13 OFFCURVE",
"433 13 CURVE SMOOTH",
"367 13 OFFCURVE",
"321 63 OFFCURVE",
"321 135 CURVE SMOOTH",
"321 175 OFFCURVE",
"321 214 OFFCURVE",
"321 254 CURVE",
"568 254 LINE",
"568 291 OFFCURVE",
"568 328 OFFCURVE",
"568 365 CURVE SMOOTH",
"568 448 OFFCURVE",
"513 508 OFFCURVE",
"433 508 CURVE SMOOTH",
"374 508 OFFCURVE",
"328 474 OFFCURVE",
"309 422 CURVE",
"290 476 OFFCURVE",
"250 508 OFFCURVE",
"190 508 CURVE SMOOTH",
"121 508 OFFCURVE",
"60 461 OFFCURVE",
"57 388 CURVE",
"80 385 LINE",
"80 446 OFFCURVE",
"132 487 OFFCURVE",
"189 487 CURVE SMOOTH",
"261 487 OFFCURVE",
"298 430 OFFCURVE",
"298 345 CURVE SMOOTH",
"298 274 LINE",
"201 274 LINE SMOOTH",
"112 274 OFFCURVE",
"47 236 OFFCURVE",
"47 126 CURVE SMOOTH",
"47 18 OFFCURVE",
"111 -8 OFFCURVE",
"168 -8 CURVE SMOOTH"
);
},
{
closed = 1;
nodes = (
"114 13 OFFCURVE",
"69 45 OFFCURVE",
"69 127 CURVE SMOOTH",
"69 219 OFFCURVE",
"125 253 OFFCURVE",
"203 253 CURVE SMOOTH",
"298 253 LINE",
"298 142 LINE SMOOTH",
"298 52 OFFCURVE",
"234 13 OFFCURVE",
"171 13 CURVE SMOOTH"
);
},
{
closed = 1;
nodes = (
"321 304 OFFCURVE",
"321 334 OFFCURVE",
"321 365 CURVE SMOOTH",
"321 437 OFFCURVE",
"367 487 OFFCURVE",
"433 487 CURVE SMOOTH",
"500 487 OFFCURVE",
"546 437 OFFCURVE",
"546 365 CURVE SMOOTH",
"546 334 OFFCURVE",
"546 304 OFFCURVE",
"546 273 CURVE",
"321 273 LINE"
);
}
);
width = 629;
},
{
layerId = "4E2227F3-52E4-4048-A8EE-327B486EF0A4";
paths = (
{
closed = 1;
nodes = (
"282 -8 OFFCURVE",
"353 22 OFFCURVE",
"359 47 CURVE",
"363 23 OFFCURVE",
"418 -8 OFFCURVE",
"504 -8 CURVE SMOOTH",
"627 -8 OFFCURVE",
"693 55 OFFCURVE",
"696 171 CURVE",
"513 182 LINE",
"513 176 OFFCURVE",
"507 153 OFFCURVE",
"488 153 CURVE SMOOTH",
"474 153 OFFCURVE",
"465 166 OFFCURVE",
"465 185 CURVE SMOOTH",
"465 194 OFFCURVE",
"465 189 OFFCURVE",
"465 198 CURVE",
"698 198 LINE",
"698 244 OFFCURVE",
"698 304 OFFCURVE",
"698 350 CURVE SMOOTH",
"698 456 OFFCURVE",
"619 528 OFFCURVE",
"495 528 CURVE SMOOTH",
"436 528 OFFCURVE",
"392 512 OFFCURVE",
"359 489 CURVE",
"321 514 OFFCURVE",
"285 528 OFFCURVE",
"232 528 CURVE SMOOTH",
"113 528 OFFCURVE",
"22 459 OFFCURVE",
"22 341 CURVE",
"211 337 LINE",
"211 355 OFFCURVE",
"222 367 OFFCURVE",
"238 367 CURVE SMOOTH",
"254 367 OFFCURVE",
"266 355 OFFCURVE",
"266 337 CURVE SMOOTH",
"266 305 LINE",
"226 305 LINE SMOOTH",
"101 305 OFFCURVE",
"17 289 OFFCURVE",
"17 153 CURVE SMOOTH",
"17 3 OFFCURVE",
"120 -8 OFFCURVE",
"184 -8 CURVE SMOOTH"
);
},
{
closed = 1;
nodes = (
"221 125 OFFCURVE",
"209 134 OFFCURVE",
"209 158 CURVE SMOOTH",
"209 183 OFFCURVE",
"221 198 OFFCURVE",
"240 198 CURVE SMOOTH",
"266 198 LINE",
"266 152 LINE SMOOTH",
"266 135 OFFCURVE",
"248 125 OFFCURVE",
"234 125 CURVE SMOOTH"
);
},
{
closed = 1;
nodes = (
"465 315 OFFCURVE",
"465 325 OFFCURVE",
"465 335 CURVE SMOOTH",
"465 354 OFFCURVE",
"474 367 OFFCURVE",
"488 367 CURVE SMOOTH",
"501 367 OFFCURVE",
"510 354 OFFCURVE",
"510 335 CURVE SMOOTH",
"510 325 OFFCURVE",
"510 315 OFFCURVE",
"510 305 CURVE",
"465 305 LINE"
);
}
);
width = 719;
},
{
associatedMasterId = "262880E7-CFE1-4BDA-902E-E24798F3240A";
hints = (
{
horizontal = 1;
origin = "{1, 5}";
target = "{0, 43}";
},
{
horizontal = 1;
origin = "{0, 49}";
target = "{1, 10}";
},
{
origin = "{0, 46}";
target = "{1, 2}";
},
{
origin = "{1, 7}";
target = "{0, 15}";
},
{
horizontal = 1;
origin = "{0, 31}";
target = "{0, 38}";
},
{
origin = "{0, 34}";
target = "{0, 35}";
},
{
origin = "{1, 6}";
target = "{0, 18}";
},
{
origin = "{2, 11}";
target = "{0, 19}";
},
{
horizontal = 1;
place = "{215, 0}";
},
{
horizontal = 1;
origin = "{0, 25}";
target = "{2, 5}";
},
{
horizontal = 1;
origin = "{0, 5}";
target = "{0, 12}";
},
{
origin = "{0, 9}";
target = "{0, 8}";
}
);
layerId = "E7B60026-6285-4AF7-81D0-E2C0967E1F1B";
name = "{100,5}";
paths = (
{
closed = 1;
nodes = (
"312 -8 OFFCURVE",
"384 24 OFFCURVE",
"415 74 CURVE",
"442 28 OFFCURVE",
"505 -8 OFFCURVE",
"581 -8 CURVE SMOOTH",
"684 -8 OFFCURVE",
"757 50 OFFCURVE",
"782 111 CURVE",
"712 156 LINE",
"691 111 OFFCURVE",
"657 86 OFFCURVE",
"595 86 CURVE SMOOTH",
"528 86 OFFCURVE",
"474 115 OFFCURVE",
"468 176 CURVE",
"467 195 OFFCURVE",
"466 194 OFFCURVE",
"466 215 CURVE",
"789 215 LINE",
"789 305 OFFCURVE",
"785 347 OFFCURVE",
"777 375 CURVE SMOOTH",
"752 463 OFFCURVE",
"669 517 OFFCURVE",
"579 517 CURVE SMOOTH",
"504 517 OFFCURVE",
"442 470 OFFCURVE",
"421 430 CURVE",
"401 474 OFFCURVE",
"337 517 OFFCURVE",
"256 517 CURVE SMOOTH",
"147 517 OFFCURVE",
"62 457 OFFCURVE",
"57 375 CURVE",
"157 362 LINE",
"161 404 OFFCURVE",
"201 431 OFFCURVE",
"259 431 CURVE SMOOTH",
"332 431 OFFCURVE",
"364 389 OFFCURVE",
"364 333 CURVE SMOOTH",
"364 299 LINE",
"249 299 LINE SMOOTH",
"116 299 OFFCURVE",
"42 233 OFFCURVE",
"42 135 CURVE SMOOTH",
"42 31 OFFCURVE",
"126 -8 OFFCURVE",
"227 -8 CURVE SMOOTH"
);
},
{
closed = 1;
nodes = (
"181 71 OFFCURVE",
"142 99 OFFCURVE",
"142 143 CURVE SMOOTH",
"142 193 OFFCURVE",
"192 215 OFFCURVE",
"267 215 CURVE SMOOTH",
"364 215 LINE",
"364 170 LINE",
"364 102 OFFCURVE",
"301 71 OFFCURVE",
"239 71 CURVE SMOOTH"
);
},
{
closed = 1;
nodes = (
"466 319 OFFCURVE",
"467 334 OFFCURVE",
"470 347 CURVE SMOOTH",
"481 396 OFFCURVE",
"521 431 OFFCURVE",
"577 431 CURVE SMOOTH",
"634 431 OFFCURVE",
"674 395 OFFCURVE",
"685 347 CURVE SMOOTH",
"688 335 OFFCURVE",
"689 317 OFFCURVE",
"690 299 CURVE",
"465 299 LINE"
);
}
);
width = 843;
},
{
associatedMasterId = "262880E7-CFE1-4BDA-902E-E24798F3240A";
layerId = "29303AE9-139B-4911-9A39-4D32E7983952";
name = "{100,3}";
paths = (
{
closed = 1;
nodes = (
"254 -8 OFFCURVE",
"317 25 OFFCURVE",
"331 64 CURVE",
"341 31 OFFCURVE",
"392 -8 OFFCURVE",
"466 -8 CURVE SMOOTH",
"561 -8 OFFCURVE",
"620 47 OFFCURVE",
"627 138 CURVE",
"530 150 LINE",
"524 116 OFFCURVE",
"498 85 OFFCURVE",
"459 85 CURVE SMOOTH",
"417 85 OFFCURVE",
"388 118 OFFCURVE",
"388 158 CURVE SMOOTH",
"388 174 OFFCURVE",
"388 188 OFFCURVE",
"388 214 CURVE",
"629 214 LINE",
"629 255 OFFCURVE",
"629 317 OFFCURVE",
"629 358 CURVE SMOOTH",
"629 452 OFFCURVE",
"562 517 OFFCURVE",
"462 517 CURVE SMOOTH",
"403 517 OFFCURVE",
"358 492 OFFCURVE",
"332 453 CURVE",
"304 494 OFFCURVE",
"266 517 OFFCURVE",
"210 517 CURVE SMOOTH",
"117 517 OFFCURVE",
"42 460 OFFCURVE",
"41 366 CURVE",
"141 363 LINE",
"141 404 OFFCURVE",
"174 431 OFFCURVE",
"212 431 CURVE SMOOTH",
"258 431 OFFCURVE",
"283 395 OFFCURVE",
"283 341 CURVE SMOOTH",
"283 298 LINE",
"213 298 LINE SMOOTH",
"107 298 OFFCURVE",
"33 261 OFFCURVE",
"33 139 CURVE SMOOTH",
"33 11 OFFCURVE",
"115 -8 OFFCURVE",
"175 -8 CURVE SMOOTH"
);
},
{
closed = 1;
nodes = (
"164 72 OFFCURVE",
"134 94 OFFCURVE",
"134 141 CURVE SMOOTH",
"134 188 OFFCURVE",
"170 213 OFFCURVE",
"220 213 CURVE SMOOTH",
"283 213 LINE",
"283 147 LINE SMOOTH",
"283 98 OFFCURVE",
"241 72 OFFCURVE",
"200 72 CURVE SMOOTH"
);
},
{
closed = 1;
nodes = (
"388 319 OFFCURVE",
"388 330 OFFCURVE",
"388 351 CURVE SMOOTH",
"388 398 OFFCURVE",
"417 431 OFFCURVE",
"459 431 CURVE SMOOTH",
"500 431 OFFCURVE",
"529 398 OFFCURVE",
"529 351 CURVE SMOOTH",
"529 330 OFFCURVE",
"529 319 OFFCURVE",
"529 298 CURVE",
"388 298 LINE"
);
}
);
width = 671;
}
);
leftMetricsKey = "=a+5";
rightMetricsKey = "=e+5";
unicode = 00E6;
},
{
glyphname = b;
lastChange = "2017-04-27 09:59:18 +0000";
layers = (
{
components = (
{
name = b.bowl;
transform = "{1, 0, 0, 1, 101, 0}";
}
);
hints = (
{
origin = "{0, 2}";
target = "{0, 1}";
}
);
layerId = "262880E7-CFE1-4BDA-902E-E24798F3240A";
paths = (
{
closed = 1;
nodes = (
"121 0 LINE",
"121 700 LINE",
"99 700 LINE",
"99 0 LINE"
);
}
);
width = 531;
},
{
components = (
{
name = b.bowl;
transform = "{1, 0, 0, 1, 176, 0}";
}
);
layerId = "4E2227F3-52E4-4048-A8EE-327B486EF0A4";
paths = (
{
closed = 1;
nodes = (
"210 0 LINE",
"210 700 LINE",
"22 700 LINE",
"22 0 LINE"
);
}
);
width = 461;
},
{
components = (
{
name = b.bowl;
transform = "{1, 0, 0, 1, 165, 0}";
}
);
layerId = "FFFA8D72-12AC-4CE0-B2CA-57A29829F4DA";
paths = (
{
closed = 1;
nodes = (
"224 0 LINE",
"224 700 LINE",
"36 700 LINE",
"36 0 LINE"
);
}
);
width = 549;
},
{
components = (
{
name = b.bowl;
transform = "{1, 0, 0, 1, 84, 0}";
}
);
layerId = "DCBE1F7B-116A-43E0-B7B4-8657BA77D8B5";
paths = (
{
closed = 1;
nodes = (
"99 0 LINE",
"99 700 LINE",
"77 700 LINE",
"77 0 LINE"
);
}
);
width = 407;
},
{
associatedMasterId = "4E2227F3-52E4-4048-A8EE-327B486EF0A4";
components = (
{
name = b.bowl;
transform = "{1, 0, 0, 1, 171, 0}";
}
);
layerId = "AEAAB38B-CBBB-4137-95BA-ED9BF5F9A87D";
name = "{188,4}";
paths = (
{
closed = 1;
nodes = (
"217 0 LINE",
"217 700 LINE",
"29 700 LINE",
"29 0 LINE"
);
}
);
width = 507;
}
);
leftKerningGroup = b;
rightKerningGroup = n;
unicode = 0062;
},
{
color = 3;
glyphname = c;
lastChange = "2017-04-25 02:48:53 +0000";
layers = (
{
anchors = (
{
name = bottom;
position = "{246, -8}";
},
{
name = top;
position = "{258, 508}";
}
);
hints = (
{
origin = "{0, 43}";
target = "{0, 18}";
},
{
horizontal = 1;
origin = "{0, 49}";
target = "{0, 12}";
},
{
horizontal = 1;
origin = "{0, 37}";
target = "{0, 24}";
},
{
origin = "{0, 30}";
target = "{0, 31}";
}
);
layerId = "262880E7-CFE1-4BDA-902E-E24798F3240A";
paths = (
{
closed = 1;
nodes = (
"348 -8 OFFCURVE",
"417 45 OFFCURVE",
"431 113 CURVE SMOOTH",
"433 124 OFFCURVE",
"433 129 OFFCURVE",
"434 137 CURVE",
"413 139 LINE",
"411 131 OFFCURVE",
"412 131 OFFCURVE",
"411 125 CURVE SMOOTH",
"400 64 OFFCURVE",
"340 13 OFFCURVE",
"258 13 CURVE SMOOTH",
"176 13 OFFCURVE",
"120 63 OFFCURVE",
"107 135 CURVE SMOOTH",
"103 156 OFFCURVE",
"103 193 OFFCURVE",
"103 250 CURVE SMOOTH",
"103 302 OFFCURVE",
"103 343 OFFCURVE",
"107 365 CURVE SMOOTH",
"120 436 OFFCURVE",
"176 487 OFFCURVE",
"258 487 CURVE SMOOTH",
"340 487 OFFCURVE",
"399 436 OFFCURVE",
"411 375 CURVE SMOOTH",
"412 369 OFFCURVE",
"413 361 OFFCURVE",
"414 352 CURVE",
"436 353 LINE",
"435 363 OFFCURVE",
"433 376 OFFCURVE",
"431 387 CURVE SMOOTH",
"418 455 OFFCURVE",
"348 508 OFFCURVE",
"258 508 CURVE SMOOTH",
"169 508 OFFCURVE",
"105 454 OFFCURVE",
"88 377 CURVE SMOOTH",
"80 345 OFFCURVE",
"81 310 OFFCURVE",
"81 251 CURVE SMOOTH",
"81 195 OFFCURVE",
"80 156 OFFCURVE",
"88 123 CURVE SMOOTH",
"106 46 OFFCURVE",
"169 -8 OFFCURVE",
"258 -8 CURVE SMOOTH"
);
}
);
width = 508;
},
{
anchors = (
{
name = bottom;
position = "{229, -8}";
},
{
name = top;
position = "{229, 532}";
}
);
layerId = "4E2227F3-52E4-4048-A8EE-327B486EF0A4";
paths = (
{
closed = 1;
nodes = (
"363 -8 OFFCURVE",
"439 57 OFFCURVE",
"439 170 CURVE SMOOTH",
"439 181 OFFCURVE",
"439 197 OFFCURVE",
"439 213 CURVE",
"251 215 LINE",
"251 205 OFFCURVE",
"251 195 OFFCURVE",
"251 185 CURVE SMOOTH",
"251 166 OFFCURVE",
"242 153 OFFCURVE",
"229 153 CURVE SMOOTH",
"215 153 OFFCURVE",
"206 166 OFFCURVE",
"206 185 CURVE SMOOTH",
"206 210 OFFCURVE",
"206 235 OFFCURVE",
"206 260 CURVE SMOOTH",
"206 285 OFFCURVE",
"206 310 OFFCURVE",
"206 335 CURVE SMOOTH",
"206 354 OFFCURVE",
"215 367 OFFCURVE",
"229 367 CURVE SMOOTH",
"242 367 OFFCURVE",
"251 354 OFFCURVE",
"251 335 CURVE SMOOTH",
"251 325 OFFCURVE",
"251 316 OFFCURVE",
"251 306 CURVE",
"439 313 LINE",
"439 327 OFFCURVE",
"439 340 OFFCURVE",
"439 350 CURVE SMOOTH",
"439 456 OFFCURVE",
"363 528 OFFCURVE",
"229 528 CURVE SMOOTH",
"95 528 OFFCURVE",
"18 456 OFFCURVE",
"18 350 CURVE SMOOTH",
"18 327 OFFCURVE",
"18 283 OFFCURVE",
"18 260 CURVE SMOOTH",
"18 237 OFFCURVE",
"18 193 OFFCURVE",
"18 170 CURVE SMOOTH",
"18 57 OFFCURVE",
"95 -8 OFFCURVE",
"229 -8 CURVE SMOOTH"
);
}
);
width = 455;
},
{
anchors = (
{
name = bottom;
position = "{281, -8}";
},
{
name = top;
position = "{281, 528}";
}
);
layerId = "FFFA8D72-12AC-4CE0-B2CA-57A29829F4DA";
paths = (
{
closed = 1;
nodes = (
"391 -8 OFFCURVE",
"485 46 OFFCURVE",
"521 144 CURVE SMOOTH",
"528 164 OFFCURVE",
"529 185 OFFCURVE",
"529 189 CURVE",
"344 219 LINE",
"343 208 OFFCURVE",
"342 202 OFFCURVE",
"341 199 CURVE SMOOTH",
"331 167 OFFCURVE",
"308 153 OFFCURVE",
"284 153 CURVE SMOOTH",
"259 153 OFFCURVE",
"236 169 OFFCURVE",
"227 193 CURVE SMOOTH",
"220 211 OFFCURVE",
"217 234 OFFCURVE",
"217 262 CURVE SMOOTH",
"217 288 OFFCURVE",
"220 310 OFFCURVE",
"227 327 CURVE SMOOTH",
"237 351 OFFCURVE",
"260 367 OFFCURVE",
"284 367 CURVE SMOOTH",
"311 367 OFFCURVE",
"334 349 OFFCURVE",
"341 327 CURVE SMOOTH",
"344 318 OFFCURVE",
"346 305 OFFCURVE",
"347 298 CURVE",
"531 327 LINE",
"531 329 OFFCURVE",
"532 349 OFFCURVE",
"521 379 CURVE SMOOTH",
"491 462 OFFCURVE",
"399 528 OFFCURVE",
"285 528 CURVE SMOOTH",
"175 528 OFFCURVE",
"84 471 OFFCURVE",
"47 376 CURVE SMOOTH",
"36 348 OFFCURVE",
"27 310 OFFCURVE",
"27 263 CURVE SMOOTH",
"27 225 OFFCURVE",
"33 185 OFFCURVE",
"47 149 CURVE SMOOTH",
"85 51 OFFCURVE",
"174 -8 OFFCURVE",
"285 -8 CURVE SMOOTH"
);
}
);
width = 555;
},
{
anchors = (
{
name = bottom;
position = "{197, -8}";
},
{
name = top;
position = "{197, 508}";
}
);
layerId = "DCBE1F7B-116A-43E0-B7B4-8657BA77D8B5";
paths = (
{
closed = 1;
nodes = (
"277 -8 OFFCURVE",
"332 52 OFFCURVE",
"332 115 CURVE SMOOTH",
"332 117 OFFCURVE",
"332 125 OFFCURVE",
"332 127 CURVE",
"310 127 LINE",
"310 125 OFFCURVE",
"310 117 OFFCURVE",
"310 115 CURVE SMOOTH",
"310 63 OFFCURVE",
"264 13 OFFCURVE",
"197 13 CURVE SMOOTH",
"131 13 OFFCURVE",
"85 63 OFFCURVE",
"85 135 CURVE SMOOTH",
"85 173 OFFCURVE",
"85 212 OFFCURVE",
"85 250 CURVE SMOOTH",
"85 288 OFFCURVE",
"85 327 OFFCURVE",
"85 365 CURVE SMOOTH",
"85 437 OFFCURVE",
"131 487 OFFCURVE",
"197 487 CURVE SMOOTH",
"264 487 OFFCURVE",
"310 437 OFFCURVE",
"310 385 CURVE SMOOTH",
"310 383 OFFCURVE",
"310 375 OFFCURVE",
"310 373 CURVE",
"332 373 LINE",
"332 374 OFFCURVE",
"332 384 OFFCURVE",
"332 385 CURVE SMOOTH",
"332 448 OFFCURVE",
"277 508 OFFCURVE",
"197 508 CURVE SMOOTH",
"118 508 OFFCURVE",
"63 448 OFFCURVE",
"63 365 CURVE SMOOTH",
"63 327 OFFCURVE",
"63 288 OFFCURVE",
"63 250 CURVE SMOOTH",
"63 212 OFFCURVE",
"63 173 OFFCURVE",
"63 135 CURVE SMOOTH",
"63 52 OFFCURVE",
"118 -8 OFFCURVE",
"197 -8 CURVE SMOOTH"
);
}
);
width = 388;
},
{
anchors = (
{
name = top;
position = "{260, 528}";
}
);
associatedMasterId = "FFFA8D72-12AC-4CE0-B2CA-57A29829F4DA";
layerId = "0E7C393E-0635-473F-B31A-CAEFC4379571";
name = "Feb 24 17, 16:06";
paths = (
{
closed = 1;
nodes = (
"372 -8 OFFCURVE",
"454 49 OFFCURVE",
"490 144 CURVE SMOOTH",
"497 163 OFFCURVE",
"502 183 OFFCURVE",
"505 204 CURVE",
"319 219 LINE",
"317 206 OFFCURVE",
"314 195 OFFCURVE",
"310 185 CURVE SMOOTH",
"302 165 OFFCURVE",
"285 153 OFFCURVE",
"260 153 CURVE SMOOTH",
"235 153 OFFCURVE",
"219 165 OFFCURVE",
"210 185 CURVE SMOOTH",
"201 205 OFFCURVE",
"198 232 OFFCURVE",
"198 262 CURVE SMOOTH",
"198 298 OFFCURVE",
"200 316 OFFCURVE",
"210 336 CURVE SMOOTH",
"220 355 OFFCURVE",
"235 367 OFFCURVE",
"260 367 CURVE SMOOTH",
"285 367 OFFCURVE",
"300 355 OFFCURVE",
"310 336 CURVE SMOOTH",
"316 324 OFFCURVE",
"319 309 OFFCURVE",
"321 295 CURVE",
"507 315 LINE",
"503 338 OFFCURVE",
"498 360 OFFCURVE",
"490 381 CURVE SMOOTH",
"454 476 OFFCURVE",
"372 528 OFFCURVE",
"260 528 CURVE SMOOTH",
"148 528 OFFCURVE",
"66 476 OFFCURVE",
"30 381 CURVE SMOOTH",
"17 346 OFFCURVE",
"10 307 OFFCURVE",
"10 263 CURVE SMOOTH",
"10 219 OFFCURVE",
"17 179 OFFCURVE",
"30 144 CURVE SMOOTH",
"66 49 OFFCURVE",
"148 -8 OFFCURVE",
"260 -8 CURVE SMOOTH"
);
}
);
width = 515;
},
{
anchors = (
{
name = top;
position = "{223, 532}";
}
);
associatedMasterId = "4E2227F3-52E4-4048-A8EE-327B486EF0A4";
layerId = "A66C9DAC-E233-43FD-8EF1-F60ACA1546F6";
name = "Mar 6 17, 05:00";
paths = (
{
closed = 1;
nodes = (
"359 -8 OFFCURVE",
"435 57 OFFCURVE",
"435 170 CURVE SMOOTH",
"435 180 OFFCURVE",
"435 194 OFFCURVE",
"435 209 CURVE",
"247 214 LINE",
"246 184 OFFCURVE",
"245 171 OFFCURVE",
"241 163 CURVE SMOOTH",
"238 157 OFFCURVE",
"231 153 OFFCURVE",
"223 153 CURVE SMOOTH",
"215 153 OFFCURVE",
"207 157 OFFCURVE",
"204 163 CURVE SMOOTH",
"198 174 OFFCURVE",
"198 194 OFFCURVE",
"198 260 CURVE SMOOTH",
"198 332 OFFCURVE",
"197 348 OFFCURVE",
"204 360 CURVE SMOOTH",
"208 366 OFFCURVE",
"214 371 OFFCURVE",
"223 371 CURVE SMOOTH",
"231 371 OFFCURVE",
"238 366 OFFCURVE",
"241 360 CURVE SMOOTH",
"245 351 OFFCURVE",
"247 340 OFFCURVE",
"247 305 CURVE",
"435 311 LINE",
"435 326 OFFCURVE",
"435 340 OFFCURVE",
"435 350 CURVE SMOOTH",
"435 456 OFFCURVE",
"359 532 OFFCURVE",
"223 532 CURVE SMOOTH",
"87 532 OFFCURVE",
"10 456 OFFCURVE",
"10 350 CURVE SMOOTH",
"10 327 OFFCURVE",
"10 283 OFFCURVE",
"10 260 CURVE SMOOTH",
"10 237 OFFCURVE",
"10 193 OFFCURVE",
"10 170 CURVE SMOOTH",
"10 57 OFFCURVE",
"87 -8 OFFCURVE",
"223 -8 CURVE SMOOTH"
);
}
);
width = 443;
},
{
anchors = (
{
name = bottom;
position = "{267, -8}";
},
{
name = top;
position = "{270, 517}";
}
);
associatedMasterId = "FFFA8D72-12AC-4CE0-B2CA-57A29829F4DA";
hints = (
{
origin = "{0, 43}";
target = "{0, 18}";
},
{
horizontal = 1;
origin = "{0, 49}";
target = "{0, 12}";
},
{
horizontal = 1;
origin = "{0, 37}";
target = "{0, 24}";
},
{
origin = "{0, 30}";
target = "{0, 31}";
}
);
layerId = "61FC974D-32B2-4EBB-9AC3-8FEB0E22D734";
name = "{100,5}";
paths = (
{
closed = 1;
nodes = (
"372 -8 OFFCURVE",
"448 42 OFFCURVE",
"472 127 CURVE SMOOTH",
"473 131 OFFCURVE",
"475 141 OFFCURVE",
"478 152 CURVE",
"380 169 LINE",
"379 166 OFFCURVE",
"378 161 OFFCURVE",
"377 157 CURVE SMOOTH",
"361 107 OFFCURVE",
"320 78 OFFCURVE",
"268 78 CURVE SMOOTH",
"221 78 OFFCURVE",
"184 108 OFFCURVE",
"169 159 CURVE SMOOTH",
"161 188 OFFCURVE",
"156 223 OFFCURVE",
"156 255 CURVE SMOOTH",
"156 288 OFFCURVE",
"161 323 OFFCURVE",
"169 349 CURVE SMOOTH",
"185 401 OFFCURVE",
"222 431 OFFCURVE",
"270 431 CURVE SMOOTH",
"321 431 OFFCURVE",
"360 402 OFFCURVE",
"377 353 CURVE SMOOTH",
"378 350 OFFCURVE",
"380 343 OFFCURVE",
"381 334 CURVE",
"479 350 LINE",
"475 369 OFFCURVE",
"473 381 OFFCURVE",
"472 383 CURVE SMOOTH",
"445 467 OFFCURVE",
"369 517 OFFCURVE",
"268 517 CURVE SMOOTH",
"175 517 OFFCURVE",
"103 466 OFFCURVE",
"74 378 CURVE SMOOTH",
"63 344 OFFCURVE",
"56 299 OFFCURVE",
"56 256 CURVE SMOOTH",
"56 214 OFFCURVE",
"63 169 OFFCURVE",
"74 134 CURVE SMOOTH",
"103 45 OFFCURVE",
"175 -8 OFFCURVE",
"267 -8 CURVE SMOOTH"
);
}
);
width = 529;
},
{
anchors = (
{
name = bottom;
position = "{257, -8}";
},
{
name = top;
position = "{256, 530}";
}
);
associatedMasterId = "4E2227F3-52E4-4048-A8EE-327B486EF0A4";
layerId = "A708B374-6D5B-4775-AA6A-F8146B244141";
name = "{188,4}";
paths = (
{
closed = 1;
nodes = (
"377 -8 OFFCURVE",
"462 52 OFFCURVE",
"480 157 CURVE SMOOTH",
"484 173 OFFCURVE",
"484 191 OFFCURVE",
"484 201 CURVE",
"298 217 LINE",
"297 203 OFFCURVE",
"295 189 OFFCURVE",
"291 177 CURVE SMOOTH",
"286 163 OFFCURVE",
"276 153 OFFCURVE",
"257 153 CURVE SMOOTH",
"234 153 OFFCURVE",
"223 167 OFFCURVE",
"217 189 CURVE SMOOTH",
"212 209 OFFCURVE",
"212 235 OFFCURVE",
"212 261 CURVE SMOOTH",
"212 287 OFFCURVE",
"213 310 OFFCURVE",
"217 331 CURVE SMOOTH",
"222 353 OFFCURVE",
"238 367 OFFCURVE",
"257 367 CURVE SMOOTH",
"278 367 OFFCURVE",
"290 354 OFFCURVE",
"296 332 CURVE SMOOTH",
"298 323 OFFCURVE",
"299 313 OFFCURVE",
"299 302 CURVE",
"485 320 LINE",
"485 328 OFFCURVE",
"486 345 OFFCURVE",
"480 365 CURVE SMOOTH",
"465 459 OFFCURVE",
"381 528 OFFCURVE",
"257 528 CURVE SMOOTH",
"135 528 OFFCURVE",
"51 464 OFFCURVE",
"33 363 CURVE SMOOTH",
"27 338 OFFCURVE",
"23 297 OFFCURVE",
"23 262 CURVE SMOOTH",
"23 231 OFFCURVE",
"26 189 OFFCURVE",
"33 160 CURVE SMOOTH",
"52 54 OFFCURVE",
"135 -8 OFFCURVE",
"257 -8 CURVE SMOOTH"
);
}
);
width = 505;
},
{
anchors = (
{
name = bottom;
position = "{285, -8}";
},
{
name = top;
position = "{282, 528}";
}
);
associatedMasterId = "FFFA8D72-12AC-4CE0-B2CA-57A29829F4DA";
layerId = "25481B12-31C4-41DE-BA37-A1D24E36589F";
name = "Apr 20 17, 01:36";
paths = (
{
closed = 1;
nodes = (
"391 -8 OFFCURVE",
"485 46 OFFCURVE",
"521 144 CURVE SMOOTH",
"528 164 OFFCURVE",
"529 185 OFFCURVE",
"529 189 CURVE",
"344 219 LINE",
"343 208 OFFCURVE",
"342 202 OFFCURVE",
"341 199 CURVE SMOOTH",
"331 167 OFFCURVE",
"308 153 OFFCURVE",
"284 153 CURVE SMOOTH",
"259 153 OFFCURVE",
"236 169 OFFCURVE",
"227 193 CURVE SMOOTH",
"220 211 OFFCURVE",
"217 234 OFFCURVE",
"217 262 CURVE SMOOTH",
"217 288 OFFCURVE",
"220 310 OFFCURVE",
"227 327 CURVE SMOOTH",
"237 351 OFFCURVE",
"260 367 OFFCURVE",
"284 367 CURVE SMOOTH",
"311 367 OFFCURVE",
"334 349 OFFCURVE",
"341 327 CURVE SMOOTH",
"344 318 OFFCURVE",
"346 305 OFFCURVE",
"347 298 CURVE",
"531 327 LINE",
"531 329 OFFCURVE",
"532 349 OFFCURVE",
"521 379 CURVE SMOOTH",
"491 462 OFFCURVE",
"399 528 OFFCURVE",
"285 528 CURVE SMOOTH",
"175 528 OFFCURVE",
"84 471 OFFCURVE",
"47 376 CURVE SMOOTH",
"36 348 OFFCURVE",
"27 310 OFFCURVE",
"27 263 CURVE SMOOTH",
"27 225 OFFCURVE",
"33 185 OFFCURVE",
"47 149 CURVE SMOOTH",
"85 51 OFFCURVE",
"174 -8 OFFCURVE",
"285 -8 CURVE SMOOTH"
);
}
);
width = 555;
visible = 1;
}
);
leftKerningGroup = o;
rightKerningGroup = c;
unicode = 0063;
},
{
glyphname = eth;
lastChange = "2017-04-28 09:59:40 +0000";
layers = (
{
hints = (
{
horizontal = 1;
origin = "{0, 19}";
},
{
origin = "{0, 25}";
target = "{0, 22}";
},
{
origin = "{0, 15}";
target = "{0, 5}";
},
{
horizontal = 1;
origin = "{0, 31}";
}
);
layerId = "262880E7-CFE1-4BDA-902E-E24798F3240A";
paths = (
{
closed = 1;
nodes = (
"348 -8 OFFCURVE",
"414 46 OFFCURVE",
"431 123 CURVE SMOOTH",
"438 155 OFFCURVE",
"436 191 OFFCURVE",
"436 250 CURVE SMOOTH",
"436 290 OFFCURVE",
"437 321 OFFCURVE",
"435 348 CURVE SMOOTH",
"422 562 OFFCURVE",
"301 642 OFFCURVE",
"227 700 CURVE",
"195 700 LINE",
"281 634 OFFCURVE",
"387 539 OFFCURVE",
"402 427 CURVE",
"409 430 LINE",
"380 478 OFFCURVE",
"325 508 OFFCURVE",
"258 508 CURVE SMOOTH",
"169 508 OFFCURVE",
"105 454 OFFCURVE",
"88 377 CURVE SMOOTH",
"80 345 OFFCURVE",
"81 310 OFFCURVE",
"81 251 CURVE SMOOTH",
"81 195 OFFCURVE",
"80 156 OFFCURVE",
"88 123 CURVE SMOOTH",
"106 46 OFFCURVE",
"168 -8 OFFCURVE",
"258 -8 CURVE SMOOTH"
);
},
{
closed = 1;
nodes = (
"176 13 OFFCURVE",
"120 63 OFFCURVE",
"107 135 CURVE SMOOTH",
"103 156 OFFCURVE",
"103 193 OFFCURVE",
"103 250 CURVE SMOOTH",
"103 302 OFFCURVE",
"103 343 OFFCURVE",
"107 365 CURVE SMOOTH",
"120 436 OFFCURVE",
"176 487 OFFCURVE",
"258 487 CURVE SMOOTH",
"340 487 OFFCURVE",
"398 436 OFFCURVE",
"411 365 CURVE SMOOTH",
"415 344 OFFCURVE",
"414 307 OFFCURVE",
"414 250 CURVE SMOOTH",
"414 198 OFFCURVE",
"415 157 OFFCURVE",
"411 135 CURVE SMOOTH",
"398 64 OFFCURVE",
"340 13 OFFCURVE",
"258 13 CURVE SMOOTH"
);
},
{
closed = 1;
nodes = (
"401 634 LINE",
"395 653 LINE",
"208 589 LINE",
"214 570 LINE"
);
}
);
width = 517;
},
{
layerId = "FFFA8D72-12AC-4CE0-B2CA-57A29829F4DA";
paths = (
{
closed = 1;
nodes = (
"391 -8 OFFCURVE",
"478 49 OFFCURVE",
"515 129 CURVE SMOOTH",
"527 155 OFFCURVE",
"535 189 OFFCURVE",
"535 228 CURVE SMOOTH",
"535 279 OFFCURVE",
"529 328 OFFCURVE",
"517 373 CURVE SMOOTH",
"494 463 OFFCURVE",
"440 551 OFFCURVE",
"327 700 CURVE",
"126 700 LINE",
"211 608 OFFCURVE",
"269 539 OFFCURVE",
"322 420 CURVE",
"332 422 LINE",
"320 463 OFFCURVE",
"176 446 OFFCURVE",
"126 415 CURVE SMOOTH",
"91 393 OFFCURVE",
"64 362 OFFCURVE",
"47 325 CURVE SMOOTH",
"34 296 OFFCURVE",
"27 263 OFFCURVE",
"27 227 CURVE SMOOTH",
"27 192 OFFCURVE",
"33 160 OFFCURVE",
"47 129 CURVE SMOOTH",
"85 45 OFFCURVE",
"173 -8 OFFCURVE",
"281 -8 CURVE SMOOTH"
);
},
{
closed = 1;
nodes = (
"259 132 OFFCURVE",
"241 145 OFFCURVE",
"230 167 CURVE SMOOTH",
"222 183 OFFCURVE",
"217 199 OFFCURVE",
"217 222 CURVE SMOOTH",
"217 243 OFFCURVE",
"221 258 OFFCURVE",
"229 274 CURVE SMOOTH",
"240 296 OFFCURVE",
"259 307 OFFCURVE",
"281 307 CURVE SMOOTH",
"303 307 OFFCURVE",
"320 296 OFFCURVE",
"332 274 CURVE SMOOTH",
"340 259 OFFCURVE",
"345 243 OFFCURVE",
"345 222 CURVE SMOOTH",
"345 199 OFFCURVE",
"340 182 OFFCURVE",
"332 167 CURVE SMOOTH",
"320 145 OFFCURVE",
"303 132 OFFCURVE",
"281 132 CURVE SMOOTH"
);
},
{
closed = 1;
nodes = (
"505 561 LINE",
"481 658 LINE",
"133 572 LINE",
"157 475 LINE"
);
}
);
width = 562;
},
{
layerId = "DCBE1F7B-116A-43E0-B7B4-8657BA77D8B5";
paths = (
{
closed = 1;
nodes = (
"277 -8 OFFCURVE",
"332 52 OFFCURVE",
"332 135 CURVE SMOOTH",
"332 173 OFFCURVE",
"332 212 OFFCURVE",
"332 250 CURVE SMOOTH",
"332 298 OFFCURVE",
"333 327 OFFCURVE",
"332 365 CURVE SMOOTH",
"326 580 OFFCURVE",
"236 660 OFFCURVE",
"190 700 CURVE",
"165 700 LINE",
"223 654 OFFCURVE",
"300 561 OFFCURVE",
"305 443 CURVE",
"308 452 LINE",
"284 487 OFFCURVE",
"244 508 OFFCURVE",
"197 508 CURVE SMOOTH",
"118 508 OFFCURVE",
"63 448 OFFCURVE",
"63 365 CURVE SMOOTH",
"63 327 OFFCURVE",
"63 298 OFFCURVE",
"63 250 CURVE SMOOTH",
"63 212 OFFCURVE",
"63 173 OFFCURVE",
"63 135 CURVE SMOOTH",
"63 52 OFFCURVE",
"118 -8 OFFCURVE",
"197 -8 CURVE SMOOTH"
);
},
{
closed = 1;
nodes = (
"131 13 OFFCURVE",
"85 63 OFFCURVE",
"85 135 CURVE SMOOTH",
"85 173 OFFCURVE",
"85 212 OFFCURVE",
"85 250 CURVE SMOOTH",
"85 298 OFFCURVE",
"85 327 OFFCURVE",
"85 365 CURVE SMOOTH",
"85 437 OFFCURVE",
"131 487 OFFCURVE",
"197 487 CURVE",
"264 487 OFFCURVE",
"310 437 OFFCURVE",
"310 365 CURVE SMOOTH",
"310 327 OFFCURVE",
"310 298 OFFCURVE",
"310 250 CURVE SMOOTH",
"310 212 OFFCURVE",
"310 173 OFFCURVE",
"310 135 CURVE SMOOTH",
"310 63 OFFCURVE",
"264 13 OFFCURVE",
"197 13 CURVE SMOOTH"
);
},
{
closed = 1;
nodes = (
"357 638 LINE",
"351 657 LINE",
"164 593 LINE",
"170 574 LINE"
);
}
);
width = 420;
},
{
layerId = "4E2227F3-52E4-4048-A8EE-327B486EF0A4";
paths = (
{
closed = 1;
nodes = (
"367 -8 OFFCURVE",
"443 57 OFFCURVE",
"443 170 CURVE SMOOTH",
"443 193 OFFCURVE",
"443 217 OFFCURVE",
"443 240 CURVE SMOOTH",
"443 263 OFFCURVE",
"443 287 OFFCURVE",
"443 310 CURVE SMOOTH",
"443 435 OFFCURVE",
"403 550 OFFCURVE",
"299 700 CURVE",
"118 700 LINE",
"199 576 OFFCURVE",
"235 501 OFFCURVE",
"249 452 CURVE",
"261 452 LINE",
"253 465 OFFCURVE",
"253 488 OFFCURVE",
"197 488 CURVE SMOOTH",
"99 488 OFFCURVE",
"18 416 OFFCURVE",
"18 310 CURVE SMOOTH",
"18 287 OFFCURVE",
"18 263 OFFCURVE",
"18 240 CURVE SMOOTH",
"18 217 OFFCURVE",
"18 193 OFFCURVE",
"18 170 CURVE SMOOTH",
"18 57 OFFCURVE",
"95 -8 OFFCURVE",
"231 -8 CURVE SMOOTH"
);
},
{
closed = 1;
nodes = (
"216 153 OFFCURVE",
"206 166 OFFCURVE",
"206 185 CURVE SMOOTH",
"206 210 OFFCURVE",
"206 215 OFFCURVE",
"206 240 CURVE SMOOTH",
"206 265 OFFCURVE",
"206 270 OFFCURVE",
"206 295 CURVE SMOOTH",
"206 314 OFFCURVE",
"216 327 OFFCURVE",
"231 327 CURVE SMOOTH",
"245 327 OFFCURVE",
"255 314 OFFCURVE",
"255 295 CURVE SMOOTH",
"255 270 OFFCURVE",
"255 265 OFFCURVE",
"255 240 CURVE SMOOTH",
"255 215 OFFCURVE",
"255 210 OFFCURVE",
"255 185 CURVE SMOOTH",
"255 166 OFFCURVE",
"245 153 OFFCURVE",
"231 153 CURVE SMOOTH"
);
},
{
closed = 1;
nodes = (
"441 582 LINE",
"424 661 LINE",
"104 585 LINE",
"123 510 LINE"
);
}
);
width = 461;
},
{
associatedMasterId = "FFFA8D72-12AC-4CE0-B2CA-57A29829F4DA";
layerId = "69ED2367-3D6B-49BA-B51E-69D72CE29D64";
name = "Apr 8 17, 03:30";
paths = (
{
closed = 1;
nodes = (
"439 556 LINE SMOOTH",
"445 558 OFFCURVE",
"447 563 OFFCURVE",
"446 569 CURVE",
"422 650 LINE SMOOTH",
"420 656 OFFCURVE",
"415 658 OFFCURVE",
"409 657 CURVE",
"320 631 LINE",
"291 671 LINE",
"286 677 OFFCURVE",
"280 680 OFFCURVE",
"270 680 CURVE SMOOTH",
"96 680 LINE SMOOTH",
"90 680 OFFCURVE",
"88 675 OFFCURVE",
"92 670 CURVE",
"155 582 LINE",
"93 564 LINE",
"87 562 OFFCURVE",
"84 557 OFFCURVE",
"86 552 CURVE",
"110 470 LINE",
"112 464 OFFCURVE",
"117 462 OFFCURVE",
"122 463 CURVE",
"221 492 LINE",
"277 415 LINE",
"275 415 LINE",
"263 421 OFFCURVE",
"244 432 OFFCURVE",
"211 432 CURVE SMOOTH",
"120 432 OFFCURVE",
"60 380 OFFCURVE",
"36 307 CURVE SMOOTH",
"26 277 OFFCURVE",
"23 246 OFFCURVE",
"23 215 CURVE SMOOTH",
"23 184 OFFCURVE",
"27 158 OFFCURVE",
"37 128 CURVE SMOOTH",
"64 45 OFFCURVE",
"146 -12 OFFCURVE",
"273 -12 CURVE SMOOTH",
"393 -12 OFFCURVE",
"479 44 OFFCURVE",
"510 139 CURVE SMOOTH",
"518 164 OFFCURVE",
"523 193 OFFCURVE",
"523 226 CURVE SMOOTH",
"523 327 OFFCURVE",
"493 393 OFFCURVE",
"385 540 CURVE"
);
}
);
width = 562;
visible = 1;
}
);
leftMetricsKey = "=d";
rightMetricsKey = "=a";
unicode = 00F0;
},
{
color = 3;
glyphname = e;
lastChange = "2017-04-25 11:59:19 +0000";
layers = (
{
anchors = (
{
name = top;
position = "{258, 508}";
}
);
hints = (
{
origin = "{0, 40}";
target = "{0, 12}";
},
{
origin = "{0, 24}";
target = "{0, 28}";
},
{
horizontal = 1;
origin = "{0, 28}";
target = "{0, 24}";
},
{
horizontal = 1;
origin = "{0, 34}";
target = "{0, 18}";
},
{
horizontal = 1;
origin = "{0, 46}";
target = "{0, 6}";
},
{
origin = "{0, 3}";
target = "{0, 2}";
}
);
layerId = "262880E7-CFE1-4BDA-902E-E24798F3240A";
paths = (
{
closed = 1;
nodes = (
"346 -8 OFFCURVE",
"410 44 OFFCURVE",
"429 118 CURVE",
"407 117 LINE",
"389 56 OFFCURVE",
"334 13 OFFCURVE",
"258 13 CURVE SMOOTH",
"176 13 OFFCURVE",
"120 63 OFFCURVE",
"107 135 CURVE SMOOTH",
"103 156 OFFCURVE",
"103 193 OFFCURVE",
"103 250 CURVE SMOOTH",
"103 302 OFFCURVE",
"103 343 OFFCURVE",
"107 365 CURVE SMOOTH",
"120 436 OFFCURVE",
"176 487 OFFCURVE",
"258 487 CURVE SMOOTH",
"340 487 OFFCURVE",
"397 436 OFFCURVE",
"411 365 CURVE SMOOTH",
"414 345 OFFCURVE",
"415 302 OFFCURVE",
"415 258 CURVE",
"424 267 LINE",
"93 267 LINE",
"93 249 LINE",
"437 249 LINE",
"437 335 OFFCURVE",
"437 350 OFFCURVE",
"431 377 CURVE SMOOTH",
"413 454 OFFCURVE",
"348 508 OFFCURVE",
"258 508 CURVE SMOOTH",
"169 508 OFFCURVE",
"105 454 OFFCURVE",
"88 377 CURVE SMOOTH",
"80 345 OFFCURVE",
"81 310 OFFCURVE",
"81 251 CURVE SMOOTH",
"81 195 OFFCURVE",
"80 156 OFFCURVE",
"88 123 CURVE SMOOTH",
"106 46 OFFCURVE",
"169 -8 OFFCURVE",
"258 -8 CURVE SMOOTH"
);
}
);
width = 509;
},
{
anchors = (
{
name = top;
position = "{280, 528}";
}
);
guideLines = (
{
position = "{283, 149}";
},
{
position = "{281, 337}";
},
{
position = "{283, 263}";
},
{
position = "{274, 376}";
},
{
position = "{281, 183}";
}
);
layerId = "FFFA8D72-12AC-4CE0-B2CA-57A29829F4DA";
paths = (
{
closed = 1;
nodes = (
"388 -8 OFFCURVE",
"458 23 OFFCURVE",
"513 81 CURVE",
"426 187 LINE",
"405 162 OFFCURVE",
"366 149 OFFCURVE",
"320 149 CURVE SMOOTH",
"268 149 OFFCURVE",
"240 162 OFFCURVE",
"227 193 CURVE SMOOTH",
"219 210 OFFCURVE",
"216 233 OFFCURVE",
"216 262 CURVE SMOOTH",
"216 286 OFFCURVE",
"220 309 OFFCURVE",
"227 327 CURVE SMOOTH",
"237 351 OFFCURVE",
"255 367 OFFCURVE",
"282 367 CURVE SMOOTH",
"310 367 OFFCURVE",
"328 351 OFFCURVE",
"338 327 CURVE SMOOTH",
"345 310 OFFCURVE",
"348 287 OFFCURVE",
"348 262 CURVE",
"419 305 LINE",
"162 305 LINE",
"162 213 LINE",
"537 213 LINE",
"537 298 OFFCURVE",
"529 343 OFFCURVE",
"518 373 CURVE SMOOTH",
"485 462 OFFCURVE",
"394 528 OFFCURVE",
"280 528 CURVE SMOOTH",
"174 528 OFFCURVE",
"84 471 OFFCURVE",
"47 375 CURVE SMOOTH",
"33 339 OFFCURVE",
"27 300 OFFCURVE",
"27 262 CURVE SMOOTH",
"27 219 OFFCURVE",
"35 181 OFFCURVE",
"47 149 CURVE SMOOTH",
"85 48 OFFCURVE",
"169 -8 OFFCURVE",
"295 -8 CURVE SMOOTH"
);
}
);
width = 561;
},
{
anchors = (
{
name = top;
position = "{229, 528}";
}
);
layerId = "4E2227F3-52E4-4048-A8EE-327B486EF0A4";
paths = (
{
closed = 1;
nodes = (
"370 -8 OFFCURVE",
"435 60 OFFCURVE",
"437 181 CURVE",
"254 192 LINE",
"254 176 OFFCURVE",
"248 153 OFFCURVE",
"229 153 CURVE SMOOTH",
"215 153 OFFCURVE",
"206 166 OFFCURVE",
"206 185 CURVE SMOOTH",
"206 210 OFFCURVE",
"206 235 OFFCURVE",
"206 260 CURVE SMOOTH",
"206 285 OFFCURVE",
"206 310 OFFCURVE",
"206 335 CURVE SMOOTH",
"206 354 OFFCURVE",
"215 367 OFFCURVE",
"229 367 CURVE SMOOTH",
"242 367 OFFCURVE",
"251 354 OFFCURVE",
"251 335 CURVE SMOOTH",
"251 316 OFFCURVE",
"251 298 OFFCURVE",
"251 279 CURVE",
"314 305 LINE",
"156 305 LINE",
"156 213 LINE",
"439 213 LINE",
"439 221 OFFCURVE",
"439 291 OFFCURVE",
"439 350 CURVE SMOOTH",
"439 456 OFFCURVE",
"363 528 OFFCURVE",
"229 528 CURVE SMOOTH",
"95 528 OFFCURVE",
"18 456 OFFCURVE",
"18 350 CURVE SMOOTH",
"18 327 OFFCURVE",
"18 283 OFFCURVE",
"18 260 CURVE SMOOTH",
"18 230 OFFCURVE",
"18 200 OFFCURVE",
"18 170 CURVE SMOOTH",
"18 57 OFFCURVE",
"95 -8 OFFCURVE",
"229 -8 CURVE SMOOTH"
);
}
);
width = 455;
},
{
anchors = (
{
name = top;
position = "{197, 508}";
}
);
layerId = "DCBE1F7B-116A-43E0-B7B4-8657BA77D8B5";
paths = (
{
closed = 1;
nodes = (
"268 -8 OFFCURVE",
"320 40 OFFCURVE",
"330 109 CURVE",
"308 108 LINE",
"298 51 OFFCURVE",
"255 13 OFFCURVE",
"197 13 CURVE SMOOTH",
"131 13 OFFCURVE",
"85 63 OFFCURVE",
"85 135 CURVE SMOOTH",
"85 173 OFFCURVE",
"85 212 OFFCURVE",
"85 250 CURVE SMOOTH",
"85 288 OFFCURVE",
"85 327 OFFCURVE",
"85 365 CURVE SMOOTH",
"85 437 OFFCURVE",
"131 487 OFFCURVE",
"197 487 CURVE SMOOTH",
"264 487 OFFCURVE",
"310 437 OFFCURVE",
"310 365 CURVE SMOOTH",
"310 327 OFFCURVE",
"310 288 OFFCURVE",
"310 261 CURVE",
"319 267 LINE",
"77 267 LINE",
"77 249 LINE",
"332 249 LINE",
"332 289 OFFCURVE",
"332 327 OFFCURVE",
"332 365 CURVE SMOOTH",
"332 448 OFFCURVE",
"277 508 OFFCURVE",
"197 508 CURVE SMOOTH",
"118 508 OFFCURVE",
"63 448 OFFCURVE",
"63 365 CURVE SMOOTH",
"63 327 OFFCURVE",
"63 288 OFFCURVE",
"63 250 CURVE SMOOTH",
"63 212 OFFCURVE",
"63 173 OFFCURVE",
"63 135 CURVE SMOOTH",
"63 52 OFFCURVE",
"118 -8 OFFCURVE",
"197 -8 CURVE SMOOTH"
);
}
);
width = 388;
},
{
anchors = (
{
name = top;
position = "{252, 528}";
}
);
associatedMasterId = "FFFA8D72-12AC-4CE0-B2CA-57A29829F4DA";
layerId = "C523A904-EA06-4FAF-AEC3-0CFA5C7EE4AC";
name = "Feb 19 17, 20:25";
paths = (
{
closed = 1;
nodes = (
"389 -7 OFFCURVE",
"479 61 OFFCURVE",
"485 162 CURVE",
"305 185 LINE",
"304 166 OFFCURVE",
"285 154 OFFCURVE",
"257 154 CURVE SMOOTH",
"222 154 OFFCURVE",
"198 188 OFFCURVE",
"198 239 CURVE SMOOTH",
"198 271 LINE SMOOTH",
"198 329 OFFCURVE",
"221 367 OFFCURVE",
"256 367 CURVE SMOOTH",
"289 367 OFFCURVE",
"311 338 OFFCURVE",
"311 294 CURVE",
"311 310 LINE",
"126 310 LINE",
"126 206 LINE",
"499 206 LINE",
"499 267 LINE SMOOTH",
"499 424 OFFCURVE",
"401 528 OFFCURVE",
"253 528 CURVE SMOOTH",
"107 528 OFFCURVE",
"10 428 OFFCURVE",
"10 277 CURVE SMOOTH",
"10 249 LINE SMOOTH",
"10 95 OFFCURVE",
"110 -7 OFFCURVE",
"259 -7 CURVE SMOOTH"
);
}
);
width = 509;
},
{
anchors = (
{
name = top;
position = "{226, 498}";
}
);
associatedMasterId = "262880E7-CFE1-4BDA-902E-E24798F3240A";
layerId = "2EFA006A-DDA3-4D17-BF31-C40C040EE571";
name = "Feb 24 17, 00:11";
paths = (
{
closed = 1;
nodes = (
"307 -8 OFFCURVE",
"370 42 OFFCURVE",
"385 116 CURVE",
"364 115 LINE",
"348 54 OFFCURVE",
"293 13 OFFCURVE",
"227 13 CURVE SMOOTH",
"137 13 OFFCURVE",
"77 81 OFFCURVE",
"77 182 CURVE SMOOTH",
"77 318 LINE SMOOTH",
"77 419 OFFCURVE",
"137 487 OFFCURVE",
"226 487 CURVE SMOOTH",
"316 487 OFFCURVE",
"376 419 OFFCURVE",
"376 318 CURVE SMOOTH",
"376 267 LINE",
"67 267 LINE",
"67 246 LINE",
"398 246 LINE",
"398 316 LINE SMOOTH",
"398 431 OFFCURVE",
"329 508 OFFCURVE",
"226 508 CURVE SMOOTH",
"123 508 OFFCURVE",
"55 432 OFFCURVE",
"55 317 CURVE SMOOTH",
"55 183 LINE SMOOTH",
"55 68 OFFCURVE",
"124 -8 OFFCURVE",
"227 -8 CURVE SMOOTH"
);
}
);
width = 453;
},
{
anchors = (
{
name = top;
position = "{252, 528}";
}
);
associatedMasterId = "FFFA8D72-12AC-4CE0-B2CA-57A29829F4DA";
layerId = "FDC1E1ED-A095-4F4A-B02A-1ACC860B025E";
name = "Feb 24 17, 00:13";
paths = (
{
closed = 1;
nodes = (
"390 -7 OFFCURVE",
"474 57 OFFCURVE",
"501 173 CURVE",
"313 194 LINE",
"304 168 OFFCURVE",
"287 154 OFFCURVE",
"260 154 CURVE SMOOTH",
"216 154 OFFCURVE",
"198 193 OFFCURVE",
"198 263 CURVE SMOOTH",
"198 263 LINE SMOOTH",
"198 328 OFFCURVE",
"216 367 OFFCURVE",
"260 367 CURVE SMOOTH",
"303 367 OFFCURVE",
"321 330 OFFCURVE",
"322 269 CURVE",
"322 306 LINE",
"162 306 LINE",
"162 219 LINE",
"510 219 LINE",
"510 263 LINE SMOOTH",
"510 435 OFFCURVE",
"420 528 OFFCURVE",
"260 528 CURVE SMOOTH",
"100 528 OFFCURVE",
"10 435 OFFCURVE",
"10 263 CURVE SMOOTH",
"10 263 LINE SMOOTH",
"10 90 OFFCURVE",
"100 -7 OFFCURVE",
"260 -7 CURVE SMOOTH"
);
}
);
width = 520;
},
{
anchors = (
{
name = top;
position = "{260, 528}";
}
);
associatedMasterId = "FFFA8D72-12AC-4CE0-B2CA-57A29829F4DA";
layerId = "5A86ED49-1A07-4A08-ACBE-BDE77E6ADA45";
name = "Feb 24 17, 00:19";
paths = (
{
closed = 1;
nodes = (
"510 219 LINE",
"510 284 OFFCURVE",
"510 327 OFFCURVE",
"490 381 CURVE SMOOTH",
"454 476 OFFCURVE",
"372 528 OFFCURVE",
"260 528 CURVE SMOOTH",
"148 528 OFFCURVE",
"66 476 OFFCURVE",
"30 381 CURVE SMOOTH",
"17 346 OFFCURVE",
"10 307 OFFCURVE",
"10 263 CURVE SMOOTH",
"10 219 OFFCURVE",
"17 179 OFFCURVE",
"30 144 CURVE SMOOTH",
"66 49 OFFCURVE",
"148 -8 OFFCURVE",
"260 -8 CURVE SMOOTH",
"384 -8 OFFCURVE",
"454 48 OFFCURVE",
"499 172 CURVE",
"313 193 LINE",
"302 168 OFFCURVE",
"289 154 OFFCURVE",
"260 154 CURVE SMOOTH",
"235 154 OFFCURVE",
"219 166 OFFCURVE",
"210 186 CURVE SMOOTH",
"201 206 OFFCURVE",
"198 233 OFFCURVE",
"198 263 CURVE SMOOTH",
"198 302 OFFCURVE",
"200 320 OFFCURVE",
"210 340 CURVE SMOOTH",
"220 359 OFFCURVE",
"235 371 OFFCURVE",
"260 371 CURVE SMOOTH",
"285 371 OFFCURVE",
"300 359 OFFCURVE",
"310 340 CURVE SMOOTH",
"316 328 OFFCURVE",
"319 313 OFFCURVE",
"321 296 CURVE",
"194 296 LINE",
"194 219 LINE"
);
}
);
width = 520;
},
{
anchors = (
{
name = top;
position = "{223, 528}";
}
);
associatedMasterId = "4E2227F3-52E4-4048-A8EE-327B486EF0A4";
layerId = "1607DCD5-9BA9-4F8D-B5DF-80154018F12C";
name = "Feb 24 17, 00:20";
paths = (
{
closed = 1;
nodes = (
"358 -7 OFFCURVE",
"429 67 OFFCURVE",
"428 181 CURVE",
"247 193 LINE",
"246 168 OFFCURVE",
"238 154 OFFCURVE",
"224 154 CURVE SMOOTH",
"207 154 OFFCURVE",
"198 168 OFFCURVE",
"198 193 CURVE SMOOTH",
"198 332 LINE SMOOTH",
"198 354 OFFCURVE",
"207 367 OFFCURVE",
"223 367 CURVE SMOOTH",
"238 367 OFFCURVE",
"247 354 OFFCURVE",
"247 332 CURVE SMOOTH",
"247 303 LINE",
"126 303 LINE",
"126 215 LINE",
"435 215 LINE",
"435 331 LINE SMOOTH",
"435 457 OFFCURVE",
"359 528 OFFCURVE",
"223 528 CURVE SMOOTH",
"87 528 OFFCURVE",
"10 457 OFFCURVE",
"10 331 CURVE SMOOTH",
"10 189 LINE SMOOTH",
"10 64 OFFCURVE",
"87 -7 OFFCURVE",
"223 -7 CURVE SMOOTH"
);
}
);
width = 445;
},
{
anchors = (
{
name = top;
position = "{203, 517}";
}
);
associatedMasterId = "4E2227F3-52E4-4048-A8EE-327B486EF0A4";
layerId = "A53D93E6-92CC-45B1-8880-653E9256B646";
name = "100,3} Feb 24 17, 00:22";
paths = (
{
closed = 1;
nodes = (
"303 -8 OFFCURVE",
"372 48 OFFCURVE",
"379 141 CURVE",
"280 143 LINE",
"272 102 OFFCURVE",
"241 79 OFFCURVE",
"204 79 CURVE SMOOTH",
"156 79 OFFCURVE",
"125 115 OFFCURVE",
"125 173 CURVE SMOOTH",
"125 339 LINE SMOOTH",
"125 395 OFFCURVE",
"156 431 OFFCURVE",
"203 431 CURVE SMOOTH",
"251 431 OFFCURVE",
"281 395 OFFCURVE",
"281 339 CURVE SMOOTH",
"281 298 LINE",
"86 298 LINE",
"86 215 LINE",
"381 215 LINE",
"381 337 LINE SMOOTH",
"381 449 OFFCURVE",
"314 517 OFFCURVE",
"203 517 CURVE SMOOTH",
"94 517 OFFCURVE",
"26 449 OFFCURVE",
"26 338 CURVE SMOOTH",
"26 171 LINE SMOOTH",
"26 61 OFFCURVE",
"93 -8 OFFCURVE",
"204 -8 CURVE SMOOTH"
);
}
);
width = 409;
},
{
anchors = (
{
name = top;
position = "{235, 517}";
}
);
associatedMasterId = "4E2227F3-52E4-4048-A8EE-327B486EF0A4";
layerId = "A47C68F1-3740-4053-814E-50DA5F989A02";
name = "100,5} Feb 24 17, 00:22";
paths = (
{
closed = 1;
nodes = (
"345 -8 OFFCURVE",
"415 47 OFFCURVE",
"436 143 CURVE",
"338 152 LINE",
"324 106 OFFCURVE",
"289 79 OFFCURVE",
"240 79 CURVE SMOOTH",
"169 79 OFFCURVE",
"131 134 OFFCURVE",
"131 230 CURVE SMOOTH",
"131 282 LINE SMOOTH",
"131 377 OFFCURVE",
"169 433 OFFCURVE",
"239 433 CURVE SMOOTH",
"309 433 OFFCURVE",
"348 378 OFFCURVE",
"348 284 CURVE",
"348 296 LINE",
"109 296 LINE",
"109 211 LINE",
"448 211 LINE",
"448 281 LINE SMOOTH",
"448 432 OFFCURVE",
"371 519 OFFCURVE",
"239 519 CURVE SMOOTH",
"107 519 OFFCURVE",
"31 432 OFFCURVE",
"31 281 CURVE SMOOTH",
"31 231 LINE SMOOTH",
"31 79 OFFCURVE",
"107 -8 OFFCURVE",
"240 -8 CURVE SMOOTH"
);
}
);
width = 479;
},
{
anchors = (
{
name = top;
position = "{243, 522}";
}
);
associatedMasterId = "4E2227F3-52E4-4048-A8EE-327B486EF0A4";
layerId = "5954086A-CF98-4407-B6DE-F8A05521AEBF";
name = "140,5} Feb 24 17, 00:22";
paths = (
{
closed = 1;
nodes = (
"365 -8 OFFCURVE",
"442 52 OFFCURVE",
"466 157 CURVE",
"327 171 LINE",
"315 134 OFFCURVE",
"288 113 OFFCURVE",
"249 113 CURVE SMOOTH",
"190 113 OFFCURVE",
"161 161 OFFCURVE",
"161 245 CURVE SMOOTH",
"161 273 LINE SMOOTH",
"161 357 OFFCURVE",
"190 405 OFFCURVE",
"249 405 CURVE SMOOTH",
"306 405 OFFCURVE",
"336 358 OFFCURVE",
"336 277 CURVE",
"336 308 LINE",
"133 308 LINE",
"133 213 LINE",
"476 213 LINE",
"476 273 LINE SMOOTH",
"476 433 OFFCURVE",
"393 525 OFFCURVE",
"249 525 CURVE SMOOTH",
"104 525 OFFCURVE",
"21 433 OFFCURVE",
"21 273 CURVE SMOOTH",
"21 246 LINE SMOOTH",
"21 84 OFFCURVE",
"104 -8 OFFCURVE",
"249 -8 CURVE SMOOTH"
);
}
);
width = 498;
},
{
anchors = (
{
name = top;
position = "{225, 525}";
}
);
associatedMasterId = "4E2227F3-52E4-4048-A8EE-327B486EF0A4";
layerId = "6A71C6C0-6498-4E03-A0EC-57F8322562B8";
name = "{166,3}";
paths = (
{
closed = 1;
nodes = (
"356 -8 OFFCURVE",
"420 57 OFFCURVE",
"423 171 CURVE",
"261 181 LINE",
"260 159 OFFCURVE",
"249 134 OFFCURVE",
"225 134 CURVE SMOOTH",
"204 134 OFFCURVE",
"190 152 OFFCURVE",
"190 178 CURVE SMOOTH",
"190 205 OFFCURVE",
"190 232 OFFCURVE",
"190 259 CURVE SMOOTH",
"190 285 OFFCURVE",
"190 312 OFFCURVE",
"190 339 CURVE SMOOTH",
"190 365 OFFCURVE",
"204 383 OFFCURVE",
"225 383 CURVE SMOOTH",
"245 383 OFFCURVE",
"259 365 OFFCURVE",
"259 339 CURVE SMOOTH",
"259 317 OFFCURVE",
"259 297 OFFCURVE",
"259 277 CURVE",
"315 310 LINE",
"146 310 LINE",
"146 210 LINE",
"425 210 LINE",
"425 223 OFFCURVE",
"425 296 OFFCURVE",
"425 352 CURVE SMOOTH",
"425 455 OFFCURVE",
"352 525 OFFCURVE",
"225 525 CURVE SMOOTH",
"98 525 OFFCURVE",
"24 455 OFFCURVE",
"24 352 CURVE SMOOTH",
"24 327 OFFCURVE",
"24 284 OFFCURVE",
"24 259 CURVE SMOOTH",
"24 228 OFFCURVE",
"24 196 OFFCURVE",
"24 165 CURVE SMOOTH",
"24 56 OFFCURVE",
"98 -8 OFFCURVE",
"225 -8 CURVE SMOOTH"
);
}
);
width = 446;
visible = 1;
},
{
anchors = (
{
name = top;
position = "{278, 525}";
}
);
associatedMasterId = "4E2227F3-52E4-4048-A8EE-327B486EF0A4";
hints = (
{
origin = "{0, 40}";
target = "{0, 9}";
},
{
origin = "{0, 24}";
target = "{0, 28}";
},
{
horizontal = 1;
origin = "{0, 28}";
target = "{0, 24}";
},
{
horizontal = 1;
origin = "{0, 34}";
target = "{0, 18}";
},
{
horizontal = 1;
origin = "{0, 46}";
target = "{0, 6}";
},
{
origin = "{0, 25}";
target = "{0, 28}";
}
);
layerId = "E8CA071A-13DC-4AE8-9510-CE5451652C21";
name = "{166,5}";
paths = (
{
closed = 1;
nodes = (
"383 -8 OFFCURVE",
"454 26 OFFCURVE",
"504 87 CURVE",
"420 178 LINE",
"400 148 OFFCURVE",
"360 131 OFFCURVE",
"312 131 CURVE SMOOTH",
"254 131 OFFCURVE",
"222 154 OFFCURVE",
"211 186 CURVE SMOOTH",
"204 205 OFFCURVE",
"201 234 OFFCURVE",
"201 260 CURVE SMOOTH",
"201 287 OFFCURVE",
"204 312 OFFCURVE",
"211 332 CURVE SMOOTH",
"221 363 OFFCURVE",
"248 383 OFFCURVE",
"280 383 CURVE SMOOTH",
"313 383 OFFCURVE",
"338 363 OFFCURVE",
"348 332 CURVE SMOOTH",
"354 315 OFFCURVE",
"357 290 OFFCURVE",
"357 262 CURVE",
"420 310 LINE",
"154 310 LINE",
"154 202 LINE",
"524 202 LINE",
"524 303 OFFCURVE",
"516 345 OFFCURVE",
"506 374 CURVE SMOOTH",
"476 462 OFFCURVE",
"390 525 OFFCURVE",
"278 525 CURVE SMOOTH",
"174 525 OFFCURVE",
"88 470 OFFCURVE",
"54 375 CURVE SMOOTH",
"40 340 OFFCURVE",
"34 300 OFFCURVE",
"34 261 CURVE SMOOTH",
"34 218 OFFCURVE",
"42 178 OFFCURVE",
"54 146 CURVE SMOOTH",
"89 47 OFFCURVE",
"171 -8 OFFCURVE",
"291 -8 CURVE SMOOTH"
);
}
);
width = 554;
visible = 1;
},
{
anchors = (
{
name = top;
position = "{260, 528}";
}
);
associatedMasterId = "FFFA8D72-12AC-4CE0-B2CA-57A29829F4DA";
layerId = "76D52448-D1B4-4691-A635-AFF5EA335E05";
name = "Feb 24 17, 16:07";
paths = (
{
closed = 1;
nodes = (
"382 -8 OFFCURVE",
"466 49 OFFCURVE",
"501 172 CURVE",
"317 192 LINE",
"306 167 OFFCURVE",
"291 153 OFFCURVE",
"261 153 CURVE SMOOTH",
"235 153 OFFCURVE",
"217 165 OFFCURVE",
"209 185 CURVE SMOOTH",
"201 205 OFFCURVE",
"198 232 OFFCURVE",
"198 262 CURVE SMOOTH",
"198 305 OFFCURVE",
"200 318 OFFCURVE",
"209 336 CURVE SMOOTH",
"219 355 OFFCURVE",
"235 367 OFFCURVE",
"260 367 CURVE SMOOTH",
"285 367 OFFCURVE",
"301 355 OFFCURVE",
"311 336 CURVE SMOOTH",
"317 324 OFFCURVE",
"320 312 OFFCURVE",
"321 305 CURVE",
"194 305 LINE",
"194 221 LINE",
"510 221 LINE",
"510 279 OFFCURVE",
"510 327 OFFCURVE",
"490 381 CURVE SMOOTH",
"454 476 OFFCURVE",
"372 528 OFFCURVE",
"260 528 CURVE SMOOTH",
"148 528 OFFCURVE",
"66 476 OFFCURVE",
"30 381 CURVE SMOOTH",
"17 346 OFFCURVE",
"10 307 OFFCURVE",
"10 263 CURVE SMOOTH",
"10 219 OFFCURVE",
"17 179 OFFCURVE",
"30 144 CURVE SMOOTH",
"66 49 OFFCURVE",
"146 -8 OFFCURVE",
"264 -8 CURVE SMOOTH"
);
}
);
width = 520;
},
{
anchors = (
{
name = top;
position = "{260, 528}";
}
);
associatedMasterId = "FFFA8D72-12AC-4CE0-B2CA-57A29829F4DA";
layerId = "FB4BB15E-EC4F-4C4F-8BD5-8A571EB496CE";
name = "Feb 24 17, 16:07";
paths = (
{
closed = 1;
nodes = (
"382 -8 OFFCURVE",
"466 49 OFFCURVE",
"501 172 CURVE",
"317 192 LINE",
"306 167 OFFCURVE",
"291 153 OFFCURVE",
"261 153 CURVE SMOOTH",
"235 153 OFFCURVE",
"217 165 OFFCURVE",
"209 185 CURVE SMOOTH",
"201 205 OFFCURVE",
"198 232 OFFCURVE",
"198 262 CURVE SMOOTH",
"198 305 OFFCURVE",
"200 318 OFFCURVE",
"209 336 CURVE SMOOTH",
"219 355 OFFCURVE",
"235 367 OFFCURVE",
"260 367 CURVE SMOOTH",
"285 367 OFFCURVE",
"301 355 OFFCURVE",
"311 336 CURVE SMOOTH",
"317 324 OFFCURVE",
"320 312 OFFCURVE",
"321 305 CURVE",
"194 305 LINE",
"194 221 LINE",
"510 221 LINE",
"510 279 OFFCURVE",
"510 327 OFFCURVE",
"490 381 CURVE SMOOTH",
"454 476 OFFCURVE",
"372 528 OFFCURVE",
"260 528 CURVE SMOOTH",
"148 528 OFFCURVE",
"66 476 OFFCURVE",
"30 381 CURVE SMOOTH",
"17 346 OFFCURVE",
"10 307 OFFCURVE",
"10 263 CURVE SMOOTH",
"10 219 OFFCURVE",
"17 179 OFFCURVE",
"30 144 CURVE SMOOTH",
"66 49 OFFCURVE",
"146 -8 OFFCURVE",
"264 -8 CURVE SMOOTH"
);
}
);
width = 520;
},
{
anchors = (
{
name = top;
position = "{260, 528}";
}
);
associatedMasterId = "FFFA8D72-12AC-4CE0-B2CA-57A29829F4DA";
layerId = "508D10E2-9AA1-4CA2-8633-0B44D5E80ED3";
name = "Feb 24 17, 16:07";
paths = (
{
closed = 1;
nodes = (
"382 -8 OFFCURVE",
"466 49 OFFCURVE",
"501 172 CURVE",
"317 192 LINE",
"306 167 OFFCURVE",
"291 153 OFFCURVE",
"261 153 CURVE SMOOTH",
"235 153 OFFCURVE",
"217 165 OFFCURVE",
"209 185 CURVE SMOOTH",
"201 205 OFFCURVE",
"198 232 OFFCURVE",
"198 262 CURVE SMOOTH",
"198 305 OFFCURVE",
"200 318 OFFCURVE",
"209 336 CURVE SMOOTH",
"219 355 OFFCURVE",
"235 367 OFFCURVE",
"260 367 CURVE SMOOTH",
"285 367 OFFCURVE",
"301 355 OFFCURVE",
"311 336 CURVE SMOOTH",
"317 324 OFFCURVE",
"320 312 OFFCURVE",
"321 305 CURVE",
"194 305 LINE",
"194 221 LINE",
"510 221 LINE",
"510 279 OFFCURVE",
"510 327 OFFCURVE",
"490 381 CURVE SMOOTH",
"454 476 OFFCURVE",
"372 528 OFFCURVE",
"260 528 CURVE SMOOTH",
"148 528 OFFCURVE",
"66 476 OFFCURVE",
"30 381 CURVE SMOOTH",
"17 346 OFFCURVE",
"10 307 OFFCURVE",
"10 263 CURVE SMOOTH",
"10 219 OFFCURVE",
"17 179 OFFCURVE",
"30 144 CURVE SMOOTH",
"66 49 OFFCURVE",
"146 -8 OFFCURVE",
"264 -8 CURVE SMOOTH"
);
}
);
width = 520;
},
{
anchors = (
{
name = top;
position = "{260, 528}";
}
);
associatedMasterId = "FFFA8D72-12AC-4CE0-B2CA-57A29829F4DA";
layerId = "597A1CD8-EC27-4335-B9E3-3E535B12BDCF";
name = "Feb 24 17, 16:07";
paths = (
{
closed = 1;
nodes = (
"382 -8 OFFCURVE",
"466 49 OFFCURVE",
"501 172 CURVE",
"317 192 LINE",
"306 167 OFFCURVE",
"291 153 OFFCURVE",
"261 153 CURVE SMOOTH",
"235 153 OFFCURVE",
"217 165 OFFCURVE",
"209 185 CURVE SMOOTH",
"201 205 OFFCURVE",
"198 232 OFFCURVE",
"198 262 CURVE SMOOTH",
"198 305 OFFCURVE",
"200 318 OFFCURVE",
"209 336 CURVE SMOOTH",
"219 355 OFFCURVE",
"235 367 OFFCURVE",
"260 367 CURVE SMOOTH",
"285 367 OFFCURVE",
"301 355 OFFCURVE",
"311 336 CURVE SMOOTH",
"317 324 OFFCURVE",
"320 312 OFFCURVE",
"321 305 CURVE",
"194 305 LINE",
"194 221 LINE",
"510 221 LINE",
"510 279 OFFCURVE",
"510 327 OFFCURVE",
"490 381 CURVE SMOOTH",
"454 476 OFFCURVE",
"372 528 OFFCURVE",
"260 528 CURVE SMOOTH",
"148 528 OFFCURVE",
"66 476 OFFCURVE",
"30 381 CURVE SMOOTH",
"17 346 OFFCURVE",
"10 307 OFFCURVE",
"10 263 CURVE SMOOTH",
"10 219 OFFCURVE",
"17 179 OFFCURVE",
"30 144 CURVE SMOOTH",
"66 49 OFFCURVE",
"146 -8 OFFCURVE",
"264 -8 CURVE SMOOTH"
);
}
);
width = 520;
},
{
anchors = (
{
name = top;
position = "{223, 532}";
}
);
associatedMasterId = "4E2227F3-52E4-4048-A8EE-327B486EF0A4";
layerId = "A2BBABA4-A182-4348-8C30-8AD760BED60C";
name = "Mar 6 17, 05:03";
paths = (
{
closed = 1;
nodes = (
"357 -8 OFFCURVE",
"435 54 OFFCURVE",
"435 175 CURVE",
"247 192 LINE",
"246 172 OFFCURVE",
"244 153 OFFCURVE",
"223 153 CURVE SMOOTH",
"215 153 OFFCURVE",
"207 157 OFFCURVE",
"204 163 CURVE",
"198 174 OFFCURVE",
"198 325 OFFCURVE",
"198 260 CURVE SMOOTH",
"198 236 OFFCURVE",
"197 348 OFFCURVE",
"204 360 CURVE",
"208 366 OFFCURVE",
"214 371 OFFCURVE",
"223 371 CURVE SMOOTH",
"231 371 OFFCURVE",
"239 366 OFFCURVE",
"242 360 CURVE",
"249 348 OFFCURVE",
"247 332 OFFCURVE",
"247 260 CURVE",
"323 303 LINE",
"162 303 LINE",
"162 215 LINE",
"435 215 LINE",
"435 270 OFFCURVE",
"435 294 OFFCURVE",
"435 350 CURVE SMOOTH",
"435 456 OFFCURVE",
"359 532 OFFCURVE",
"223 532 CURVE SMOOTH",
"87 532 OFFCURVE",
"10 456 OFFCURVE",
"10 350 CURVE SMOOTH",
"10 327 OFFCURVE",
"10 283 OFFCURVE",
"10 260 CURVE SMOOTH",
"10 230 OFFCURVE",
"10 200 OFFCURVE",
"10 170 CURVE SMOOTH",
"10 57 OFFCURVE",
"87 -8 OFFCURVE",
"223 -8 CURVE SMOOTH"
);
}
);
width = 445;
visible = 1;
},
{
anchors = (
{
name = top;
position = "{271, 517}";
}
);
associatedMasterId = "4E2227F3-52E4-4048-A8EE-327B486EF0A4";
hints = (
{
origin = "{0, 40}";
target = "{0, 9}";
},
{
origin = "{0, 24}";
target = "{0, 28}";
},
{
horizontal = 1;
origin = "{0, 28}";
target = "{0, 24}";
},
{
horizontal = 1;
origin = "{0, 34}";
target = "{0, 18}";
},
{
horizontal = 1;
origin = "{0, 46}";
target = "{0, 6}";
},
{
origin = "{0, 25}";
target = "{0, 28}";
}
);
layerId = "2A2B9E74-0281-441B-9A83-648CC11D66AE";
name = "{100,5}";
paths = (
{
closed = 1;
nodes = (
"368 -8 OFFCURVE",
"442 33 OFFCURVE",
"475 103 CURVE",
"402 151 LINE",
"383 105 OFFCURVE",
"340 78 OFFCURVE",
"286 78 CURVE SMOOTH",
"224 78 OFFCURVE",
"180 109 OFFCURVE",
"167 163 CURVE SMOOTH",
"160 189 OFFCURVE",
"156 223 OFFCURVE",
"156 255 CURVE SMOOTH",
"156 285 OFFCURVE",
"160 319 OFFCURVE",
"167 347 CURVE SMOOTH",
"179 400 OFFCURVE",
"218 431 OFFCURVE",
"272 431 CURVE SMOOTH",
"326 431 OFFCURVE",
"365 400 OFFCURVE",
"378 347 CURVE SMOOTH",
"382 333 OFFCURVE",
"384 300 OFFCURVE",
"384 260 CURVE",
"423 297 LINE",
"130 297 LINE",
"130 212 LINE",
"485 212 LINE",
"485 278 OFFCURVE",
"481 349 OFFCURVE",
"473 375 CURVE SMOOTH",
"446 464 OFFCURVE",
"371 517 OFFCURVE",
"271 517 CURVE SMOOTH",
"173 517 OFFCURVE",
"100 465 OFFCURVE",
"73 376 CURVE SMOOTH",
"62 343 OFFCURVE",
"56 298 OFFCURVE",
"56 256 CURVE SMOOTH",
"56 215 OFFCURVE",
"62 170 OFFCURVE",
"73 135 CURVE SMOOTH",
"101 45 OFFCURVE",
"176 -8 OFFCURVE",
"277 -8 CURVE SMOOTH"
);
}
);
width = 534;
},
{
anchors = (
{
name = top;
position = "{212, 517}";
}
);
associatedMasterId = "4E2227F3-52E4-4048-A8EE-327B486EF0A4";
layerId = "08201EB5-B49F-440A-802B-CA47CCD12539";
name = "{100,3}";
paths = (
{
closed = 1;
nodes = (
"316 -8 OFFCURVE",
"374 49 OFFCURVE",
"380 142 CURVE",
"283 147 LINE",
"278 109 OFFCURVE",
"252 78 OFFCURVE",
"212 78 CURVE SMOOTH",
"171 78 OFFCURVE",
"142 111 OFFCURVE",
"142 158 CURVE SMOOTH",
"142 190 OFFCURVE",
"142 223 OFFCURVE",
"142 255 CURVE SMOOTH",
"142 286 OFFCURVE",
"142 319 OFFCURVE",
"142 351 CURVE SMOOTH",
"142 398 OFFCURVE",
"171 431 OFFCURVE",
"212 431 CURVE SMOOTH",
"254 431 OFFCURVE",
"283 398 OFFCURVE",
"283 351 CURVE SMOOTH",
"283 322 OFFCURVE",
"283 293 OFFCURVE",
"283 270 CURVE",
"317 296 LINE",
"114 296 LINE",
"114 213 LINE",
"382 213 LINE",
"382 238 OFFCURVE",
"382 310 OFFCURVE",
"382 358 CURVE SMOOTH",
"382 452 OFFCURVE",
"318 517 OFFCURVE",
"212 517 CURVE SMOOTH",
"107 517 OFFCURVE",
"42 452 OFFCURVE",
"42 358 CURVE SMOOTH",
"42 327 OFFCURVE",
"42 286 OFFCURVE",
"42 255 CURVE SMOOTH",
"42 221 OFFCURVE",
"42 185 OFFCURVE",
"42 151 CURVE SMOOTH",
"42 54 OFFCURVE",
"107 -8 OFFCURVE",
"212 -8 CURVE SMOOTH"
);
}
);
width = 419;
},
{
anchors = (
{
name = top;
position = "{251, 525}";
}
);
associatedMasterId = "DCBE1F7B-116A-43E0-B7B4-8657BA77D8B5";
hints = (
{
origin = "{0, 40}";
target = "{0, 9}";
},
{
origin = "{0, 24}";
target = "{0, 28}";
},
{
horizontal = 1;
origin = "{0, 28}";
target = "{0, 24}";
},
{
horizontal = 1;
origin = "{0, 34}";
target = "{0, 18}";
},
{
horizontal = 1;
origin = "{0, 46}";
target = "{0, 6}";
},
{
origin = "{0, 25}";
target = "{0, 28}";
}
);
layerId = "DFA1BEED-08E5-4328-AC15-805F6F7DFFB0";
name = "{166,4}";
paths = (
{
closed = 1;
nodes = (
"369 -8 OFFCURVE",
"437 42 OFFCURVE",
"463 129 CURVE",
"340 180 LINE",
"330 154 OFFCURVE",
"304 133 OFFCURVE",
"268 133 CURVE SMOOTH",
"229 133 OFFCURVE",
"206 143 OFFCURVE",
"200 182 CURVE SMOOTH",
"196 205 OFFCURVE",
"195 233 OFFCURVE",
"195 260 CURVE SMOOTH",
"195 286 OFFCURVE",
"196 312 OFFCURVE",
"200 336 CURVE SMOOTH",
"205 367 OFFCURVE",
"226 383 OFFCURVE",
"252 383 CURVE SMOOTH",
"279 383 OFFCURVE",
"298 367 OFFCURVE",
"303 336 CURVE SMOOTH",
"306 316 OFFCURVE",
"308 294 OFFCURVE",
"308 270 CURVE",
"367 310 LINE",
"150 310 LINE",
"150 206 LINE",
"474 206 LINE",
"474 263 OFFCURVE",
"470 321 OFFCURVE",
"465 363 CURVE SMOOTH",
"450 459 OFFCURVE",
"371 525 OFFCURVE",
"251 525 CURVE SMOOTH",
"136 525 OFFCURVE",
"56 463 OFFCURVE",
"39 364 CURVE SMOOTH",
"32 334 OFFCURVE",
"29 292 OFFCURVE",
"29 260 CURVE SMOOTH",
"29 223 OFFCURVE",
"33 187 OFFCURVE",
"39 156 CURVE SMOOTH",
"56 52 OFFCURVE",
"134 -8 OFFCURVE",
"258 -8 CURVE SMOOTH"
);
}
);
width = 499;
}
);
leftKerningGroup = o;
rightKerningGroup = e;
unicode = 0065;
},
{
color = 3;
glyphname = f;
lastChange = "2017-04-25 12:01:58 +0000";
layers = (
{
hints = (
{
horizontal = 1;
origin = "{1, 1}";
target = "{1, 0}";
},
{
horizontal = 1;
origin = "{0, 5}";
target = "{0, 6}";
},
{
origin = "{0, 10}";
target = "{0, 1}";
}
);
layerId = "262880E7-CFE1-4BDA-902E-E24798F3240A";
paths = (
{
closed = 1;
nodes = (
"154 0 LINE",
"154 540 LINE SMOOTH",
"154 627 OFFCURVE",
"173 679 OFFCURVE",
"268 679 CURVE SMOOTH",
"299 679 LINE",
"299 700 LINE",
"268 700 LINE SMOOTH",
"160 700 OFFCURVE",
"133 640 OFFCURVE",
"133 540 CURVE SMOOTH",
"133 0 LINE"
);
},
{
closed = 1;
nodes = (
"294 479 LINE",
"294 500 LINE",
"54 500 LINE",
"54 479 LINE"
);
}
);
width = 348;
},
{
layerId = "4E2227F3-52E4-4048-A8EE-327B486EF0A4";
paths = (
{
closed = 1;
nodes = (
"241 0 LINE",
"241 539 LINE SMOOTH",
"241 557 OFFCURVE",
"254 572 OFFCURVE",
"278 575 CURVE",
"285 575 LINE",
"285 700 LINE",
"278 700 LINE",
"136 707 OFFCURVE",
"53 683 OFFCURVE",
"53 556 CURVE SMOOTH",
"53 0 LINE"
);
},
{
closed = 1;
nodes = (
"299 390 LINE",
"299 520 LINE",
"12 520 LINE",
"12 390 LINE"
);
}
);
width = 311;
},
{
layerId = "FFFA8D72-12AC-4CE0-B2CA-57A29829F4DA";
paths = (
{
closed = 1;
nodes = (
"277 0 LINE",
"277 539 LINE SMOOTH",
"277 562 OFFCURVE",
"287 572 OFFCURVE",
"314 575 CURVE",
"371 575 LINE",
"371 700 LINE",
"314 700 LINE",
"152 708 OFFCURVE",
"89 668 OFFCURVE",
"89 556 CURVE SMOOTH",
"89 0 LINE"
);
},
{
closed = 1;
nodes = (
"385 370 LINE",
"385 520 LINE",
"18 520 LINE",
"18 370 LINE"
);
}
);
width = 403;
},
{
layerId = "DCBE1F7B-116A-43E0-B7B4-8657BA77D8B5";
paths = (
{
closed = 1;
nodes = (
"124 0 LINE",
"124 550 LINE SMOOTH",
"124 637 OFFCURVE",
"137 689 OFFCURVE",
"207 689 CURVE SMOOTH",
"232 689 LINE",
"232 710 LINE",
"206 710 LINE SMOOTH",
"124 710 OFFCURVE",
"102 650 OFFCURVE",
"102 550 CURVE SMOOTH",
"102 0 LINE"
);
},
{
closed = 1;
nodes = (
"228 479 LINE",
"228 500 LINE",
"42 500 LINE",
"42 479 LINE"
);
}
);
width = 270;
},
{
associatedMasterId = "FFFA8D72-12AC-4CE0-B2CA-57A29829F4DA";
layerId = "2C93A357-82AB-483E-BCC8-F28359C8C182";
name = "{100,5}";
paths = (
{
closed = 1;
nodes = (
"218 0 LINE",
"218 524 LINE",
"218 593 OFFCURVE",
"237 613 OFFCURVE",
"302 613 CURVE SMOOTH",
"336 613 LINE",
"336 700 LINE",
"292 700 LINE SMOOTH",
"158 700 OFFCURVE",
"118 661 OFFCURVE",
"118 530 CURVE",
"118 0 LINE"
);
},
{
closed = 1;
nodes = (
"336 418 LINE",
"336 510 LINE",
"37 510 LINE",
"37 418 LINE"
);
}
);
width = 374;
}
);
leftKerningGroup = t;
unicode = 0066;
},
{
glyphname = g;
lastChange = "2017-04-28 09:51:40 +0000";
layers = (
{
anchors = (
{
name = top;
position = "{265, 509}";
}
);
hints = (
{
origin = "{0, 4}";
target = "{0, 3}";
},
{
horizontal = 1;
origin = "{0, 9}";
target = "{0, 8}";
},
{
horizontal = 1;
origin = "{1, 11}";
target = "{2, 11}";
},
{
origin = "{1, 5}";
target = "{2, 17}";
},
{
origin = "{2, 5}";
target = "{1, 17}";
},
{
horizontal = 1;
origin = "{1, 23}";
target = "{2, 23}";
}
);
layerId = "262880E7-CFE1-4BDA-902E-E24798F3240A";
paths = (
{
closed = 1;
nodes = (
"358 -206 OFFCURVE",
"432 -132 OFFCURVE",
"432 0 CURVE SMOOTH",
"432 500 LINE",
"410 500 LINE",
"410 0 LINE SMOOTH",
"410 -118 OFFCURVE",
"344 -184 OFFCURVE",
"231 -179 CURVE",
"231 -200 LINE"
);
},
{
closed = 1;
nodes = (
"348 -8 OFFCURVE",
"408 46 OFFCURVE",
"424 123 CURVE SMOOTH",
"431 156 OFFCURVE",
"430 195 OFFCURVE",
"430 251 CURVE",
"430 310 OFFCURVE",
"431 345 OFFCURVE",
"424 377 CURVE SMOOTH",
"407 454 OFFCURVE",
"348 508 OFFCURVE",
"259 508 CURVE SMOOTH",
"169 508 OFFCURVE",
"103 454 OFFCURVE",
"87 377 CURVE SMOOTH",
"80 344 OFFCURVE",
"81 305 OFFCURVE",
"81 248 CURVE SMOOTH",
"81 191 OFFCURVE",
"80 155 OFFCURVE",
"87 123 CURVE SMOOTH",
"104 46 OFFCURVE",
"169 -8 OFFCURVE",
"259 -8 CURVE SMOOTH"
);
},
{
closed = 1;
nodes = (
"179 13 OFFCURVE",
"117 65 OFFCURVE",
"107 135 CURVE SMOOTH",
"104 156 OFFCURVE",
"103 164 OFFCURVE",
"103 251 CURVE SMOOTH",
"103 338 OFFCURVE",
"104 346 OFFCURVE",
"107 365 CURVE SMOOTH",
"119 433 OFFCURVE",
"178 487 OFFCURVE",
"261 487 CURVE SMOOTH",
"344 487 OFFCURVE",
"397 432 OFFCURVE",
"407 365 CURVE SMOOTH",
"410 344 OFFCURVE",
"411 336 OFFCURVE",
"411 249 CURVE SMOOTH",
"411 162 OFFCURVE",
"410 154 OFFCURVE",
"407 135 CURVE SMOOTH",
"396 70 OFFCURVE",
"346 13 OFFCURVE",
"261 13 CURVE SMOOTH"
);
}
);
width = 520;
},
{
anchors = (
{
name = top;
position = "{232, 520}";
}
);
layerId = "4E2227F3-52E4-4048-A8EE-327B486EF0A4";
paths = (
{
closed = 1;
nodes = (
"385 -233 OFFCURVE",
"438 -115 OFFCURVE",
"438 34 CURVE SMOOTH",
"438 520 LINE",
"250 520 LINE",
"250 54 LINE SMOOTH",
"250 -14 OFFCURVE",
"243 -56 OFFCURVE",
"98 -45 CURVE",
"98 -207 LINE"
);
},
{
closed = 1;
nodes = (
"185 -8 OFFCURVE",
"285 -2 OFFCURVE",
"285 170 CURVE SMOOTH",
"285 175 OFFCURVE",
"285 241 OFFCURVE",
"285 260 CURVE",
"285 313 OFFCURVE",
"285 345 OFFCURVE",
"284 350 CURVE SMOOTH",
"276 522 OFFCURVE",
"185 528 OFFCURVE",
"155 528 CURVE SMOOTH",
"59 528 OFFCURVE",
"18 466 OFFCURVE",
"18 350 CURVE SMOOTH",
"18 350 OFFCURVE",
"18 284 OFFCURVE",
"18 260 CURVE",
"18 235 OFFCURVE",
"18 166 OFFCURVE",
"18 170 CURVE SMOOTH",
"18 60 OFFCURVE",
"55 -8 OFFCURVE",
"155 -8 CURVE SMOOTH"
);
},
{
closed = 1;
nodes = (
"214 153 OFFCURVE",
"206 166 OFFCURVE",
"206 185 CURVE SMOOTH",
"206 210 OFFCURVE",
"206 235 OFFCURVE",
"206 260 CURVE SMOOTH",
"206 285 OFFCURVE",
"206 310 OFFCURVE",
"206 335 CURVE SMOOTH",
"206 354 OFFCURVE",
"214 367 OFFCURVE",
"227 367 CURVE SMOOTH",
"241 367 OFFCURVE",
"250 354 OFFCURVE",
"250 335 CURVE SMOOTH",
"250 310 OFFCURVE",
"250 285 OFFCURVE",
"250 260 CURVE",
"250 235 OFFCURVE",
"250 210 OFFCURVE",
"250 185 CURVE SMOOTH",
"250 166 OFFCURVE",
"241 153 OFFCURVE",
"227 153 CURVE SMOOTH"
);
}
);
width = 460;
},
{
anchors = (
{
name = top;
position = "{279, 529}";
}
);
layerId = "FFFA8D72-12AC-4CE0-B2CA-57A29829F4DA";
paths = (
{
closed = 1;
nodes = (
"380 -231 OFFCURVE",
"516 -152 OFFCURVE",
"516 34 CURVE SMOOTH",
"516 520 LINE",
"328 520 LINE",
"328 21 LINE SMOOTH",
"328 -41 OFFCURVE",
"256 -62 OFFCURVE",
"116 -44 CURVE",
"116 -200 LINE"
);
},
{
closed = 1;
nodes = (
"324 3 OFFCURVE",
"370 82 OFFCURVE",
"376 171 CURVE SMOOTH",
"378 204 OFFCURVE",
"379 230 OFFCURVE",
"379 274 CURVE SMOOTH",
"379 317 OFFCURVE",
"375 344 OFFCURVE",
"371 376 CURVE SMOOTH",
"357 478 OFFCURVE",
"311 528 OFFCURVE",
"226 528 CURVE SMOOTH",
"144 528 OFFCURVE",
"72 482 OFFCURVE",
"42 376 CURVE SMOOTH",
"33 344 OFFCURVE",
"27 305 OFFCURVE",
"27 260 CURVE SMOOTH",
"27 218 OFFCURVE",
"32 183 OFFCURVE",
"43 148 CURVE SMOOTH",
"69 66 OFFCURVE",
"139 3 OFFCURVE",
"223 3 CURVE"
);
},
{
closed = 1;
nodes = (
"249 153 OFFCURVE",
"234 164 OFFCURVE",
"224 184 CURVE SMOOTH",
"215 202 OFFCURVE",
"211 228 OFFCURVE",
"211 262 CURVE SMOOTH",
"211 295 OFFCURVE",
"215 319 OFFCURVE",
"224 337 CURVE SMOOTH",
"234 357 OFFCURVE",
"249 367 OFFCURVE",
"269 367 CURVE SMOOTH",
"289 367 OFFCURVE",
"305 357 OFFCURVE",
"315 337 CURVE SMOOTH",
"323 320 OFFCURVE",
"328 295 OFFCURVE",
"328 262 CURVE SMOOTH",
"328 228 OFFCURVE",
"323 202 OFFCURVE",
"315 184 CURVE SMOOTH",
"306 163 OFFCURVE",
"289 153 OFFCURVE",
"269 153 CURVE SMOOTH"
);
}
);
width = 549;
},
{
anchors = (
{
name = top;
position = "{196, 509}";
}
);
layerId = "DCBE1F7B-116A-43E0-B7B4-8657BA77D8B5";
paths = (
{
closed = 1;
nodes = (
"275 -204 OFFCURVE",
"330 -130 OFFCURVE",
"330 0 CURVE SMOOTH",
"330 500 LINE",
"307 500 LINE",
"307 0 LINE SMOOTH",
"307 -117 OFFCURVE",
"261 -183 OFFCURVE",
"182 -179 CURVE",
"182 -200 LINE"
);
},
{
closed = 1;
nodes = (
"274 -8 OFFCURVE",
"324 52 OFFCURVE",
"324 135 CURVE SMOOTH",
"324 173 OFFCURVE",
"324 212 OFFCURVE",
"324 250 CURVE SMOOTH",
"324 288 OFFCURVE",
"324 327 OFFCURVE",
"324 365 CURVE SMOOTH",
"324 448 OFFCURVE",
"274 508 OFFCURVE",
"197 508 CURVE SMOOTH",
"117 508 OFFCURVE",
"63 448 OFFCURVE",
"63 365 CURVE SMOOTH",
"63 327 OFFCURVE",
"63 288 OFFCURVE",
"63 250 CURVE SMOOTH",
"63 212 OFFCURVE",
"63 173 OFFCURVE",
"63 135 CURVE SMOOTH",
"63 52 OFFCURVE",
"117 -8 OFFCURVE",
"197 -8 CURVE SMOOTH"
);
},
{
closed = 1;
nodes = (
"132 13 OFFCURVE",
"85 63 OFFCURVE",
"85 135 CURVE SMOOTH",
"85 173 OFFCURVE",
"85 212 OFFCURVE",
"85 250 CURVE SMOOTH",
"85 288 OFFCURVE",
"85 327 OFFCURVE",
"85 365 CURVE SMOOTH",
"85 437 OFFCURVE",
"132 487 OFFCURVE",
"199 487 CURVE SMOOTH",
"263 487 OFFCURVE",
"308 437 OFFCURVE",
"308 365 CURVE SMOOTH",
"308 327 OFFCURVE",
"308 288 OFFCURVE",
"308 250 CURVE SMOOTH",
"308 212 OFFCURVE",
"308 173 OFFCURVE",
"308 135 CURVE SMOOTH",
"308 63 OFFCURVE",
"263 13 OFFCURVE",
"199 13 CURVE SMOOTH"
);
}
);
width = 407;
}
);
leftKerningGroup = d;
rightKerningGroup = g;
unicode = 0067;
},
{
glyphname = h;
lastChange = "2017-04-25 00:44:27 +0000";
layers = (
{
components = (
{
name = n.curve;
transform = "{1, 0, 0, 1, 103, 0}";
}
);
hints = (
{
origin = "{0, 2}";
target = "{0, 1}";
}
);
layerId = "262880E7-CFE1-4BDA-902E-E24798F3240A";
paths = (
{
closed = 1;
nodes = (
"121 0 LINE",
"121 700 LINE",
"99 700 LINE",
"99 0 LINE"
);
}
);
width = 534;
},
{
components = (
{
name = n.curve;
transform = "{1, 0, 0, 1, 174, 0}";
}
);
layerId = "4E2227F3-52E4-4048-A8EE-327B486EF0A4";
paths = (
{
closed = 1;
nodes = (
"210 0 LINE",
"210 700 LINE",
"22 700 LINE",
"22 0 LINE"
);
}
);
width = 462;
},
{
components = (
{
name = n.curve;
transform = "{1, 0, 0, 1, 182, 0}";
}
);
layerId = "FFFA8D72-12AC-4CE0-B2CA-57A29829F4DA";
paths = (
{
closed = 1;
nodes = (
"221 0 LINE",
"221 700 LINE",
"33 700 LINE",
"33 0 LINE"
);
}
);
width = 552;
},
{
components = (
{
name = n.curve;
transform = "{1, 0, 0, 1, 84, 0}";
}
);
layerId = "DCBE1F7B-116A-43E0-B7B4-8657BA77D8B5";
paths = (
{
closed = 1;
nodes = (
"99 0 LINE",
"99 700 LINE",
"77 700 LINE",
"77 0 LINE"
);
}
);
width = 408;
}
);
leftKerningGroup = b;
rightKerningGroup = n;
unicode = 0068;
},
{
glyphname = i;
lastChange = "2017-04-24 09:02:51 +0000";
layers = (
{
hints = (
{
origin = "{0, 2}";
target = "{0, 1}";
}
);
layerId = "262880E7-CFE1-4BDA-902E-E24798F3240A";
paths = (
{
closed = 1;
nodes = (
"124 0 LINE",
"124 500 LINE",
"102 500 LINE",
"102 0 LINE"
);
},
{
closed = 1;
nodes = (
"131 620 OFFCURVE",
"144 633 OFFCURVE",
"144 650 CURVE SMOOTH",
"144 666 OFFCURVE",
"131 679 OFFCURVE",
"113 679 CURVE SMOOTH",
"95 679 OFFCURVE",
"81 666 OFFCURVE",
"81 650 CURVE SMOOTH",
"81 633 OFFCURVE",
"95 620 OFFCURVE",
"113 620 CURVE SMOOTH"
);
}
);
width = 234;
},
{
layerId = "4E2227F3-52E4-4048-A8EE-327B486EF0A4";
paths = (
{
closed = 1;
nodes = (
"216 0 LINE",
"216 520 LINE",
"28 520 LINE",
"28 0 LINE"
);
},
{
closed = 1;
nodes = (
"185 542 OFFCURVE",
"226 584 OFFCURVE",
"226 647 CURVE SMOOTH",
"226 710 OFFCURVE",
"185 752 OFFCURVE",
"122 752 CURVE SMOOTH",
"60 752 OFFCURVE",
"18 710 OFFCURVE",
"18 647 CURVE SMOOTH",
"18 584 OFFCURVE",
"60 542 OFFCURVE",
"122 542 CURVE SMOOTH"
);
}
);
width = 246;
},
{
layerId = "FFFA8D72-12AC-4CE0-B2CA-57A29829F4DA";
paths = (
{
closed = 1;
nodes = (
"229 0 LINE",
"229 520 LINE",
"41 520 LINE",
"41 0 LINE"
);
},
{
closed = 1;
nodes = (
"200 536 OFFCURVE",
"243 578 OFFCURVE",
"243 641 CURVE SMOOTH",
"243 704 OFFCURVE",
"200 746 OFFCURVE",
"135 746 CURVE SMOOTH",
"71 746 OFFCURVE",
"27 704 OFFCURVE",
"27 641 CURVE SMOOTH",
"27 578 OFFCURVE",
"71 536 OFFCURVE",
"135 536 CURVE SMOOTH"
);
}
);
width = 273;
},
{
layerId = "DCBE1F7B-116A-43E0-B7B4-8657BA77D8B5";
paths = (
{
closed = 1;
nodes = (
"101 0 LINE",
"101 500 LINE",
"79 500 LINE",
"79 0 LINE"
);
},
{
closed = 1;
nodes = (
"104 620 OFFCURVE",
"115 633 OFFCURVE",
"115 650 CURVE SMOOTH",
"115 666 OFFCURVE",
"104 679 OFFCURVE",
"90 679 CURVE SMOOTH",
"75 679 OFFCURVE",
"63 666 OFFCURVE",
"63 650 CURVE SMOOTH",
"63 633 OFFCURVE",
"75 620 OFFCURVE",
"90 620 CURVE SMOOTH"
);
}
);
width = 185;
}
);
leftKerningGroup = i;
unicode = 0069;
},
{
glyphname = idotless;
lastChange = "2017-04-24 09:09:20 +0000";
layers = (
{
anchors = (
{
name = top;
position = "{97, 509}";
}
);
hints = (
{
origin = "{0, 2}";
target = "{0, 1}";
}
);
layerId = "262880E7-CFE1-4BDA-902E-E24798F3240A";
paths = (
{
closed = 1;
nodes = (
"108 0 LINE",
"108 500 LINE",
"86 500 LINE",
"86 0 LINE"
);
}
);
width = 206;
},
{
anchors = (
{
name = top;
position = "{122, 532}";
}
);
layerId = "FFFA8D72-12AC-4CE0-B2CA-57A29829F4DA";
paths = (
{
closed = 1;
nodes = (
"220 0 LINE",
"220 520 LINE",
"32 520 LINE",
"32 0 LINE"
);
}
);
width = 258;
},
{
anchors = (
{
name = top;
position = "{79, 509}";
}
);
layerId = "DCBE1F7B-116A-43E0-B7B4-8657BA77D8B5";
paths = (
{
closed = 1;
nodes = (
"90 0 LINE",
"90 500 LINE",
"68 500 LINE",
"68 0 LINE"
);
}
);
width = 168;
},
{
anchors = (
{
name = top;
position = "{117, 533}";
}
);
layerId = "4E2227F3-52E4-4048-A8EE-327B486EF0A4";
paths = (
{
closed = 1;
nodes = (
"211 0 LINE",
"211 520 LINE",
"23 520 LINE",
"23 0 LINE"
);
}
);
width = 239;
}
);
leftMetricsKey = "=i+5";
rightMetricsKey = "=i+8";
unicode = 0131;
},
{
glyphname = j;
lastChange = "2017-04-25 00:59:19 +0000";
layers = (
{
hints = (
{
origin = "{0, 4}";
target = "{0, 3}";
},
{
horizontal = 1;
origin = "{0, 9}";
target = "{0, 8}";
}
);
layerId = "262880E7-CFE1-4BDA-902E-E24798F3240A";
paths = (
{
closed = 1;
nodes = (
"68 -211 OFFCURVE",
"121 -159 OFFCURVE",
"121 -74 CURVE SMOOTH",
"121 500 LINE",
"99 500 LINE",
"99 -74 LINE SMOOTH",
"99 -146 OFFCURVE",
"55 -190 OFFCURVE",
"-18 -190 CURVE",
"-18 -211 LINE"
);
},
{
closed = 1;
nodes = (
"131 620 OFFCURVE",
"143 631 OFFCURVE",
"143 650 CURVE SMOOTH",
"143 669 OFFCURVE",
"131 679 OFFCURVE",
"110 679 CURVE SMOOTH",
"92 679 OFFCURVE",
"79 669 OFFCURVE",
"79 650 CURVE SMOOTH",
"79 631 OFFCURVE",
"92 620 OFFCURVE",
"110 620 CURVE SMOOTH"
);
}
);
width = 220;
},
{
layerId = "4E2227F3-52E4-4048-A8EE-327B486EF0A4";
paths = (
{
closed = 1;
nodes = (
"205 -210 OFFCURVE",
"210 -120 OFFCURVE",
"210 29 CURVE SMOOTH",
"210 520 LINE",
"22 520 LINE",
"22 29 LINE SMOOTH",
"22 -19 OFFCURVE",
"7 -49 OFFCURVE",
"-74 -41 CURVE",
"-74 -201 LINE"
);
},
{
closed = 1;
nodes = (
"177 542 OFFCURVE",
"220 589 OFFCURVE",
"220 647 CURVE SMOOTH",
"220 705 OFFCURVE",
"168 752 OFFCURVE",
"116 752 CURVE SMOOTH",
"63 752 OFFCURVE",
"12 705 OFFCURVE",
"12 647 CURVE SMOOTH",
"12 589 OFFCURVE",
"54 542 OFFCURVE",
"116 542 CURVE SMOOTH"
);
}
);
width = 232;
},
{
layerId = "FFFA8D72-12AC-4CE0-B2CA-57A29829F4DA";
paths = (
{
closed = 1;
nodes = (
"170 -209 OFFCURVE",
"231 -163 OFFCURVE",
"231 29 CURVE SMOOTH",
"231 520 LINE",
"43 520 LINE",
"43 26 LINE SMOOTH",
"43 -38 OFFCURVE",
"19 -52 OFFCURVE",
"-76 -44 CURVE",
"-76 -201 LINE"
);
},
{
closed = 1;
nodes = (
"200 536 OFFCURVE",
"245 583 OFFCURVE",
"245 641 CURVE SMOOTH",
"245 699 OFFCURVE",
"192 746 OFFCURVE",
"137 746 CURVE SMOOTH",
"81 746 OFFCURVE",
"29 699 OFFCURVE",
"29 641 CURVE SMOOTH",
"29 583 OFFCURVE",
"72 536 OFFCURVE",
"137 536 CURVE SMOOTH"
);
}
);
width = 264;
},
{
layerId = "DCBE1F7B-116A-43E0-B7B4-8657BA77D8B5";
paths = (
{
closed = 1;
nodes = (
"60 -211 OFFCURVE",
"99 -159 OFFCURVE",
"99 -74 CURVE SMOOTH",
"99 500 LINE",
"77 500 LINE",
"77 -74 LINE SMOOTH",
"77 -146 OFFCURVE",
"45 -190 OFFCURVE",
"-11 -190 CURVE",
"-11 -211 LINE"
);
},
{
closed = 1;
nodes = (
"104 620 OFFCURVE",
"115 631 OFFCURVE",
"115 650 CURVE SMOOTH",
"115 669 OFFCURVE",
"104 679 OFFCURVE",
"88 679 CURVE SMOOTH",
"73 679 OFFCURVE",
"62 669 OFFCURVE",
"62 650 CURVE SMOOTH",
"62 631 OFFCURVE",
"73 620 OFFCURVE",
"88 620 CURVE SMOOTH"
);
}
);
width = 176;
}
);
leftKerningGroup = j;
unicode = 006A;
},
{
glyphname = k;
lastChange = "2017-04-25 02:07:10 +0000";
layers = (
{
guideLines = (
{
angle = 180;
position = "{281, 0}";
showMeasurement = 1;
}
);
hints = (
{
origin = "{0, 11}";
target = "{0, 0}";
},
{
origin = "{0, 3}";
target = "{0, 4}";
},
{
origin = "{0, 7}";
target = "{0, 6}";
}
);
layerId = "262880E7-CFE1-4BDA-902E-E24798F3240A";
paths = (
{
closed = 1;
nodes = (
"121 0 LINE",
"121 198 LINE",
"269 345 LINE",
"421 0 LINE",
"445 0 LINE",
"285 361 LINE",
"425 500 LINE",
"395 500 LINE",
"121 226 LINE",
"121 700 LINE",
"99 700 LINE",
"99 0 LINE"
);
}
);
width = 490;
},
{
layerId = "4E2227F3-52E4-4048-A8EE-327B486EF0A4";
paths = (
{
closed = 1;
nodes = (
"210 0 LINE",
"210 136 LINE",
"222 165 LINE",
"275 0 LINE",
"469 0 LINE",
"338 315 LINE",
"463 520 LINE",
"268 520 LINE",
"210 390 LINE",
"210 700 LINE",
"22 700 LINE",
"22 0 LINE"
);
}
);
width = 479;
},
{
layerId = "FFFA8D72-12AC-4CE0-B2CA-57A29829F4DA";
paths = (
{
closed = 1;
nodes = (
"221 0 LINE",
"221 149 LINE",
"261 205 LINE",
"349 0 LINE",
"543 0 LINE",
"389 325 LINE",
"533 520 LINE",
"319 520 LINE",
"221 378 LINE",
"221 700 LINE",
"33 700 LINE",
"33 0 LINE"
);
}
);
width = 558;
},
{
guideLines = (
{
angle = 180;
position = "{283, 0}";
showMeasurement = 1;
}
);
layerId = "DCBE1F7B-116A-43E0-B7B4-8657BA77D8B5";
paths = (
{
closed = 1;
nodes = (
"99 0 LINE",
"99 200 LINE",
"207 345 LINE",
"318 0 LINE",
"342 0 LINE",
"222 363 LINE",
"326 500 LINE",
"300 500 LINE",
"99 232 LINE",
"99 700 LINE",
"77 700 LINE",
"77 0 LINE"
);
}
);
width = 377;
}
);
leftKerningGroup = b;
rightKerningGroup = k;
unicode = 006B;
},
{
glyphname = l;
lastChange = "2017-04-25 00:40:58 +0000";
layers = (
{
hints = (
{
origin = "{0, 3}";
target = "{0, 0}";
}
);
layerId = "262880E7-CFE1-4BDA-902E-E24798F3240A";
paths = (
{
closed = 1;
nodes = (
"121 0 LINE",
"121 700 LINE",
"99 700 LINE",
"99 0 LINE"
);
}
);
width = 229;
},
{
layerId = "4E2227F3-52E4-4048-A8EE-327B486EF0A4";
paths = (
{
closed = 1;
nodes = (
"210 0 LINE",
"210 700 LINE",
"22 700 LINE",
"22 0 LINE"
);
}
);
width = 234;
},
{
layerId = "FFFA8D72-12AC-4CE0-B2CA-57A29829F4DA";
paths = (
{
closed = 1;
nodes = (
"221 0 LINE",
"221 700 LINE",
"33 700 LINE",
"33 0 LINE"
);
}
);
width = 257;
},
{
layerId = "DCBE1F7B-116A-43E0-B7B4-8657BA77D8B5";
paths = (
{
closed = 1;
nodes = (
"99 0 LINE",
"99 700 LINE",
"77 700 LINE",
"77 0 LINE"
);
}
);
width = 183;
}
);
leftKerningGroup = l;
rightKerningGroup = l;
unicode = 006C;
},
{
glyphname = m;
lastChange = "2017-04-25 02:48:53 +0000";
layers = (
{
hints = (
{
origin = "{0, 3}";
target = "{0, 0}";
},
{
origin = "{1, 15}";
target = "{1, 0}";
},
{
origin = "{2, 15}";
target = "{2, 0}";
},
{
horizontal = 1;
origin = "{1, 4}";
target = "{1, 11}";
}
);
layerId = "262880E7-CFE1-4BDA-902E-E24798F3240A";
paths = (
{
closed = 1;
nodes = (
"121 0 LINE",
"121 500 LINE",
"99 500 LINE",
"99 0 LINE"
);
},
{
closed = 1;
nodes = (
"429 0 LINE",
"429 347 LINE SMOOTH",
"429 446 OFFCURVE",
"364 507 OFFCURVE",
"270 507 CURVE SMOOTH",
"169 507 OFFCURVE",
"104 448 OFFCURVE",
"104 346 CURVE",
"121 346 LINE",
"121 433 OFFCURVE",
"178 486 OFFCURVE",
"268 486 CURVE SMOOTH",
"350 486 OFFCURVE",
"407 432 OFFCURVE",
"407 344 CURVE SMOOTH",
"407 0 LINE"
);
},
{
closed = 1;
nodes = (
"738 0 LINE",
"738 347 LINE SMOOTH",
"738 446 OFFCURVE",
"672 507 OFFCURVE",
"578 507 CURVE SMOOTH",
"478 507 OFFCURVE",
"412 448 OFFCURVE",
"412 346 CURVE",
"429 346 LINE",
"429 433 OFFCURVE",
"487 486 OFFCURVE",
"576 486 CURVE SMOOTH",
"658 486 OFFCURVE",
"716 432 OFFCURVE",
"716 344 CURVE SMOOTH",
"716 0 LINE"
);
}
);
width = 828;
},
{
layerId = "4E2227F3-52E4-4048-A8EE-327B486EF0A4";
paths = (
{
closed = 1;
nodes = (
"210 0 LINE",
"210 520 LINE",
"22 520 LINE",
"22 0 LINE"
);
},
{
closed = 1;
nodes = (
"442 0 LINE",
"442 348 LINE SMOOTH",
"442 459 OFFCURVE",
"401 528 OFFCURVE",
"300 528 CURVE SMOOTH",
"263 528 OFFCURVE",
"163 515 OFFCURVE",
"164 335 CURVE",
"210 335 LINE",
"210 356 OFFCURVE",
"218 367 OFFCURVE",
"233 367 CURVE SMOOTH",
"247 367 OFFCURVE",
"254 356 OFFCURVE",
"254 335 CURVE SMOOTH",
"254 0 LINE"
);
},
{
closed = 1;
nodes = (
"674 0 LINE",
"674 348 LINE SMOOTH",
"674 459 OFFCURVE",
"633 528 OFFCURVE",
"532 528 CURVE SMOOTH",
"491 528 OFFCURVE",
"391 515 OFFCURVE",
"392 335 CURVE",
"442 335 LINE",
"442 356 OFFCURVE",
"450 367 OFFCURVE",
"465 367 CURVE SMOOTH",
"479 367 OFFCURVE",
"486 356 OFFCURVE",
"486 335 CURVE SMOOTH",
"486 0 LINE"
);
}
);
width = 694;
},
{
layerId = "FFFA8D72-12AC-4CE0-B2CA-57A29829F4DA";
paths = (
{
closed = 1;
nodes = (
"221 0 LINE",
"221 520 LINE",
"33 520 LINE",
"33 0 LINE"
);
},
{
closed = 1;
nodes = (
"514 0 LINE",
"514 341 LINE SMOOTH",
"514 460 OFFCURVE",
"453 528 OFFCURVE",
"347 528 CURVE SMOOTH",
"252 528 OFFCURVE",
"184 460 OFFCURVE",
"184 300 CURVE",
"221 300 LINE",
"221 340 OFFCURVE",
"242 367 OFFCURVE",
"274 367 CURVE SMOOTH",
"305 367 OFFCURVE",
"326 340 OFFCURVE",
"326 300 CURVE SMOOTH",
"326 0 LINE"
);
},
{
closed = 1;
nodes = (
"808 0 LINE",
"808 341 LINE SMOOTH",
"808 460 OFFCURVE",
"746 528 OFFCURVE",
"641 528 CURVE SMOOTH",
"546 528 OFFCURVE",
"458 460 OFFCURVE",
"458 300 CURVE",
"514 300 LINE",
"514 340 OFFCURVE",
"536 367 OFFCURVE",
"568 367 CURVE SMOOTH",
"599 367 OFFCURVE",
"620 340 OFFCURVE",
"620 300 CURVE SMOOTH",
"620 0 LINE"
);
}
);
width = 838;
},
{
layerId = "DCBE1F7B-116A-43E0-B7B4-8657BA77D8B5";
paths = (
{
closed = 1;
nodes = (
"99 0 LINE",
"99 500 LINE",
"77 500 LINE",
"77 0 LINE"
);
},
{
closed = 1;
nodes = (
"329 0 LINE",
"329 347 LINE SMOOTH",
"329 446 OFFCURVE",
"281 507 OFFCURVE",
"210 507 CURVE SMOOTH",
"136 507 OFFCURVE",
"83 448 OFFCURVE",
"83 346 CURVE",
"99 346 LINE",
"99 433 OFFCURVE",
"141 486 OFFCURVE",
"206 486 CURVE SMOOTH",
"265 486 OFFCURVE",
"307 432 OFFCURVE",
"307 344 CURVE SMOOTH",
"307 0 LINE"
);
},
{
closed = 1;
nodes = (
"559 0 LINE",
"559 347 LINE SMOOTH",
"559 446 OFFCURVE",
"510 507 OFFCURVE",
"440 507 CURVE SMOOTH",
"366 507 OFFCURVE",
"312 451 OFFCURVE",
"312 346 CURVE",
"329 346 LINE",
"329 433 OFFCURVE",
"371 486 OFFCURVE",
"435 486 CURVE SMOOTH",
"495 486 OFFCURVE",
"537 432 OFFCURVE",
"537 344 CURVE SMOOTH",
"537 0 LINE"
);
}
);
width = 629;
},
{
associatedMasterId = "262880E7-CFE1-4BDA-902E-E24798F3240A";
hints = (
{
origin = "{0, 3}";
target = "{0, 0}";
},
{
origin = "{1, 15}";
target = "{1, 0}";
},
{
origin = "{2, 15}";
target = "{2, 0}";
},
{
horizontal = 1;
origin = "{1, 4}";
target = "{1, 11}";
}
);
layerId = "3D363A3E-CBEB-46DD-BDC0-952664622760";
name = "{100,5}";
paths = (
{
closed = 1;
nodes = (
"168 0 LINE",
"168 509 LINE",
"68 509 LINE",
"68 0 LINE"
);
},
{
closed = 1;
nodes = (
"465 0 LINE",
"465 344 LINE SMOOTH",
"465 453 OFFCURVE",
"404 517 OFFCURVE",
"301 517 CURVE SMOOTH",
"208 517 OFFCURVE",
"131 464 OFFCURVE",
"131 325 CURVE",
"168 325 LINE",
"168 390 OFFCURVE",
"208 430 OFFCURVE",
"267 430 CURVE SMOOTH",
"327 430 OFFCURVE",
"366 389 OFFCURVE",
"366 323 CURVE SMOOTH",
"366 0 LINE"
);
},
{
closed = 1;
nodes = (
"764 0 LINE",
"764 344 LINE SMOOTH",
"764 453 OFFCURVE",
"702 517 OFFCURVE",
"600 517 CURVE SMOOTH",
"507 517 OFFCURVE",
"420 464 OFFCURVE",
"420 325 CURVE",
"465 325 LINE",
"465 390 OFFCURVE",
"507 430 OFFCURVE",
"566 430 CURVE SMOOTH",
"626 430 OFFCURVE",
"665 389 OFFCURVE",
"665 323 CURVE SMOOTH",
"665 0 LINE"
);
}
);
width = 826;
},
{
associatedMasterId = "262880E7-CFE1-4BDA-902E-E24798F3240A";
layerId = "FD7B5D9B-CA7D-42C3-93E7-F3C4034798D2";
name = "{100,3}";
paths = (
{
closed = 1;
nodes = (
"150 0 LINE",
"150 509 LINE",
"51 509 LINE",
"51 0 LINE"
);
},
{
closed = 1;
nodes = (
"381 0 LINE",
"381 347 LINE SMOOTH",
"381 452 OFFCURVE",
"337 517 OFFCURVE",
"252 517 CURVE SMOOTH",
"195 517 OFFCURVE",
"112 479 OFFCURVE",
"112 341 CURVE",
"150 341 LINE",
"150 397 OFFCURVE",
"176 430 OFFCURVE",
"218 430 CURVE SMOOTH",
"256 430 OFFCURVE",
"282 397 OFFCURVE",
"282 340 CURVE SMOOTH",
"282 0 LINE"
);
},
{
closed = 1;
nodes = (
"612 0 LINE",
"612 347 LINE SMOOTH",
"612 452 OFFCURVE",
"567 517 OFFCURVE",
"482 517 CURVE SMOOTH",
"424 517 OFFCURVE",
"340 481 OFFCURVE",
"341 341 CURVE",
"381 341 LINE",
"381 397 OFFCURVE",
"407 430 OFFCURVE",
"449 430 CURVE SMOOTH",
"487 430 OFFCURVE",
"513 397 OFFCURVE",
"513 340 CURVE SMOOTH",
"513 0 LINE"
);
}
);
width = 658;
}
);
leftKerningGroup = n;
rightKerningGroup = h;
unicode = 006D;
},
{
glyphname = n;
lastChange = "2017-04-25 01:58:34 +0000";
layers = (
{
anchors = (
{
name = top;
position = "{266, 500}";
}
);
components = (
{
name = n.curve;
transform = "{1, 0, 0, 1, 103, 0}";
}
);
hints = (
{
origin = "{0, 2}";
target = "{0, 2}";
}
);
layerId = "262880E7-CFE1-4BDA-902E-E24798F3240A";
paths = (
{
closed = 1;
nodes = (
"121 0 LINE",
"121 500 LINE",
"99 500 LINE",
"99 0 LINE"
);
}
);
width = 534;
},
{
anchors = (
{
name = top;
position = "{238, 520}";
}
);
components = (
{
name = n.curve;
transform = "{1, 0, 0, 1, 174, 0}";
}
);
layerId = "4E2227F3-52E4-4048-A8EE-327B486EF0A4";
paths = (
{
closed = 1;
nodes = (
"210 0 LINE",
"210 520 LINE",
"22 520 LINE",
"22 0 LINE"
);
}
);
width = 462;
},
{
anchors = (
{
name = top;
position = "{289, 520}";
}
);
components = (
{
name = n.curve;
transform = "{1, 0, 0, 1, 182, 0}";
}
);
layerId = "FFFA8D72-12AC-4CE0-B2CA-57A29829F4DA";
paths = (
{
closed = 1;
nodes = (
"221 0 LINE",
"221 520 LINE",
"33 520 LINE",
"33 0 LINE"
);
}
);
width = 552;
},
{
anchors = (
{
name = top;
position = "{209, 507}";
}
);
components = (
{
name = n.curve;
transform = "{1, 0, 0, 1, 84, 0}";
}
);
layerId = "DCBE1F7B-116A-43E0-B7B4-8657BA77D8B5";
paths = (
{
closed = 1;
nodes = (
"99 0 LINE",
"99 500 LINE",
"77 500 LINE",
"77 0 LINE"
);
}
);
width = 408;
}
);
leftKerningGroup = n;
rightKerningGroup = n;
unicode = 006E;
},
{
color = 3;
glyphname = o;
lastChange = "2017-04-27 09:59:14 +0000";
layers = (
{
anchors = (
{
name = top;
position = "{258, 508}";
}
);
guideLines = (
{
position = "{256, 135}";
}
);
hints = (
{
horizontal = 1;
origin = "{0, 11}";
target = "{1, 11}";
},
{
origin = "{0, 17}";
target = "{1, 5}";
},
{
origin = "{1, 17}";
target = "{0, 5}";
},
{
horizontal = 1;
origin = "{0, 23}";
target = "{1, 23}";
}
);
layerId = "262880E7-CFE1-4BDA-902E-E24798F3240A";
paths = (
{
closed = 1;
nodes = (
"348 -8 OFFCURVE",
"414 46 OFFCURVE",
"431 123 CURVE SMOOTH",
"438 155 OFFCURVE",
"436 191 OFFCURVE",
"436 250 CURVE SMOOTH",
"436 305 OFFCURVE",
"438 344 OFFCURVE",
"431 377 CURVE SMOOTH",
"414 454 OFFCURVE",
"348 508 OFFCURVE",
"258 508 CURVE SMOOTH",
"169 508 OFFCURVE",
"105 454 OFFCURVE",
"88 377 CURVE SMOOTH",
"80 345 OFFCURVE",
"81 310 OFFCURVE",
"81 251 CURVE SMOOTH",
"81 195 OFFCURVE",
"80 156 OFFCURVE",
"88 123 CURVE SMOOTH",
"106 46 OFFCURVE",
"168 -8 OFFCURVE",
"258 -8 CURVE SMOOTH"
);
},
{
closed = 1;
nodes = (
"176 13 OFFCURVE",
"120 63 OFFCURVE",
"107 135 CURVE SMOOTH",
"103 156 OFFCURVE",
"103 193 OFFCURVE",
"103 250 CURVE SMOOTH",
"103 302 OFFCURVE",
"103 343 OFFCURVE",
"107 365 CURVE SMOOTH",
"120 436 OFFCURVE",
"176 487 OFFCURVE",
"258 487 CURVE SMOOTH",
"340 487 OFFCURVE",
"398 436 OFFCURVE",
"411 365 CURVE SMOOTH",
"415 344 OFFCURVE",
"414 307 OFFCURVE",
"414 250 CURVE SMOOTH",
"414 198 OFFCURVE",
"415 157 OFFCURVE",
"411 135 CURVE SMOOTH",
"398 64 OFFCURVE",
"340 13 OFFCURVE",
"258 13 CURVE SMOOTH"
);
}
);
width = 517;
},
{
anchors = (
{
name = top;
position = "{231, 528}";
}
);
guideLines = (
{
angle = 39.959;
position = "{297, 232}";
showMeasurement = 1;
},
{
angle = -39.959;
position = "{164, 232}";
showMeasurement = 1;
},
{
angle = 39.959;
position = "{297, 404}";
showMeasurement = 1;
},
{
angle = -180;
position = "{232, 260}";
showMeasurement = 1;
},
{
angle = -39.959;
position = "{163, 404}";
showMeasurement = 1;
},
{
position = "{269, 170}";
},
{
position = "{268, 350}";
},
{
position = "{270, 260}";
}
);
layerId = "4E2227F3-52E4-4048-A8EE-327B486EF0A4";
paths = (
{
closed = 1;
nodes = (
"367 -8 OFFCURVE",
"443 57 OFFCURVE",
"443 170 CURVE SMOOTH",
"443 193 OFFCURVE",
"443 237 OFFCURVE",
"443 260 CURVE SMOOTH",
"443 283 OFFCURVE",
"443 327 OFFCURVE",
"443 350 CURVE SMOOTH",
"443 456 OFFCURVE",
"367 528 OFFCURVE",
"231 528 CURVE SMOOTH",
"95 528 OFFCURVE",
"18 456 OFFCURVE",
"18 350 CURVE SMOOTH",
"18 327 OFFCURVE",
"18 283 OFFCURVE",
"18 260 CURVE SMOOTH",
"18 237 OFFCURVE",
"18 193 OFFCURVE",
"18 170 CURVE SMOOTH",
"18 57 OFFCURVE",
"95 -8 OFFCURVE",
"231 -8 CURVE SMOOTH"
);
},
{
closed = 1;
nodes = (
"216 153 OFFCURVE",
"206 166 OFFCURVE",
"206 185 CURVE SMOOTH",
"206 210 OFFCURVE",
"206 235 OFFCURVE",
"206 260 CURVE",
"206 285 OFFCURVE",
"206 310 OFFCURVE",
"206 335 CURVE SMOOTH",
"206 354 OFFCURVE",
"216 367 OFFCURVE",
"231 367 CURVE SMOOTH",
"245 367 OFFCURVE",
"255 354 OFFCURVE",
"255 335 CURVE SMOOTH",
"255 310 OFFCURVE",
"255 285 OFFCURVE",
"255 260 CURVE SMOOTH",
"255 235 OFFCURVE",
"255 210 OFFCURVE",
"255 185 CURVE SMOOTH",
"255 166 OFFCURVE",
"245 153 OFFCURVE",
"231 153 CURVE SMOOTH"
);
}
);
width = 461;
},
{
anchors = (
{
name = top;
position = "{278, 528}";
}
);
guideLines = (
{
position = "{280, 149}";
},
{
position = "{278, 337}";
},
{
position = "{280, 263}";
},
{
position = "{271, 376}";
},
{
position = "{278, 183}";
}
);
layerId = "FFFA8D72-12AC-4CE0-B2CA-57A29829F4DA";
paths = (
{
closed = 1;
nodes = (
"388 -8 OFFCURVE",
"476 55 OFFCURVE",
"512 149 CURVE SMOOTH",
"524 180 OFFCURVE",
"532 218 OFFCURVE",
"532 263 CURVE SMOOTH",
"532 304 OFFCURVE",
"525 343 OFFCURVE",
"512 376 CURVE SMOOTH",
"472 477 OFFCURVE",
"381 528 OFFCURVE",
"279 528 CURVE SMOOTH",
"170 528 OFFCURVE",
"81 470 OFFCURVE",
"44 376 CURVE SMOOTH",
"31 343 OFFCURVE",
"24 304 OFFCURVE",
"24 262 CURVE SMOOTH",
"24 223 OFFCURVE",
"30 185 OFFCURVE",
"44 149 CURVE SMOOTH",
"82 52 OFFCURVE",
"170 -8 OFFCURVE",
"278 -8 CURVE SMOOTH"
);
},
{
closed = 1;
nodes = (
"256 153 OFFCURVE",
"239 163 OFFCURVE",
"228 184 CURVE SMOOTH",
"219 202 OFFCURVE",
"214 228 OFFCURVE",
"214 262 CURVE SMOOTH",
"214 295 OFFCURVE",
"219 320 OFFCURVE",
"228 337 CURVE SMOOTH",
"239 357 OFFCURVE",
"256 367 OFFCURVE",
"278 367 CURVE SMOOTH",
"300 367 OFFCURVE",
"317 357 OFFCURVE",
"327 337 CURVE SMOOTH",
"337 320 OFFCURVE",
"342 295 OFFCURVE",
"342 262 CURVE SMOOTH",
"342 228 OFFCURVE",
"337 202 OFFCURVE",
"327 184 CURVE SMOOTH",
"317 163 OFFCURVE",
"300 153 OFFCURVE",
"278 153 CURVE SMOOTH"
);
}
);
width = 556;
},
{
anchors = (
{
name = top;
position = "{197, 508}";
}
);
guideLines = (
{
angle = 66;
position = "{198, 250}";
showMeasurement = 1;
},
{
angle = 112;
position = "{197, 250}";
showMeasurement = 1;
},
{
angle = -180;
position = "{197, 250}";
showMeasurement = 1;
}
);
layerId = "DCBE1F7B-116A-43E0-B7B4-8657BA77D8B5";
paths = (
{
closed = 1;
nodes = (
"277 -8 OFFCURVE",
"332 52 OFFCURVE",
"332 135 CURVE SMOOTH",
"332 173 OFFCURVE",
"332 212 OFFCURVE",
"332 250 CURVE SMOOTH",
"332 288 OFFCURVE",
"332 327 OFFCURVE",
"332 365 CURVE SMOOTH",
"332 448 OFFCURVE",
"277 508 OFFCURVE",
"197 508 CURVE SMOOTH",
"118 508 OFFCURVE",
"63 448 OFFCURVE",
"63 365 CURVE SMOOTH",
"63 327 OFFCURVE",
"63 288 OFFCURVE",
"63 250 CURVE SMOOTH",
"63 212 OFFCURVE",
"63 173 OFFCURVE",
"63 135 CURVE SMOOTH",
"63 52 OFFCURVE",
"118 -8 OFFCURVE",
"197 -8 CURVE SMOOTH"
);
},
{
closed = 1;
nodes = (
"131 13 OFFCURVE",
"85 63 OFFCURVE",
"85 135 CURVE SMOOTH",
"85 173 OFFCURVE",
"85 212 OFFCURVE",
"85 250 CURVE SMOOTH",
"85 288 OFFCURVE",
"85 327 OFFCURVE",
"85 365 CURVE SMOOTH",
"85 437 OFFCURVE",
"131 487 OFFCURVE",
"197 487 CURVE SMOOTH",
"264 487 OFFCURVE",
"310 437 OFFCURVE",
"310 365 CURVE SMOOTH",
"310 327 OFFCURVE",
"310 288 OFFCURVE",
"310 250 CURVE SMOOTH",
"310 212 OFFCURVE",
"310 173 OFFCURVE",
"310 135 CURVE SMOOTH",
"310 63 OFFCURVE",
"264 13 OFFCURVE",
"197 13 CURVE SMOOTH"
);
}
);
width = 395;
},
{
anchors = (
{
name = top;
position = "{252, 532}";
}
);
associatedMasterId = "FFFA8D72-12AC-4CE0-B2CA-57A29829F4DA";
layerId = "E170A48F-3AE5-4D63-9FF6-9C732EC5D514";
name = "Feb 19 17, 03:14";
paths = (
{
closed = 1;
nodes = (
"416 -8 OFFCURVE",
"514 98 OFFCURVE",
"514 263 CURVE SMOOTH",
"514 424 OFFCURVE",
"421 528 OFFCURVE",
"262 528 CURVE SMOOTH",
"106 528 OFFCURVE",
"10 427 OFFCURVE",
"10 263 CURVE SMOOTH",
"10 101 OFFCURVE",
"105 -8 OFFCURVE",
"262 -8 CURVE SMOOTH"
);
}
);
width = 510;
},
{
anchors = (
{
name = top;
position = "{252, 532}";
}
);
associatedMasterId = "FFFA8D72-12AC-4CE0-B2CA-57A29829F4DA";
layerId = "729CD020-0260-4A10-AF2C-A7559C6B0093";
name = "Feb 19 17, 03:05";
paths = (
{
closed = 1;
nodes = (
"403 -7 OFFCURVE",
"500 93 OFFCURVE",
"500 243 CURVE SMOOTH",
"500 262 LINE",
"500 281 LINE SMOOTH",
"500 432 OFFCURVE",
"401 532 OFFCURVE",
"252 532 CURVE SMOOTH",
"107 532 OFFCURVE",
"10 432 OFFCURVE",
"10 281 CURVE SMOOTH",
"10 275 OFFCURVE",
"10 268 OFFCURVE",
"10 262 CURVE SMOOTH",
"10 255 OFFCURVE",
"10 250 OFFCURVE",
"10 243 CURVE",
"10 92 OFFCURVE",
"109 -7 OFFCURVE",
"258 -7 CURVE SMOOTH"
);
},
{
closed = 1;
nodes = (
"221 154 OFFCURVE",
"198 186 OFFCURVE",
"198 235 CURVE SMOOTH",
"198 290 LINE SMOOTH",
"198 339 OFFCURVE",
"221 371 OFFCURVE",
"255 371 CURVE SMOOTH",
"289 371 OFFCURVE",
"312 339 OFFCURVE",
"312 290 CURVE SMOOTH",
"312 235 LINE SMOOTH",
"312 186 OFFCURVE",
"289 154 OFFCURVE",
"255 154 CURVE SMOOTH"
);
}
);
width = 510;
},
{
anchors = (
{
name = top;
position = "{224, 508}";
}
);
associatedMasterId = "262880E7-CFE1-4BDA-902E-E24798F3240A";
guideLines = (
{
angle = 60;
position = "{224, 250}";
showMeasurement = 1;
},
{
angle = -180;
position = "{224, 250}";
showMeasurement = 1;
},
{
angle = -60;
position = "{224, 250}";
showMeasurement = 1;
}
);
layerId = "B0138EC5-030B-498C-B0B8-CB1265BD0ED1";
name = "old light";
paths = (
{
closed = 1;
nodes = (
"327 -8 OFFCURVE",
"397 67 OFFCURVE",
"397 168 CURVE SMOOTH",
"397 332 LINE SMOOTH",
"397 433 OFFCURVE",
"327 508 OFFCURVE",
"223 508 CURVE SMOOTH",
"119 508 OFFCURVE",
"50 433 OFFCURVE",
"50 332 CURVE SMOOTH",
"50 168 LINE SMOOTH",
"50 67 OFFCURVE",
"119 -8 OFFCURVE",
"223 -8 CURVE SMOOTH"
);
},
{
closed = 1;
nodes = (
"132 13 OFFCURVE",
"72 79 OFFCURVE",
"72 167 CURVE SMOOTH",
"72 333 LINE SMOOTH",
"72 421 OFFCURVE",
"132 487 OFFCURVE",
"223 487 CURVE SMOOTH",
"314 487 OFFCURVE",
"375 421 OFFCURVE",
"375 333 CURVE SMOOTH",
"375 167 LINE SMOOTH",
"375 79 OFFCURVE",
"314 13 OFFCURVE",
"223 13 CURVE SMOOTH"
);
}
);
width = 449;
},
{
anchors = (
{
name = top;
position = "{224, 508}";
}
);
associatedMasterId = "262880E7-CFE1-4BDA-902E-E24798F3240A";
guideLines = (
{
angle = 60;
position = "{224, 250}";
showMeasurement = 1;
},
{
angle = -180;
position = "{224, 250}";
showMeasurement = 1;
},
{
angle = -60;
position = "{224, 250}";
showMeasurement = 1;
}
);
layerId = "1ABF4078-FE11-4FD4-BA40-BAADFE713524";
name = "cond light";
paths = (
{
closed = 1;
nodes = (
"254 -8 OFFCURVE",
"309 51 OFFCURVE",
"309 136 CURVE SMOOTH",
"309 364 LINE SMOOTH",
"309 449 OFFCURVE",
"254 508 OFFCURVE",
"174 508 CURVE SMOOTH",
"95 508 OFFCURVE",
"40 449 OFFCURVE",
"40 364 CURVE SMOOTH",
"40 136 LINE SMOOTH",
"40 51 OFFCURVE",
"95 -8 OFFCURVE",
"174 -8 CURVE SMOOTH"
);
},
{
closed = 1;
nodes = (
"108 13 OFFCURVE",
"62 63 OFFCURVE",
"62 135 CURVE SMOOTH",
"62 365 LINE SMOOTH",
"62 437 OFFCURVE",
"108 487 OFFCURVE",
"174 487 CURVE SMOOTH",
"241 487 OFFCURVE",
"287 437 OFFCURVE",
"287 365 CURVE SMOOTH",
"287 135 LINE SMOOTH",
"287 63 OFFCURVE",
"241 13 OFFCURVE",
"174 13 CURVE SMOOTH"
);
}
);
width = 349;
},
{
anchors = (
{
name = top;
position = "{223, 532}";
}
);
associatedMasterId = "4E2227F3-52E4-4048-A8EE-327B486EF0A4";
guideLines = (
{
angle = 39.959;
position = "{289, 232}";
showMeasurement = 1;
},
{
angle = -39.959;
position = "{156, 232}";
showMeasurement = 1;
},
{
angle = 39.959;
position = "{289, 404}";
showMeasurement = 1;
},
{
angle = -180;
position = "{224, 260}";
showMeasurement = 1;
},
{
angle = -39.959;
position = "{155, 404}";
showMeasurement = 1;
}
);
layerId = "A2592930-FB52-446A-8915-5702D869B7BD";
name = oldbc;
paths = (
{
closed = 1;
nodes = (
"359 -7 OFFCURVE",
"435 67 OFFCURVE",
"435 190 CURVE SMOOTH",
"435 330 LINE SMOOTH",
"435 456 OFFCURVE",
"359 532 OFFCURVE",
"223 532 CURVE SMOOTH",
"87 532 OFFCURVE",
"10 456 OFFCURVE",
"10 330 CURVE SMOOTH",
"10 190 LINE SMOOTH",
"10 67 OFFCURVE",
"87 -7 OFFCURVE",
"223 -7 CURVE SMOOTH"
);
},
{
closed = 1;
nodes = (
"206 154 OFFCURVE",
"198 165 OFFCURVE",
"198 186 CURVE SMOOTH",
"198 339 LINE SMOOTH",
"198 360 OFFCURVE",
"206 371 OFFCURVE",
"223 371 CURVE SMOOTH",
"239 371 OFFCURVE",
"247 360 OFFCURVE",
"247 339 CURVE SMOOTH",
"247 186 LINE SMOOTH",
"247 165 OFFCURVE",
"239 154 OFFCURVE",
"223 154 CURVE SMOOTH"
);
}
);
width = 445;
},
{
anchors = (
{
name = top;
position = "{251, 528}";
}
);
associatedMasterId = "FFFA8D72-12AC-4CE0-B2CA-57A29829F4DA";
guideLines = (
{
angle = -180;
position = "{174, 260}";
showMeasurement = 1;
},
{
angle = -59.0044;
position = "{218, 260}";
showMeasurement = 1;
},
{
angle = 59.004;
position = "{290, 260}";
showMeasurement = 1;
},
{
angle = 59.004;
position = "{290, 260}";
showMeasurement = 1;
},
{
angle = 59.004;
position = "{290, 380}";
showMeasurement = 1;
},
{
angle = -59.004;
position = "{220, 380}";
showMeasurement = 1;
}
);
layerId = "3864C296-439A-4200-9E6D-A7A6FACAB388";
name = oldbold;
paths = (
{
closed = 1;
nodes = (
"402 -7 OFFCURVE",
"500 93 OFFCURVE",
"500 244 CURVE SMOOTH",
"500 281 LINE SMOOTH",
"500 432 OFFCURVE",
"402 532 OFFCURVE",
"255 532 CURVE SMOOTH",
"108 532 OFFCURVE",
"10 432 OFFCURVE",
"10 281 CURVE SMOOTH",
"10 244 LINE SMOOTH",
"10 93 OFFCURVE",
"108 -7 OFFCURVE",
"255 -7 CURVE SMOOTH"
);
},
{
closed = 1;
nodes = (
"221 154 OFFCURVE",
"198 186 OFFCURVE",
"198 235 CURVE SMOOTH",
"198 290 LINE SMOOTH",
"198 339 OFFCURVE",
"221 371 OFFCURVE",
"255 371 CURVE SMOOTH",
"289 371 OFFCURVE",
"312 339 OFFCURVE",
"312 290 CURVE SMOOTH",
"312 235 LINE SMOOTH",
"312 186 OFFCURVE",
"289 154 OFFCURVE",
"255 154 CURVE SMOOTH"
);
}
);
width = 510;
},
{
anchors = (
{
name = top;
position = "{251, 528}";
}
);
associatedMasterId = "FFFA8D72-12AC-4CE0-B2CA-57A29829F4DA";
guideLines = (
{
angle = -29.004;
position = "{218, 260}";
showMeasurement = 1;
},
{
angle = 59.004;
position = "{290, 260}";
showMeasurement = 1;
},
{
angle = 59.004;
position = "{290, 260}";
showMeasurement = 1;
},
{
angle = 59.004;
position = "{290, 380}";
showMeasurement = 1;
},
{
angle = -59.004;
position = "{220, 380}";
showMeasurement = 1;
}
);
layerId = "DE3342F3-73B1-435C-BEC9-D64414508369";
name = "Feb 19 17, 05:54";
paths = (
{
closed = 1;
nodes = (
"402 -7 OFFCURVE",
"500 93 OFFCURVE",
"500 244 CURVE SMOOTH",
"500 281 LINE SMOOTH",
"500 432 OFFCURVE",
"402 532 OFFCURVE",
"255 532 CURVE SMOOTH",
"108 532 OFFCURVE",
"10 432 OFFCURVE",
"10 281 CURVE SMOOTH",
"10 244 LINE SMOOTH",
"10 93 OFFCURVE",
"108 -7 OFFCURVE",
"255 -7 CURVE SMOOTH"
);
},
{
closed = 1;
nodes = (
"221 154 OFFCURVE",
"198 186 OFFCURVE",
"198 235 CURVE SMOOTH",
"198 290 LINE SMOOTH",
"198 339 OFFCURVE",
"221 371 OFFCURVE",
"255 371 CURVE SMOOTH",
"289 371 OFFCURVE",
"312 339 OFFCURVE",
"312 290 CURVE SMOOTH",
"312 235 LINE SMOOTH",
"312 186 OFFCURVE",
"289 154 OFFCURVE",
"255 154 CURVE SMOOTH"
);
}
);
width = 510;
},
{
anchors = (
{
name = top;
position = "{251, 528}";
}
);
associatedMasterId = "FFFA8D72-12AC-4CE0-B2CA-57A29829F4DA";
guideLines = (
{
angle = -29.004;
position = "{218, 260}";
showMeasurement = 1;
},
{
angle = 59.004;
position = "{290, 260}";
showMeasurement = 1;
},
{
angle = 59.004;
position = "{290, 260}";
showMeasurement = 1;
},
{
angle = 59.004;
position = "{290, 380}";
showMeasurement = 1;
},
{
angle = -59.004;
position = "{220, 380}";
showMeasurement = 1;
}
);
layerId = "D68179E8-F548-401F-8247-1E270525670B";
name = "Feb 19 17, 05:55";
paths = (
{
closed = 1;
nodes = (
"292 -8 OFFCURVE",
"332 -1 OFFCURVE",
"366 14 CURVE SMOOTH",
"545 94 OFFCURVE",
"550 420 OFFCURVE",
"366 505 CURVE SMOOTH",
"333 520 OFFCURVE",
"294 528 OFFCURVE",
"251 528 CURVE SMOOTH",
"213 528 OFFCURVE",
"176 522 OFFCURVE",
"144 508 CURVE SMOOTH",
"-40 428 OFFCURVE",
"-38 91 OFFCURVE",
"142 12 CURVE SMOOTH",
"174 -2 OFFCURVE",
"211 -8 OFFCURVE",
"250 -8 CURVE SMOOTH"
);
},
{
closed = 1;
nodes = (
"236 153 OFFCURVE",
"220 158 OFFCURVE",
"209 182 CURVE SMOOTH",
"192 220 OFFCURVE",
"191 300 OFFCURVE",
"210 339 CURVE SMOOTH",
"218 355 OFFCURVE",
"231 367 OFFCURVE",
"253 367 CURVE SMOOTH",
"268 367 OFFCURVE",
"281 361 OFFCURVE",
"292 339 CURVE SMOOTH",
"314 296 OFFCURVE",
"317 223 OFFCURVE",
"297 182 CURVE SMOOTH",
"288 163 OFFCURVE",
"274 153 OFFCURVE",
"252 153 CURVE SMOOTH"
);
}
);
width = 510;
},
{
anchors = (
{
name = top;
position = "{223, 532}";
}
);
associatedMasterId = "4E2227F3-52E4-4048-A8EE-327B486EF0A4";
guideLines = (
{
angle = 39.959;
position = "{289, 232}";
showMeasurement = 1;
},
{
angle = -39.959;
position = "{156, 232}";
showMeasurement = 1;
},
{
angle = 39.959;
position = "{289, 404}";
showMeasurement = 1;
},
{
angle = -180;
position = "{224, 260}";
showMeasurement = 1;
},
{
angle = -39.959;
position = "{155, 404}";
showMeasurement = 1;
}
);
layerId = "F7F399D2-DBAD-450E-B011-6AA073A84551";
name = "Feb 24 17, 00:19";
paths = (
{
closed = 1;
nodes = (
"359 -7 OFFCURVE",
"435 57 OFFCURVE",
"435 170 CURVE SMOOTH",
"435 193 OFFCURVE",
"435 237 OFFCURVE",
"435 260 CURVE SMOOTH",
"435 283 OFFCURVE",
"435 327 OFFCURVE",
"435 350 CURVE SMOOTH",
"435 456 OFFCURVE",
"359 532 OFFCURVE",
"223 532 CURVE SMOOTH",
"87 532 OFFCURVE",
"10 456 OFFCURVE",
"10 350 CURVE SMOOTH",
"10 327 OFFCURVE",
"10 283 OFFCURVE",
"10 260 CURVE SMOOTH",
"10 237 OFFCURVE",
"10 193 OFFCURVE",
"10 170 CURVE SMOOTH",
"10 57 OFFCURVE",
"87 -7 OFFCURVE",
"223 -7 CURVE SMOOTH"
);
},
{
closed = 1;
nodes = (
"215 154 OFFCURVE",
"207 158 OFFCURVE",
"204 164 CURVE SMOOTH",
"198 175 OFFCURVE",
"198 195 OFFCURVE",
"198 260 CURVE SMOOTH",
"198 332 OFFCURVE",
"197 348 OFFCURVE",
"204 360 CURVE SMOOTH",
"208 366 OFFCURVE",
"214 371 OFFCURVE",
"223 371 CURVE SMOOTH",
"231 371 OFFCURVE",
"238 366 OFFCURVE",
"241 360 CURVE SMOOTH",
"247 348 OFFCURVE",
"247 332 OFFCURVE",
"247 260 CURVE SMOOTH",
"247 196 OFFCURVE",
"247 176 OFFCURVE",
"241 164 CURVE SMOOTH",
"238 158 OFFCURVE",
"231 154 OFFCURVE",
"223 154 CURVE SMOOTH"
);
}
);
width = 445;
},
{
anchors = (
{
name = top;
position = "{262, 528}";
}
);
associatedMasterId = "FFFA8D72-12AC-4CE0-B2CA-57A29829F4DA";
guideLines = (
{
position = "{263, 144}";
},
{
position = "{262, 381}";
},
{
position = "{264, 263}";
},
{
position = "{262, 340}";
},
{
position = "{262, 186}";
}
);
layerId = "080DEFAF-74FD-4956-92F6-84BCF3C584DE";
name = "Feb 24 17, 15:49";
paths = (
{
closed = 1;
nodes = (
"372 -8 OFFCURVE",
"459 49 OFFCURVE",
"494 144 CURVE SMOOTH",
"507 179 OFFCURVE",
"514 219 OFFCURVE",
"514 263 CURVE SMOOTH",
"514 307 OFFCURVE",
"507 346 OFFCURVE",
"494 381 CURVE SMOOTH",
"459 476 OFFCURVE",
"372 528 OFFCURVE",
"262 528 CURVE SMOOTH",
"152 528 OFFCURVE",
"65 476 OFFCURVE",
"30 381 CURVE SMOOTH",
"17 346 OFFCURVE",
"10 307 OFFCURVE",
"10 263 CURVE SMOOTH",
"10 219 OFFCURVE",
"17 179 OFFCURVE",
"30 144 CURVE SMOOTH",
"65 49 OFFCURVE",
"152 -8 OFFCURVE",
"262 -8 CURVE SMOOTH"
);
},
{
closed = 1;
nodes = (
"237 153 OFFCURVE",
"221 165 OFFCURVE",
"212 185 CURVE SMOOTH",
"203 205 OFFCURVE",
"200 232 OFFCURVE",
"200 262 CURVE SMOOTH",
"200 298 OFFCURVE",
"202 316 OFFCURVE",
"212 336 CURVE SMOOTH",
"222 355 OFFCURVE",
"237 367 OFFCURVE",
"262 367 CURVE SMOOTH",
"287 367 OFFCURVE",
"302 355 OFFCURVE",
"312 336 CURVE SMOOTH",
"322 317 OFFCURVE",
"324 290 OFFCURVE",
"324 262 CURVE SMOOTH",
"324 232 OFFCURVE",
"321 205 OFFCURVE",
"312 185 CURVE SMOOTH",
"303 165 OFFCURVE",
"287 153 OFFCURVE",
"262 153 CURVE SMOOTH"
);
}
);
width = 524;
},
{
anchors = (
{
name = top;
position = "{273, 517}";
}
);
associatedMasterId = "DCBE1F7B-116A-43E0-B7B4-8657BA77D8B5";
guideLines = (
{
angle = 66;
position = "{204, 250}";
showMeasurement = 1;
},
{
angle = 112;
position = "{203, 250}";
showMeasurement = 1;
},
{
angle = -180;
position = "{203, 250}";
showMeasurement = 1;
}
);
hints = (
{
horizontal = 1;
origin = "{0, 11}";
target = "{1, 11}";
},
{
origin = "{0, 17}";
target = "{1, 5}";
},
{
origin = "{1, 17}";
target = "{0, 5}";
},
{
horizontal = 1;
origin = "{0, 23}";
target = "{1, 23}";
}
);
layerId = "53C83777-7F75-4CD6-84D5-D06E7681C4E0";
name = "{100,5}";
paths = (
{
closed = 1;
nodes = (
"368 -8 OFFCURVE",
"441 45 OFFCURVE",
"472 135 CURVE SMOOTH",
"484 170 OFFCURVE",
"491 215 OFFCURVE",
"491 257 CURVE SMOOTH",
"491 299 OFFCURVE",
"484 343 OFFCURVE",
"472 377 CURVE SMOOTH",
"441 465 OFFCURVE",
"369 517 OFFCURVE",
"276 517 CURVE SMOOTH",
"177 517 OFFCURVE",
"102 465 OFFCURVE",
"73 376 CURVE SMOOTH",
"62 344 OFFCURVE",
"56 299 OFFCURVE",
"56 256 CURVE SMOOTH",
"56 213 OFFCURVE",
"63 168 OFFCURVE",
"74 135 CURVE SMOOTH",
"105 45 OFFCURVE",
"179 -8 OFFCURVE",
"275 -8 CURVE SMOOTH"
);
},
{
closed = 1;
nodes = (
"223 78 OFFCURVE",
"183 109 OFFCURVE",
"168 162 CURVE SMOOTH",
"161 185 OFFCURVE",
"157 220 OFFCURVE",
"157 255 CURVE SMOOTH",
"157 291 OFFCURVE",
"161 325 OFFCURVE",
"168 347 CURVE SMOOTH",
"184 400 OFFCURVE",
"223 431 OFFCURVE",
"273 431 CURVE SMOOTH",
"324 431 OFFCURVE",
"363 400 OFFCURVE",
"379 347 CURVE SMOOTH",
"386 325 OFFCURVE",
"390 291 OFFCURVE",
"390 255 CURVE SMOOTH",
"390 222 OFFCURVE",
"386 187 OFFCURVE",
"378 162 CURVE SMOOTH",
"361 109 OFFCURVE",
"323 78 OFFCURVE",
"275 78 CURVE SMOOTH"
);
}
);
width = 547;
},
{
anchors = (
{
name = top;
position = "{256, 528}";
}
);
associatedMasterId = "FFFA8D72-12AC-4CE0-B2CA-57A29829F4DA";
guideLines = (
{
position = "{283, 149}";
},
{
position = "{250, 331}";
},
{
position = "{283, 261}";
},
{
position = "{274, 376}";
},
{
position = "{260, 188}";
}
);
layerId = "9131EA4A-BBE3-4C8D-8E18-BA6EBF392584";
name = "188,4} Apr 20 17, 01:22";
paths = (
{
closed = 1;
nodes = (
"379 -8 OFFCURVE",
"461 56 OFFCURVE",
"479 160 CURVE SMOOTH",
"485 187 OFFCURVE",
"489 228 OFFCURVE",
"489 262 CURVE SMOOTH",
"489 294 OFFCURVE",
"486 335 OFFCURVE",
"479 363 CURVE SMOOTH",
"459 467 OFFCURVE",
"376 528 OFFCURVE",
"257 528 CURVE SMOOTH",
"134 528 OFFCURVE",
"51 463 OFFCURVE",
"33 363 CURVE SMOOTH",
"26 335 OFFCURVE",
"23 294 OFFCURVE",
"23 261 CURVE SMOOTH",
"23 230 OFFCURVE",
"26 189 OFFCURVE",
"33 160 CURVE SMOOTH",
"52 55 OFFCURVE",
"134 -8 OFFCURVE",
"256 -8 CURVE SMOOTH"
);
},
{
closed = 1;
nodes = (
"238 153 OFFCURVE",
"224 167 OFFCURVE",
"218 189 CURVE SMOOTH",
"214 211 OFFCURVE",
"212 235 OFFCURVE",
"212 261 CURVE SMOOTH",
"212 287 OFFCURVE",
"214 310 OFFCURVE",
"218 332 CURVE SMOOTH",
"224 353 OFFCURVE",
"238 367 OFFCURVE",
"256 367 CURVE SMOOTH",
"274 367 OFFCURVE",
"288 354 OFFCURVE",
"294 332 CURVE SMOOTH",
"298 311 OFFCURVE",
"300 287 OFFCURVE",
"300 261 CURVE SMOOTH",
"300 235 OFFCURVE",
"298 211 OFFCURVE",
"294 189 CURVE SMOOTH",
"288 167 OFFCURVE",
"274 153 OFFCURVE",
"256 153 CURVE SMOOTH"
);
}
);
width = 512;
},
{
anchors = (
{
name = top;
position = "{281, 528}";
}
);
associatedMasterId = "FFFA8D72-12AC-4CE0-B2CA-57A29829F4DA";
guideLines = (
{
position = "{283, 149}";
},
{
position = "{281, 337}";
},
{
position = "{283, 263}";
},
{
position = "{274, 376}";
},
{
position = "{281, 183}";
}
);
layerId = "C9C55E62-BC20-44D0-B3C4-651FFE6784D0";
name = "Apr 20 17, 01:24";
paths = (
{
closed = 1;
nodes = (
"391 -8 OFFCURVE",
"479 55 OFFCURVE",
"515 149 CURVE SMOOTH",
"527 180 OFFCURVE",
"535 218 OFFCURVE",
"535 263 CURVE SMOOTH",
"535 304 OFFCURVE",
"528 343 OFFCURVE",
"515 376 CURVE SMOOTH",
"475 477 OFFCURVE",
"384 528 OFFCURVE",
"282 528 CURVE SMOOTH",
"173 528 OFFCURVE",
"84 470 OFFCURVE",
"47 376 CURVE SMOOTH",
"34 343 OFFCURVE",
"27 304 OFFCURVE",
"27 262 CURVE SMOOTH",
"27 223 OFFCURVE",
"33 185 OFFCURVE",
"47 149 CURVE SMOOTH",
"85 52 OFFCURVE",
"173 -8 OFFCURVE",
"281 -8 CURVE SMOOTH"
);
},
{
closed = 1;
nodes = (
"259 153 OFFCURVE",
"242 163 OFFCURVE",
"231 184 CURVE SMOOTH",
"222 202 OFFCURVE",
"217 228 OFFCURVE",
"217 262 CURVE SMOOTH",
"217 295 OFFCURVE",
"222 320 OFFCURVE",
"231 337 CURVE SMOOTH",
"242 357 OFFCURVE",
"259 367 OFFCURVE",
"281 367 CURVE SMOOTH",
"303 367 OFFCURVE",
"320 357 OFFCURVE",
"330 337 CURVE SMOOTH",
"340 320 OFFCURVE",
"345 295 OFFCURVE",
"345 262 CURVE SMOOTH",
"345 228 OFFCURVE",
"340 202 OFFCURVE",
"330 184 CURVE SMOOTH",
"320 163 OFFCURVE",
"303 153 OFFCURVE",
"281 153 CURVE SMOOTH"
);
}
);
width = 562;
}
);
leftKerningGroup = o;
rightKerningGroup = o;
unicode = 006F;
},
{
color = 3;
glyphname = oslash;
lastChange = "2017-04-27 10:02:08 +0000";
layers = (
{
components = (
{
name = o;
transform = "{1, 0, 0, 1, 2, 0}";
}
);
layerId = "262880E7-CFE1-4BDA-902E-E24798F3240A";
paths = (
{
closed = 1;
nodes = (
"81 -10 LINE",
"99 -22 LINE",
"440 510 LINE",
"421 522 LINE"
);
}
);
width = 521;
},
{
components = (
{
name = o;
}
);
layerId = "FFFA8D72-12AC-4CE0-B2CA-57A29829F4DA";
paths = (
{
closed = 1;
nodes = (
"60 -1 LINE",
"116 -43 LINE",
"513 520 LINE",
"457 562 LINE"
);
}
);
width = 556;
},
{
components = (
{
name = o;
}
);
layerId = "DCBE1F7B-116A-43E0-B7B4-8657BA77D8B5";
paths = (
{
closed = 1;
nodes = (
"76 -11 LINE",
"96 -20 LINE",
"325 517 LINE",
"305 526 LINE"
);
}
);
width = 395;
},
{
components = (
{
name = o;
}
);
layerId = "4E2227F3-52E4-4048-A8EE-327B486EF0A4";
paths = (
{
closed = 1;
nodes = (
"49 2 LINE",
"98 -33 LINE",
"413 518 LINE",
"364 553 LINE"
);
}
);
width = 461;
},
{
associatedMasterId = "4E2227F3-52E4-4048-A8EE-327B486EF0A4";
components = (
{
name = o;
}
);
layerId = "7612D324-623E-43BE-8E83-BA2F140089CB";
name = "Mar 11 17, 03:09";
paths = (
{
closed = 0;
nodes = (
"29 -30 LINE",
"417 550 LINE"
);
}
);
width = 445;
},
{
associatedMasterId = "4E2227F3-52E4-4048-A8EE-327B486EF0A4";
components = (
{
name = o;
transform = "{1, 0, 0, 1, 31, 0}";
}
);
layerId = "92E5A5E4-16C2-4CBD-A4EF-FCC9D4499A9B";
name = "{100,5}";
paths = (
{
closed = 1;
nodes = (
"56 2 LINE",
"121 -45 LINE",
"496 511 LINE",
"431 558 LINE"
);
}
);
width = 578;
},
{
associatedMasterId = "4E2227F3-52E4-4048-A8EE-327B486EF0A4";
components = (
{
name = o;
transform = "{1, 0, 0, 1, 25, 0}";
}
);
layerId = "09747819-426A-476F-92E4-309237D14A88";
name = "{100,3}";
paths = (
{
closed = 1;
nodes = (
"42 0 LINE",
"110 -40 LINE",
"409 509 LINE",
"341 548 LINE"
);
}
);
width = 451;
}
);
leftKerningGroup = o;
leftMetricsKey = "=o";
rightKerningGroup = o;
rightMetricsKey = "=o";
unicode = 00F8;
},
{
glyphname = oe;
lastChange = "2017-04-28 09:44:34 +0000";
layers = (
{
hints = (
{
horizontal = 1;
origin = "{0, 11}";
target = "{1, 11}";
},
{
origin = "{0, 17}";
target = "{1, 5}";
},
{
origin = "{1, 17}";
target = "{0, 5}";
},
{
horizontal = 1;
origin = "{0, 23}";
target = "{1, 23}";
},
{
origin = "{2, 40}";
target = "{0, 5}";
},
{
origin = "{2, 24}";
target = "{2, 28}";
},
{
horizontal = 1;
origin = "{2, 28}";
target = "{2, 24}";
},
{
horizontal = 1;
origin = "{2, 34}";
target = "{2, 18}";
},
{
horizontal = 1;
origin = "{2, 46}";
target = "{2, 6}";
},
{
origin = "{2, 3}";
target = "{2, 2}";
}
);
layerId = "262880E7-CFE1-4BDA-902E-E24798F3240A";
paths = (
{
closed = 1;
nodes = (
"348 -8 OFFCURVE",
"416 49 OFFCURVE",
"431 126 CURVE SMOOTH",
"437 158 OFFCURVE",
"436 191 OFFCURVE",
"436 250 CURVE SMOOTH",
"436 305 OFFCURVE",
"437 341 OFFCURVE",
"431 374 CURVE SMOOTH",
"416 451 OFFCURVE",
"348 508 OFFCURVE",
"258 508 CURVE SMOOTH",
"169 508 OFFCURVE",
"105 454 OFFCURVE",
"88 377 CURVE SMOOTH",
"80 345 OFFCURVE",
"81 310 OFFCURVE",
"81 251 CURVE SMOOTH",
"81 195 OFFCURVE",
"80 156 OFFCURVE",
"88 123 CURVE SMOOTH",
"106 46 OFFCURVE",
"168 -8 OFFCURVE",
"258 -8 CURVE SMOOTH"
);
},
{
closed = 1;
nodes = (
"176 13 OFFCURVE",
"120 63 OFFCURVE",
"107 135 CURVE SMOOTH",
"103 156 OFFCURVE",
"103 193 OFFCURVE",
"103 250 CURVE SMOOTH",
"103 302 OFFCURVE",
"103 343 OFFCURVE",
"107 365 CURVE SMOOTH",
"120 436 OFFCURVE",
"176 487 OFFCURVE",
"258 487 CURVE SMOOTH",
"340 487 OFFCURVE",
"398 436 OFFCURVE",
"411 365 CURVE SMOOTH",
"415 344 OFFCURVE",
"414 307 OFFCURVE",
"414 250 CURVE SMOOTH",
"414 198 OFFCURVE",
"415 157 OFFCURVE",
"411 135 CURVE SMOOTH",
"398 64 OFFCURVE",
"340 13 OFFCURVE",
"258 13 CURVE SMOOTH"
);
},
{
closed = 1;
nodes = (
"679 -8 OFFCURVE",
"743 44 OFFCURVE",
"762 118 CURVE",
"740 117 LINE",
"722 56 OFFCURVE",
"667 13 OFFCURVE",
"591 13 CURVE SMOOTH",
"509 13 OFFCURVE",
"453 63 OFFCURVE",
"440 135 CURVE SMOOTH",
"436 156 OFFCURVE",
"436 193 OFFCURVE",
"436 250 CURVE SMOOTH",
"436 302 OFFCURVE",
"436 343 OFFCURVE",
"440 365 CURVE SMOOTH",
"453 436 OFFCURVE",
"509 487 OFFCURVE",
"591 487 CURVE SMOOTH",
"673 487 OFFCURVE",
"730 436 OFFCURVE",
"744 365 CURVE SMOOTH",
"747 345 OFFCURVE",
"748 302 OFFCURVE",
"748 258 CURVE",
"757 267 LINE",
"426 267 LINE",
"426 249 LINE",
"770 249 LINE",
"770 335 OFFCURVE",
"770 350 OFFCURVE",
"764 377 CURVE SMOOTH",
"746 454 OFFCURVE",
"681 508 OFFCURVE",
"591 508 CURVE SMOOTH",
"502 508 OFFCURVE",
"436 451 OFFCURVE",
"421 374 CURVE SMOOTH",
"415 342 OFFCURVE",
"414 310 OFFCURVE",
"414 251 CURVE SMOOTH",
"414 195 OFFCURVE",
"414 159 OFFCURVE",
"421 126 CURVE SMOOTH",
"437 49 OFFCURVE",
"502 -8 OFFCURVE",
"591 -8 CURVE SMOOTH"
);
}
);
width = 842;
},
{
layerId = "FFFA8D72-12AC-4CE0-B2CA-57A29829F4DA";
paths = (
{
closed = 1;
nodes = (
"388 -8 OFFCURVE",
"476 75 OFFCURVE",
"512 169 CURVE SMOOTH",
"524 200 OFFCURVE",
"532 218 OFFCURVE",
"532 263 CURVE SMOOTH",
"532 304 OFFCURVE",
"525 323 OFFCURVE",
"512 356 CURVE SMOOTH",
"472 457 OFFCURVE",
"381 528 OFFCURVE",
"279 528 CURVE SMOOTH",
"170 528 OFFCURVE",
"81 470 OFFCURVE",
"44 376 CURVE SMOOTH",
"31 343 OFFCURVE",
"24 304 OFFCURVE",
"24 262 CURVE SMOOTH",
"24 223 OFFCURVE",
"30 185 OFFCURVE",
"44 149 CURVE SMOOTH",
"82 52 OFFCURVE",
"170 -8 OFFCURVE",
"278 -8 CURVE SMOOTH"
);
},
{
closed = 1;
nodes = (
"256 153 OFFCURVE",
"238 168 OFFCURVE",
"227 193 CURVE SMOOTH",
"219 212 OFFCURVE",
"214 235 OFFCURVE",
"214 262 CURVE SMOOTH",
"214 288 OFFCURVE",
"218 310 OFFCURVE",
"226 328 CURVE SMOOTH",
"238 352 OFFCURVE",
"256 367 OFFCURVE",
"278 367 CURVE SMOOTH",
"300 367 OFFCURVE",
"318 353 OFFCURVE",
"329 328 CURVE SMOOTH",
"337 311 OFFCURVE",
"342 288 OFFCURVE",
"342 262 CURVE SMOOTH",
"342 235 OFFCURVE",
"337 211 OFFCURVE",
"329 193 CURVE SMOOTH",
"318 168 OFFCURVE",
"300 153 OFFCURVE",
"278 153 CURVE SMOOTH"
);
},
{
closed = 1;
nodes = (
"717 -8 OFFCURVE",
"787 23 OFFCURVE",
"842 81 CURVE",
"755 187 LINE",
"734 162 OFFCURVE",
"695 149 OFFCURVE",
"649 149 CURVE SMOOTH",
"597 149 OFFCURVE",
"569 162 OFFCURVE",
"556 193 CURVE SMOOTH",
"548 210 OFFCURVE",
"545 233 OFFCURVE",
"545 262 CURVE SMOOTH",
"545 286 OFFCURVE",
"549 309 OFFCURVE",
"556 327 CURVE SMOOTH",
"566 351 OFFCURVE",
"584 367 OFFCURVE",
"611 367 CURVE SMOOTH",
"639 367 OFFCURVE",
"657 351 OFFCURVE",
"667 327 CURVE SMOOTH",
"674 310 OFFCURVE",
"677 287 OFFCURVE",
"677 262 CURVE",
"748 305 LINE",
"491 305 LINE",
"491 213 LINE",
"866 213 LINE",
"866 298 OFFCURVE",
"858 343 OFFCURVE",
"847 373 CURVE SMOOTH",
"814 462 OFFCURVE",
"723 528 OFFCURVE",
"609 528 CURVE SMOOTH",
"503 528 OFFCURVE",
"413 451 OFFCURVE",
"376 355 CURVE SMOOTH",
"362 319 OFFCURVE",
"356 300 OFFCURVE",
"356 262 CURVE SMOOTH",
"356 219 OFFCURVE",
"364 201 OFFCURVE",
"376 169 CURVE SMOOTH",
"414 68 OFFCURVE",
"498 -8 OFFCURVE",
"624 -8 CURVE SMOOTH"
);
}
);
width = 890;
},
{
layerId = "DCBE1F7B-116A-43E0-B7B4-8657BA77D8B5";
paths = (
{
closed = 1;
nodes = (
"277 -8 OFFCURVE",
"328 52 OFFCURVE",
"332 135 CURVE SMOOTH",
"334 173 OFFCURVE",
"332 212 OFFCURVE",
"332 250 CURVE SMOOTH",
"332 288 OFFCURVE",
"334 327 OFFCURVE",
"332 365 CURVE SMOOTH",
"328 448 OFFCURVE",
"277 508 OFFCURVE",
"197 508 CURVE SMOOTH",
"118 508 OFFCURVE",
"63 448 OFFCURVE",
"63 365 CURVE SMOOTH",
"63 327 OFFCURVE",
"63 288 OFFCURVE",
"63 250 CURVE SMOOTH",
"63 212 OFFCURVE",
"63 173 OFFCURVE",
"63 135 CURVE SMOOTH",
"63 52 OFFCURVE",
"118 -8 OFFCURVE",
"197 -8 CURVE SMOOTH"
);
},
{
closed = 1;
nodes = (
"131 13 OFFCURVE",
"85 63 OFFCURVE",
"85 135 CURVE SMOOTH",
"85 173 OFFCURVE",
"85 212 OFFCURVE",
"85 250 CURVE SMOOTH",
"85 288 OFFCURVE",
"85 327 OFFCURVE",
"85 365 CURVE SMOOTH",
"85 437 OFFCURVE",
"131 487 OFFCURVE",
"197 487 CURVE SMOOTH",
"264 487 OFFCURVE",
"310 437 OFFCURVE",
"310 365 CURVE SMOOTH",
"310 327 OFFCURVE",
"310 288 OFFCURVE",
"310 250 CURVE SMOOTH",
"310 212 OFFCURVE",
"310 173 OFFCURVE",
"310 135 CURVE SMOOTH",
"310 63 OFFCURVE",
"264 13 OFFCURVE",
"197 13 CURVE SMOOTH"
);
},
{
closed = 1;
nodes = (
"515 -8 OFFCURVE",
"567 40 OFFCURVE",
"577 109 CURVE",
"555 108 LINE",
"545 51 OFFCURVE",
"502 13 OFFCURVE",
"444 13 CURVE SMOOTH",
"378 13 OFFCURVE",
"332 63 OFFCURVE",
"332 135 CURVE SMOOTH",
"332 173 OFFCURVE",
"332 212 OFFCURVE",
"332 250 CURVE SMOOTH",
"332 288 OFFCURVE",
"332 327 OFFCURVE",
"332 365 CURVE SMOOTH",
"332 437 OFFCURVE",
"378 487 OFFCURVE",
"444 487 CURVE SMOOTH",
"511 487 OFFCURVE",
"557 437 OFFCURVE",
"557 365 CURVE SMOOTH",
"557 327 OFFCURVE",
"557 288 OFFCURVE",
"557 261 CURVE",
"566 267 LINE",
"324 267 LINE",
"324 249 LINE",
"579 249 LINE",
"579 289 OFFCURVE",
"579 327 OFFCURVE",
"579 365 CURVE SMOOTH",
"579 448 OFFCURVE",
"524 508 OFFCURVE",
"444 508 CURVE SMOOTH",
"365 508 OFFCURVE",
"314 448 OFFCURVE",
"310 365 CURVE SMOOTH",
"308 327 OFFCURVE",
"310 288 OFFCURVE",
"310 250 CURVE SMOOTH",
"310 212 OFFCURVE",
"308 173 OFFCURVE",
"310 135 CURVE SMOOTH",
"314 52 OFFCURVE",
"365 -8 OFFCURVE",
"444 -8 CURVE SMOOTH"
);
}
);
width = 635;
},
{
layerId = "4E2227F3-52E4-4048-A8EE-327B486EF0A4";
paths = (
{
closed = 1;
nodes = (
"367 -8 OFFCURVE",
"403 97 OFFCURVE",
"443 210 CURVE SMOOTH",
"451 232 OFFCURVE",
"443 237 OFFCURVE",
"443 260 CURVE SMOOTH",
"443 283 OFFCURVE",
"451 289 OFFCURVE",
"443 310 CURVE SMOOTH",
"403 416 OFFCURVE",
"367 528 OFFCURVE",
"231 528 CURVE SMOOTH",
"95 528 OFFCURVE",
"18 456 OFFCURVE",
"18 350 CURVE SMOOTH",
"18 327 OFFCURVE",
"18 283 OFFCURVE",
"18 260 CURVE SMOOTH",
"18 237 OFFCURVE",
"18 193 OFFCURVE",
"18 170 CURVE SMOOTH",
"18 57 OFFCURVE",
"95 -8 OFFCURVE",
"231 -8 CURVE SMOOTH"
);
},
{
closed = 1;
nodes = (
"216 153 OFFCURVE",
"206 166 OFFCURVE",
"206 185 CURVE SMOOTH",
"206 210 OFFCURVE",
"206 235 OFFCURVE",
"206 260 CURVE",
"206 285 OFFCURVE",
"206 310 OFFCURVE",
"206 335 CURVE SMOOTH",
"206 354 OFFCURVE",
"216 367 OFFCURVE",
"231 367 CURVE SMOOTH",
"245 367 OFFCURVE",
"255 354 OFFCURVE",
"255 335 CURVE SMOOTH",
"255 310 OFFCURVE",
"255 285 OFFCURVE",
"255 260 CURVE SMOOTH",
"255 235 OFFCURVE",
"255 210 OFFCURVE",
"255 185 CURVE SMOOTH",
"255 166 OFFCURVE",
"245 153 OFFCURVE",
"231 153 CURVE SMOOTH"
);
},
{
closed = 1;
nodes = (
"629 -8 OFFCURVE",
"694 60 OFFCURVE",
"696 181 CURVE",
"513 192 LINE",
"513 176 OFFCURVE",
"507 153 OFFCURVE",
"488 153 CURVE SMOOTH",
"474 153 OFFCURVE",
"465 166 OFFCURVE",
"465 185 CURVE SMOOTH",
"465 210 OFFCURVE",
"465 235 OFFCURVE",
"465 260 CURVE SMOOTH",
"465 285 OFFCURVE",
"465 310 OFFCURVE",
"465 335 CURVE SMOOTH",
"465 354 OFFCURVE",
"474 367 OFFCURVE",
"488 367 CURVE SMOOTH",
"501 367 OFFCURVE",
"510 354 OFFCURVE",
"510 335 CURVE SMOOTH",
"510 316 OFFCURVE",
"510 298 OFFCURVE",
"510 279 CURVE",
"573 305 LINE",
"415 305 LINE",
"415 213 LINE",
"698 213 LINE",
"698 221 OFFCURVE",
"698 291 OFFCURVE",
"698 350 CURVE SMOOTH",
"698 456 OFFCURVE",
"622 528 OFFCURVE",
"488 528 CURVE SMOOTH",
"354 528 OFFCURVE",
"317 416 OFFCURVE",
"277 310 CURVE SMOOTH",
"269 289 OFFCURVE",
"277 283 OFFCURVE",
"277 260 CURVE SMOOTH",
"277 230 OFFCURVE",
"267 238 OFFCURVE",
"277 210 CURVE SMOOTH",
"317 97 OFFCURVE",
"354 -8 OFFCURVE",
"488 -8 CURVE SMOOTH"
);
}
);
width = 714;
},
{
associatedMasterId = "FFFA8D72-12AC-4CE0-B2CA-57A29829F4DA";
hints = (
{
horizontal = 1;
origin = "{0, 11}";
target = "{1, 11}";
},
{
origin = "{0, 17}";
target = "{1, 5}";
},
{
origin = "{1, 17}";
target = "{0, 5}";
},
{
horizontal = 1;
origin = "{0, 23}";
target = "{1, 23}";
},
{
origin = "{2, 40}";
target = "{2, 12}";
},
{
origin = "{2, 24}";
target = "{2, 28}";
},
{
horizontal = 1;
origin = "{2, 28}";
target = "{2, 24}";
},
{
horizontal = 1;
origin = "{2, 34}";
target = "{2, 18}";
},
{
horizontal = 1;
origin = "{2, 46}";
target = "{2, 6}";
},
{
origin = "{2, 3}";
target = "{2, 2}";
}
);
layerId = "B919F7AB-983C-4A6F-8B3E-D89048AE680C";
name = "{140,5}";
paths = (
{
closed = 1;
nodes = (
"377 -8 OFFCURVE",
"459 67 OFFCURVE",
"489 156 CURVE SMOOTH",
"499 188 OFFCURVE",
"505 210 OFFCURVE",
"505 259 CURVE SMOOTH",
"505 304 OFFCURVE",
"500 328 OFFCURVE",
"489 361 CURVE SMOOTH",
"456 455 OFFCURVE",
"372 522 OFFCURVE",
"273 522 CURVE SMOOTH",
"170 522 OFFCURVE",
"88 465 OFFCURVE",
"57 376 CURVE SMOOTH",
"46 344 OFFCURVE",
"41 306 OFFCURVE",
"41 259 CURVE SMOOTH",
"41 215 OFFCURVE",
"45 177 OFFCURVE",
"57 141 CURVE SMOOTH",
"89 50 OFFCURVE",
"170 -8 OFFCURVE",
"273 -8 CURVE SMOOTH"
);
},
{
closed = 1;
nodes = (
"233 112 OFFCURVE",
"204 137 OFFCURVE",
"193 176 CURVE SMOOTH",
"186 196 OFFCURVE",
"182 223 OFFCURVE",
"182 259 CURVE SMOOTH",
"182 292 OFFCURVE",
"185 320 OFFCURVE",
"192 339 CURVE SMOOTH",
"204 376 OFFCURVE",
"233 402 OFFCURVE",
"273 402 CURVE SMOOTH",
"312 402 OFFCURVE",
"342 377 OFFCURVE",
"353 339 CURVE SMOOTH",
"360 321 OFFCURVE",
"363 294 OFFCURVE",
"363 259 CURVE SMOOTH",
"363 224 OFFCURVE",
"360 195 OFFCURVE",
"353 176 CURVE SMOOTH",
"342 138 OFFCURVE",
"312 112 OFFCURVE",
"273 112 CURVE SMOOTH"
);
},
{
closed = 1;
nodes = (
"706 -8 OFFCURVE",
"775 29 OFFCURVE",
"819 92 CURVE",
"731 167 LINE",
"711 131 OFFCURVE",
"667 109 OFFCURVE",
"633 109 CURVE SMOOTH",
"572 109 OFFCURVE",
"536 133 OFFCURVE",
"523 176 CURVE SMOOTH",
"516 194 OFFCURVE",
"514 221 OFFCURVE",
"514 259 CURVE SMOOTH",
"514 291 OFFCURVE",
"517 319 OFFCURVE",
"523 338 CURVE SMOOTH",
"534 376 OFFCURVE",
"563 402 OFFCURVE",
"606 402 CURVE SMOOTH",
"649 402 OFFCURVE",
"679 376 OFFCURVE",
"690 338 CURVE SMOOTH",
"696 320 OFFCURVE",
"698 291 OFFCURVE",
"698 261 CURVE",
"751 304 LINE",
"473 304 LINE",
"473 208 LINE",
"839 208 LINE",
"839 294 OFFCURVE",
"833 345 OFFCURVE",
"823 374 CURVE SMOOTH",
"795 460 OFFCURVE",
"711 522 OFFCURVE",
"604 522 CURVE SMOOTH",
"503 522 OFFCURVE",
"420 451 OFFCURVE",
"390 361 CURVE SMOOTH",
"378 326 OFFCURVE",
"373 303 OFFCURVE",
"373 259 CURVE SMOOTH",
"373 212 OFFCURVE",
"379 189 OFFCURVE",
"390 156 CURVE SMOOTH",
"421 62 OFFCURVE",
"500 -8 OFFCURVE",
"615 -8 CURVE SMOOTH"
);
}
);
width = 876;
},
{
associatedMasterId = "FFFA8D72-12AC-4CE0-B2CA-57A29829F4DA";
layerId = "DC9AEC88-6814-4214-BBCA-94A22AA36547";
name = "{140,3}";
paths = (
{
closed = 1;
nodes = (
"341 -8 OFFCURVE",
"381 84 OFFCURVE",
"411 188 CURVE SMOOTH",
"417 215 OFFCURVE",
"411 230 OFFCURVE",
"411 257 CURVE SMOOTH",
"411 284 OFFCURVE",
"417 300 OFFCURVE",
"411 326 CURVE SMOOTH",
"381 425 OFFCURVE",
"341 522 OFFCURVE",
"221 522 CURVE SMOOTH",
"102 522 OFFCURVE",
"31 454 OFFCURVE",
"31 354 CURVE SMOOTH",
"31 327 OFFCURVE",
"31 284 OFFCURVE",
"31 257 CURVE SMOOTH",
"31 230 OFFCURVE",
"31 187 OFFCURVE",
"31 160 CURVE SMOOTH",
"31 56 OFFCURVE",
"102 -8 OFFCURVE",
"221 -8 CURVE SMOOTH"
);
},
{
closed = 1;
nodes = (
"191 112 OFFCURVE",
"171 136 OFFCURVE",
"171 170 CURVE SMOOTH",
"171 199 OFFCURVE",
"171 228 OFFCURVE",
"171 257 CURVE SMOOTH",
"171 286 OFFCURVE",
"171 315 OFFCURVE",
"171 344 CURVE SMOOTH",
"171 378 OFFCURVE",
"191 402 OFFCURVE",
"221 402 CURVE SMOOTH",
"251 402 OFFCURVE",
"271 378 OFFCURVE",
"271 344 CURVE SMOOTH",
"271 315 OFFCURVE",
"271 286 OFFCURVE",
"271 257 CURVE SMOOTH",
"271 228 OFFCURVE",
"271 199 OFFCURVE",
"271 170 CURVE SMOOTH",
"271 136 OFFCURVE",
"251 112 OFFCURVE",
"221 112 CURVE SMOOTH"
);
},
{
closed = 1;
nodes = (
"596 -8 OFFCURVE",
"657 54 OFFCURVE",
"661 160 CURVE",
"525 168 LINE",
"522 140 OFFCURVE",
"506 112 OFFCURVE",
"475 112 CURVE SMOOTH",
"446 112 OFFCURVE",
"426 136 OFFCURVE",
"426 170 CURVE SMOOTH",
"426 199 OFFCURVE",
"426 228 OFFCURVE",
"426 257 CURVE SMOOTH",
"426 286 OFFCURVE",
"426 315 OFFCURVE",
"426 344 CURVE SMOOTH",
"426 378 OFFCURVE",
"446 402 OFFCURVE",
"475 402 CURVE SMOOTH",
"504 402 OFFCURVE",
"524 378 OFFCURVE",
"524 344 CURVE SMOOTH",
"524 319 OFFCURVE",
"524 295 OFFCURVE",
"524 274 CURVE",
"571 304 LINE",
"389 304 LINE",
"389 210 LINE",
"663 210 LINE",
"663 228 OFFCURVE",
"663 301 OFFCURVE",
"663 354 CURVE SMOOTH",
"663 454 OFFCURVE",
"593 522 OFFCURVE",
"475 522 CURVE SMOOTH",
"357 522 OFFCURVE",
"316 425 OFFCURVE",
"287 326 CURVE SMOOTH",
"280 300 OFFCURVE",
"287 284 OFFCURVE",
"287 257 CURVE SMOOTH",
"287 225 OFFCURVE",
"279 219 OFFCURVE",
"287 188 CURVE SMOOTH",
"316 84 OFFCURVE",
"357 -8 OFFCURVE",
"475 -8 CURVE SMOOTH"
);
}
);
width = 690;
}
);
leftMetricsKey = "=o";
rightMetricsKey = "=e";
unicode = 0153;
},
{
glyphname = thorn;
lastChange = "2017-04-27 10:02:08 +0000";
layers = (
{
components = (
{
name = b.bowl;
transform = "{1, 0, 0, 1, 102, 0}";
}
);
layerId = "262880E7-CFE1-4BDA-902E-E24798F3240A";
paths = (
{
closed = 1;
nodes = (
"99 -167 LINE",
"121 -167 LINE",
"121 725 LINE",
"99 725 LINE"
);
}
);
width = 532;
},
{
components = (
{
name = b.bowl;
transform = "{1, 0, 0, 1, 162, 0}";
}
);
layerId = "FFFA8D72-12AC-4CE0-B2CA-57A29829F4DA";
paths = (
{
closed = 1;
nodes = (
"33 -183 LINE",
"221 -183 LINE",
"221 733 LINE",
"33 733 LINE"
);
}
);
width = 546;
},
{
components = (
{
name = b.bowl;
transform = "{1, 0, 0, 1, 84, 0}";
}
);
layerId = "DCBE1F7B-116A-43E0-B7B4-8657BA77D8B5";
paths = (
{
closed = 1;
nodes = (
"77 -167 LINE",
"99 -167 LINE",
"99 725 LINE",
"77 725 LINE"
);
}
);
width = 407;
},
{
components = (
{
name = b.bowl;
transform = "{1, 0, 0, 1, 176, 0}";
}
);
layerId = "4E2227F3-52E4-4048-A8EE-327B486EF0A4";
paths = (
{
closed = 1;
nodes = (
"22 -183 LINE",
"210 -183 LINE",
"210 733 LINE",
"22 733 LINE"
);
}
);
width = 461;
}
);
leftMetricsKey = "=l";
rightMetricsKey = "=b";
unicode = 00FE;
},
{
color = 3;
glyphname = r;
lastChange = "2017-04-25 12:36:53 +0000";
layers = (
{
hints = (
{
horizontal = 1;
origin = "{0, 10}";
target = "{0, 3}";
},
{
origin = "{1, 3}";
target = "{1, 0}";
}
);
layerId = "262880E7-CFE1-4BDA-902E-E24798F3240A";
paths = (
{
closed = 1;
nodes = (
"121 331 LINE",
"121 419 OFFCURVE",
"180 479 OFFCURVE",
"265 479 CURVE SMOOTH",
"292 479 OFFCURVE",
"307 474 OFFCURVE",
"322 466 CURVE",
"333 489 LINE",
"316 498 OFFCURVE",
"298 504 OFFCURVE",
"266 504 CURVE SMOOTH",
"169 504 OFFCURVE",
"106 438 OFFCURVE",
"106 331 CURVE"
);
},
{
closed = 1;
nodes = (
"121 0 LINE",
"121 500 LINE",
"99 500 LINE",
"99 0 LINE"
);
}
);
width = 342;
},
{
layerId = "4E2227F3-52E4-4048-A8EE-327B486EF0A4";
paths = (
{
closed = 1;
nodes = (
"210 273 LINE",
"210 294 OFFCURVE",
"222 318 OFFCURVE",
"241 327 CURVE SMOOTH",
"265 338 OFFCURVE",
"304 333 OFFCURVE",
"314 325 CURVE",
"343 510 LINE",
"334 519 OFFCURVE",
"318 527 OFFCURVE",
"293 527 CURVE SMOOTH",
"176 527 OFFCURVE",
"182 352 OFFCURVE",
"182 273 CURVE"
);
},
{
closed = 1;
nodes = (
"210 1 LINE",
"210 520 LINE",
"22 520 LINE",
"22 1 LINE"
);
}
);
width = 345;
},
{
layerId = "FFFA8D72-12AC-4CE0-B2CA-57A29829F4DA";
paths = (
{
closed = 1;
nodes = (
"221 273 LINE",
"221 307 OFFCURVE",
"255 326 OFFCURVE",
"284 332 CURVE SMOOTH",
"317 339 OFFCURVE",
"351 332 OFFCURVE",
"359 325 CURVE",
"388 507 LINE",
"379 516 OFFCURVE",
"359 527 OFFCURVE",
"325 527 CURVE SMOOTH",
"207 527 OFFCURVE",
"173 394 OFFCURVE",
"173 273 CURVE"
);
},
{
closed = 1;
nodes = (
"221 1 LINE",
"221 520 LINE",
"33 520 LINE",
"33 1 LINE"
);
}
);
width = 391;
},
{
layerId = "DCBE1F7B-116A-43E0-B7B4-8657BA77D8B5";
paths = (
{
closed = 1;
nodes = (
"99 331 LINE",
"99 419 OFFCURVE",
"142 479 OFFCURVE",
"203 479 CURVE SMOOTH",
"224 479 OFFCURVE",
"235 474 OFFCURVE",
"246 466 CURVE",
"256 489 LINE",
"243 498 OFFCURVE",
"230 504 OFFCURVE",
"206 504 CURVE SMOOTH",
"133 504 OFFCURVE",
"86 438 OFFCURVE",
"86 331 CURVE"
);
},
{
closed = 1;
nodes = (
"99 0 LINE",
"99 500 LINE",
"77 500 LINE",
"77 0 LINE"
);
}
);
width = 263;
},
{
associatedMasterId = "4E2227F3-52E4-4048-A8EE-327B486EF0A4";
layerId = "0231DC7A-BAB0-489B-A1F9-3A50B9D86C74";
name = "{100,5}";
paths = (
{
closed = 1;
nodes = (
"167 304 LINE",
"167 360 OFFCURVE",
"202 402 OFFCURVE",
"250 408 CURVE SMOOTH",
"273 411 OFFCURVE",
"296 405 OFFCURVE",
"305 400 CURVE",
"338 499 LINE",
"325 508 OFFCURVE",
"309 515 OFFCURVE",
"276 515 CURVE SMOOTH",
"179 515 OFFCURVE",
"127 412 OFFCURVE",
"127 304 CURVE"
);
},
{
closed = 1;
nodes = (
"167 0 LINE",
"167 510 LINE",
"68 510 LINE",
"68 0 LINE"
);
}
);
width = 344;
}
);
leftKerningGroup = n;
rightKerningGroup = r;
unicode = 0072;
},
